<?xml version="1.0" encoding="UTF-8" standalone="no"?>
<!DOCTYPE svg PUBLIC "-//W3C//DTD SVG 1.1//EN"
 "http://www.w3.org/Graphics/SVG/1.1/DTD/svg11.dtd">
<!-- Generated by graphviz version 2.43.0 (0)
 -->
<!-- Title: includes/AComponentStorage.hpp Pages: 1 -->
<svg width="303pt" height="247pt"
 viewBox="0.00 0.00 302.50 247.00" xmlns="http://www.w3.org/2000/svg" xmlns:xlink="http://www.w3.org/1999/xlink">

<svg id="main" version="1.1" xmlns="http://www.w3.org/2000/svg" xmlns:xlink="http://www.w3.org/1999/xlink" xml:space="preserve" onload="init(evt)">
<style type="text/css"><![CDATA[
.node, .edge {opacity: 0.7;}
.node.selected, .edge.selected {opacity: 1;}
.edge:hover path { stroke: red; }
.edge:hover polygon { stroke: red; fill: red; }
]]></style>
<script type="application/ecmascript" xlink:href="svg.min.js"/>
<svg id="graph" class="graph">
<g id="graph0" class="graph" transform="scale(1 1) rotate(0) translate(4 243)">
<title>includes/AComponentStorage.hpp</title>
<!-- Node1 -->
<g id="Node000001" class="node">
<title>Node1</title>
<g id="a_Node000001"><a xlink:title=" ">
<polygon fill="#999999" stroke="#666666" points="182,-239 0,-239 0,-220 182,-220 182,-239"/>
<text text-anchor="middle" x="91" y="-227" font-family="Helvetica,sans-Serif" font-size="10.00">includes/AComponentStorage.hpp</text>
</a>
</g>
</g>
<!-- Node2 -->
<g id="Node000002" class="node">
<title>Node2</title>
<g id="a_Node000002"><a xlink:href="ComponentManager_8hpp.html" target="_top" xlink:title=" ">
<polygon fill="white" stroke="#666666" points="220.5,-129 41.5,-129 41.5,-110 220.5,-110 220.5,-129"/>
<text text-anchor="middle" x="131" y="-117" font-family="Helvetica,sans-Serif" font-size="10.00">includes/ComponentManager.hpp</text>
</a>
</g>
</g>
<!-- Node1&#45;&gt;Node2 -->
<g id="edge1_Node000001_Node000002" class="edge">
<title>Node1&#45;&gt;Node2</title>
<g id="a_edge1_Node000001_Node000002"><a xlink:title=" ">
<path fill="none" stroke="#63b8ff" d="M95.79,-209.82C99.27,-197.04 104.33,-179.79 110,-165 114.89,-152.24 121.87,-138.04 126.42,-129.2"/>
<polygon fill="#63b8ff" stroke="#63b8ff" points="92.35,-209.17 93.18,-219.73 99.11,-210.96 92.35,-209.17"/>
</a>
</g>
</g>
<!-- Node4 -->
<g id="Node000004" class="node">
<title>Node4</title>
<g id="a_Node000004"><a xlink:href="ECS_8hpp.html" target="_top" xlink:title=" ">
<polygon fill="white" stroke="#666666" points="210,-19 110,-19 110,0 210,0 210,-19"/>
<text text-anchor="middle" x="160" y="-7" font-family="Helvetica,sans-Serif" font-size="10.00">includes/ECS.hpp</text>
</a>
</g>
</g>
<!-- Node1&#45;&gt;Node4 -->
<g id="edge8_Node000001_Node000004" class="edge">
<title>Node1&#45;&gt;Node4</title>
<g id="a_edge8_Node000001_Node000004"><a xlink:title=" ">
<path fill="none" stroke="#63b8ff" d="M76.43,-211.93C49.41,-179.11 -2.54,-104.72 34,-55 51.52,-31.17 82.84,-20.03 109.87,-14.87"/>
<polygon fill="#63b8ff" stroke="#63b8ff" points="73.87,-214.31 83,-219.69 79.21,-209.79 73.87,-214.31"/>
</a>
</g>
</g>
<!-- Node5 -->
<g id="Node000005" class="node">
<title>Node5</title>
<g id="a_Node000005"><a xlink:href="ComponentStorage_8hpp.html" target="_top" xlink:title=" ">
<polygon fill="white" stroke="#666666" points="294.5,-184 119.5,-184 119.5,-165 294.5,-165 294.5,-184"/>
<text text-anchor="middle" x="207" y="-172" font-family="Helvetica,sans-Serif" font-size="10.00">includes/ComponentStorage.hpp</text>
</a>
</g>
</g>
<!-- Node1&#45;&gt;Node5 -->
<g id="edge5_Node000001_Node000005" class="edge">
<title>Node1&#45;&gt;Node5</title>
<g id="a_edge5_Node000001_Node000005"><a xlink:title=" ">
<path fill="none" stroke="#63b8ff" d="M118.87,-215.77C140.27,-205.99 169.24,-192.75 188.02,-184.17"/>
<polygon fill="#63b8ff" stroke="#63b8ff" points="117.28,-212.65 109.64,-219.98 120.19,-219.01 117.28,-212.65"/>
</a>
</g>
</g>
<!-- Node3 -->
<g id="Node000003" class="node">
<title>Node3</title>
<g id="a_Node000003"><a xlink:href="Coordinator_8hpp.html" target="_top" xlink:title="Central coordinator for the Entity Component System.">
<polygon fill="white" stroke="#666666" points="180.5,-74 43.5,-74 43.5,-55 180.5,-55 180.5,-74"/>
<text text-anchor="middle" x="112" y="-62" font-family="Helvetica,sans-Serif" font-size="10.00">includes/Coordinator.hpp</text>
</a>
</g>
</g>
<!-- Node2&#45;&gt;Node3 -->
<g id="edge2_Node000002_Node000003" class="edge">
<title>Node2&#45;&gt;Node3</title>
<g id="a_edge2_Node000002_Node000003"><a xlink:title=" ">
<path fill="none" stroke="#63b8ff" d="M124.45,-100.24C121.28,-91.37 117.61,-81.14 115.08,-74.09"/>
<polygon fill="#63b8ff" stroke="#63b8ff" points="121.19,-101.52 127.86,-109.75 127.78,-99.15 121.19,-101.52"/>
</a>
</g>
</g>
<!-- Node2&#45;&gt;Node4 -->
<g id="edge4_Node000002_Node000004" class="edge">
<title>Node2&#45;&gt;Node4</title>
<g id="a_edge4_Node000002_Node000004"><a xlink:title=" ">
<path fill="none" stroke="#63b8ff" d="M159.07,-104.84C170.9,-97.48 183.43,-87.18 190,-74 199.68,-54.58 181.39,-31.46 169.35,-19.18"/>
<polygon fill="#63b8ff" stroke="#63b8ff" points="157.2,-101.88 150.27,-109.9 160.68,-107.95 157.2,-101.88"/>
</a>
</g>
</g>
<!-- Node3&#45;&gt;Node4 -->
<g id="edge3_Node000003_Node000004" class="edge">
<title>Node3&#45;&gt;Node4</title>
<g id="a_edge3_Node000003_Node000004"><a xlink:title=" ">
<path fill="none" stroke="#63b8ff" d="M126.73,-47.24C135.14,-37.95 145.35,-26.68 152.22,-19.09"/>
<polygon fill="#63b8ff" stroke="#63b8ff" points="124.04,-44.99 119.93,-54.75 129.23,-49.69 124.04,-44.99"/>
</a>
</g>
</g>
<!-- Node5&#45;&gt;Node2 -->
<g id="edge6_Node000005_Node000002" class="edge">
<title>Node5&#45;&gt;Node2</title>
<g id="a_edge6_Node000005_Node000002"><a xlink:title=" ">
<path fill="none" stroke="#63b8ff" d="M186.42,-159.15C172.69,-149.57 155.07,-137.29 143.43,-129.17"/>
<polygon fill="#63b8ff" stroke="#63b8ff" points="184.58,-162.14 194.79,-164.98 188.59,-156.39 184.58,-162.14"/>
</a>
</g>
</g>
<!-- Node5&#45;&gt;Node4 -->
<g id="edge7_Node000005_Node000004" class="edge">
<title>Node5&#45;&gt;Node4</title>
<g id="a_edge7_Node000005_Node000004"><a xlink:title=" ">
<path fill="none" stroke="#63b8ff" d="M218.42,-156.15C222.98,-148.22 227.69,-138.49 230,-129 232,-120.79 231.79,-118.25 230,-110 224.32,-83.76 220.36,-77.03 205,-55 195.2,-40.94 180.63,-27.49 170.75,-19.13"/>
<polygon fill="#63b8ff" stroke="#63b8ff" points="215.36,-154.45 213.1,-164.8 221.32,-158.11 215.36,-154.45"/>
</a>
</g>
</g>
</g>
</svg>
</svg>

<style type='text/css'>
<![CDATA[
[data-mouse-over-selected='false'] { opacity: 0.7; }
[data-mouse-over-selected='true']  { opacity: 1.0; }
]]>
</style>
<script type="application/ecmascript"><![CDATA[
document.addEventListener('DOMContentLoaded', (event) => {
  highlightEdges();
  highlightAdjacentNodes();
});
]]></script>
</svg>
