<?xml version="1.0" encoding="UTF-8" standalone="no"?>
<!DOCTYPE svg PUBLIC "-//W3C//DTD SVG 1.1//EN"
 "http://www.w3.org/Graphics/SVG/1.1/DTD/svg11.dtd">
<!-- Generated by graphviz version 2.43.0 (0)
 -->
<!-- Title: SystemManager Pages: 1 -->
<svg width="328pt" height="673pt"
 viewBox="0.00 0.00 328.00 673.00" xmlns="http://www.w3.org/2000/svg" xmlns:xlink="http://www.w3.org/1999/xlink">
<g id="graph0" class="graph" transform="scale(1 1) rotate(0) translate(4 669)">
<title>SystemManager</title>
<!-- Node1 -->
<g id="Node000001" class="node">
<title>Node1</title>
<g id="a_Node000001"><a xlink:title="Manages systems and their component signatures.">
<polygon fill="#999999" stroke="transparent" points="237,-109 90,-109 90,0 237,0 237,-109"/>
<text text-anchor="start" x="124" y="-96.5" font-family="Helvetica,sans-Serif" font-size="10.00">SystemManager</text>
<text text-anchor="start" x="162" y="-81.5" font-family="Helvetica,sans-Serif" font-size="10.00"> </text>
<text text-anchor="start" x="94.5" y="-66.5" font-family="Helvetica,sans-Serif" font-size="10.00">+</text>
<text text-anchor="start" x="107.5" y="-66.5" font-family="Helvetica,sans-Serif" font-size="10.00">registerSystem()</text>
<text text-anchor="start" x="94.5" y="-51.5" font-family="Helvetica,sans-Serif" font-size="10.00">+</text>
<text text-anchor="start" x="107.5" y="-51.5" font-family="Helvetica,sans-Serif" font-size="10.00">getSystem()</text>
<text text-anchor="start" x="94.5" y="-36.5" font-family="Helvetica,sans-Serif" font-size="10.00">+</text>
<text text-anchor="start" x="107.5" y="-36.5" font-family="Helvetica,sans-Serif" font-size="10.00">setSignature()</text>
<text text-anchor="start" x="94.5" y="-21.5" font-family="Helvetica,sans-Serif" font-size="10.00">+</text>
<text text-anchor="start" x="107.5" y="-21.5" font-family="Helvetica,sans-Serif" font-size="10.00">entityDestroyed()</text>
<text text-anchor="start" x="94.5" y="-6.5" font-family="Helvetica,sans-Serif" font-size="10.00">+</text>
<text text-anchor="start" x="107.5" y="-6.5" font-family="Helvetica,sans-Serif" font-size="10.00">entitySignatureChanged()</text>
<polygon fill="#666666" stroke="#666666" points="90.5,-91.5 90.5,-91.5 237.5,-91.5 237.5,-91.5 90.5,-91.5"/>
<polygon fill="#666666" stroke="#666666" points="90.5,-76.5 90.5,-76.5 237.5,-76.5 237.5,-76.5 90.5,-76.5"/>
<polygon fill="none" stroke="#666666" points="90,0 90,-109 237,-109 237,0 90,0"/>
</a>
</g>
</g>
<!-- Node2 -->
<g id="Node000002" class="node">
<title>Node2</title>
<g id="a_Node000002"><a xlink:title=" ">
<polygon fill="white" stroke="transparent" points="161,-221.5 0,-221.5 0,-161.5 161,-161.5 161,-221.5"/>
<text text-anchor="start" x="5.5" y="-209.5" font-family="Helvetica,sans-Serif" font-size="10.00">std::unordered_map</text>
<text text-anchor="start" x="5.5" y="-198.5" font-family="Helvetica,sans-Serif" font-size="10.00">&lt; std::type_index, Signature &gt;</text>
<text text-anchor="start" x="33.5" y="-183.5" font-family="Helvetica,sans-Serif" font-size="10.00">+</text>
<text text-anchor="start" x="75.5" y="-183.5" font-family="Helvetica,sans-Serif" font-size="10.00">keys</text>
<text text-anchor="start" x="79" y="-168.5" font-family="Helvetica,sans-Serif" font-size="10.00"> </text>
<polygon fill="#666666" stroke="#666666" points="0.5,-193.5 0.5,-193.5 161.5,-193.5 161.5,-193.5 0.5,-193.5"/>
<polygon fill="#666666" stroke="#666666" points="0.5,-178.5 0.5,-178.5 73.5,-178.5 73.5,-178.5 0.5,-178.5"/>
<polygon fill="#666666" stroke="#666666" points="73.5,-178.5 73.5,-178.5 161.5,-178.5 161.5,-178.5 73.5,-178.5"/>
<polygon fill="none" stroke="#666666" points="0,-161.5 0,-221.5 161,-221.5 161,-161.5 0,-161.5"/>
</a>
</g>
</g>
<!-- Node2&#45;&gt;Node1 -->
<g id="edge1_Node000001_Node000002" class="edge">
<title>Node2&#45;&gt;Node1</title>
<g id="a_edge1_Node000001_Node000002"><a xlink:title=" ">
<path fill="none" stroke="#63b8ff" d="M98.51,-161.21C106.03,-148.98 115.08,-134.25 124.01,-119.73"/>
<polygon fill="none" stroke="#63b8ff" points="124.18,-119.45 123.92,-112.24 130.47,-109.23 130.73,-116.43 124.18,-119.45"/>
</a>
</g>
<text text-anchor="middle" x="148.5" y="-130" font-family="Helvetica,sans-Serif" font-size="10.00" fill="grey"> &#45;signatures</text>
</g>
<!-- Node3 -->
<g id="Node000003" class="node">
<title>Node3</title>
<g id="a_Node000003"><a xlink:title=" ">
<polygon fill="white" stroke="transparent" points="131,-323 30,-323 30,-274 131,-274 131,-323"/>
<text text-anchor="start" x="35.5" y="-310.5" font-family="Helvetica,sans-Serif" font-size="10.00">std::bitset&lt; Bits &gt;</text>
<text text-anchor="start" x="79" y="-295.5" font-family="Helvetica,sans-Serif" font-size="10.00"> </text>
<text text-anchor="start" x="79" y="-280.5" font-family="Helvetica,sans-Serif" font-size="10.00"> </text>
<polygon fill="#666666" stroke="#666666" points="30.5,-305.5 30.5,-305.5 131.5,-305.5 131.5,-305.5 30.5,-305.5"/>
<polygon fill="#666666" stroke="#666666" points="30.5,-290.5 30.5,-290.5 131.5,-290.5 131.5,-290.5 30.5,-290.5"/>
<polygon fill="none" stroke="#666666" points="30,-274 30,-323 131,-323 131,-274 30,-274"/>
</a>
</g>
</g>
<!-- Node3&#45;&gt;Node2 -->
<g id="edge2_Node000002_Node000003" class="edge">
<title>Node3&#45;&gt;Node2</title>
<g id="a_edge2_Node000002_Node000003"><a xlink:title=" ">
<path fill="none" stroke="#63b8ff" d="M80.5,-273.94C80.5,-262.09 80.5,-247.37 80.5,-233.73"/>
<polygon fill="none" stroke="#63b8ff" points="80.5,-233.61 76.5,-227.61 80.5,-221.61 84.5,-227.61 80.5,-233.61"/>
</a>
</g>
<text text-anchor="middle" x="109.5" y="-248" font-family="Helvetica,sans-Serif" font-size="10.00" fill="grey"> +elements</text>
</g>
<!-- Node4 -->
<g id="Node000004" class="node">
<title>Node4</title>
<g id="a_Node000004"><a xlink:title=" ">
<polygon fill="white" stroke="transparent" points="318,-227 179,-227 179,-156 318,-156 318,-227"/>
<text text-anchor="start" x="184.5" y="-214.5" font-family="Helvetica,sans-Serif" font-size="10.00">std::unordered_map</text>
<text text-anchor="start" x="184.5" y="-203.5" font-family="Helvetica,sans-Serif" font-size="10.00">&lt; std::type_index, std</text>
<text text-anchor="start" x="184.5" y="-192.5" font-family="Helvetica,sans-Serif" font-size="10.00">::shared_ptr&lt; System &gt; &gt;</text>
<text text-anchor="start" x="207" y="-177.5" font-family="Helvetica,sans-Serif" font-size="10.00">+</text>
<text text-anchor="start" x="243.5" y="-177.5" font-family="Helvetica,sans-Serif" font-size="10.00">keys</text>
<text text-anchor="start" x="247" y="-162.5" font-family="Helvetica,sans-Serif" font-size="10.00"> </text>
<polygon fill="#666666" stroke="#666666" points="179.5,-187.5 179.5,-187.5 318.5,-187.5 318.5,-187.5 179.5,-187.5"/>
<polygon fill="#666666" stroke="#666666" points="179.5,-172.5 179.5,-172.5 241.5,-172.5 241.5,-172.5 179.5,-172.5"/>
<polygon fill="#666666" stroke="#666666" points="241.5,-172.5 241.5,-172.5 318.5,-172.5 318.5,-172.5 241.5,-172.5"/>
<polygon fill="none" stroke="#666666" points="179,-156 179,-227 318,-227 318,-156 179,-156"/>
</a>
</g>
</g>
<!-- Node4&#45;&gt;Node1 -->
<g id="edge3_Node000001_Node000004" class="edge">
<title>Node4&#45;&gt;Node1</title>
<g id="a_edge3_Node000001_Node000004"><a xlink:title=" ">
<path fill="none" stroke="#63b8ff" d="M226.61,-155.73C219.62,-144.63 211.64,-131.96 203.77,-119.45"/>
<polygon fill="none" stroke="#63b8ff" points="203.59,-119.18 197.01,-116.23 197.2,-109.02 203.78,-111.97 203.59,-119.18"/>
</a>
</g>
<text text-anchor="middle" x="238" y="-130" font-family="Helvetica,sans-Serif" font-size="10.00" fill="grey"> &#45;systems</text>
</g>
<!-- Node5 -->
<g id="Node000005" class="node">
<title>Node5</title>
<g id="a_Node000005"><a xlink:title=" ">
<polygon fill="white" stroke="transparent" points="320,-323 177,-323 177,-274 320,-274 320,-323"/>
<text text-anchor="start" x="182.5" y="-310.5" font-family="Helvetica,sans-Serif" font-size="10.00">std::shared_ptr&lt; System &gt;</text>
<text text-anchor="start" x="247" y="-295.5" font-family="Helvetica,sans-Serif" font-size="10.00"> </text>
<text text-anchor="start" x="196.5" y="-280.5" font-family="Helvetica,sans-Serif" font-size="10.00">+</text>
<text text-anchor="start" x="224.5" y="-280.5" font-family="Helvetica,sans-Serif" font-size="10.00">operator&#45;&gt;()</text>
<polygon fill="#666666" stroke="#666666" points="177.5,-305.5 177.5,-305.5 320.5,-305.5 320.5,-305.5 177.5,-305.5"/>
<polygon fill="#666666" stroke="#666666" points="177.5,-290.5 177.5,-290.5 320.5,-290.5 320.5,-290.5 177.5,-290.5"/>
<polygon fill="none" stroke="#666666" points="177,-274 177,-323 320,-323 320,-274 177,-274"/>
</a>
</g>
</g>
<!-- Node5&#45;&gt;Node4 -->
<g id="edge4_Node000004_Node000005" class="edge">
<title>Node5&#45;&gt;Node4</title>
<g id="a_edge4_Node000004_Node000005"><a xlink:title=" ">
<path fill="none" stroke="#63b8ff" d="M248.5,-273.94C248.5,-263.7 248.5,-251.34 248.5,-239.37"/>
<polygon fill="none" stroke="#63b8ff" points="248.5,-239.15 244.5,-233.15 248.5,-227.15 252.5,-233.15 248.5,-239.15"/>
</a>
</g>
<text text-anchor="middle" x="277.5" y="-248" font-family="Helvetica,sans-Serif" font-size="10.00" fill="grey"> +elements</text>
</g>
<!-- Node6 -->
<g id="Node000006" class="node">
<title>Node6</title>
<g id="a_Node000006"><a xlink:href="classSystem.html" target="_top" xlink:title="Base class for all systems in the ECS architecture.">
<polygon fill="white" stroke="transparent" points="316.5,-569 180.5,-569 180.5,-370 316.5,-370 316.5,-569"/>
<text text-anchor="start" x="230" y="-556.5" font-family="Helvetica,sans-Serif" font-size="10.00">System</text>
<text text-anchor="start" x="187" y="-541.5" font-family="Helvetica,sans-Serif" font-size="10.00">&#45;</text>
<text text-anchor="start" x="197.5" y="-541.5" font-family="Helvetica,sans-Serif" font-size="10.00">_delta</text>
<text text-anchor="start" x="187" y="-526.5" font-family="Helvetica,sans-Serif" font-size="10.00">&#45;</text>
<text text-anchor="start" x="197.5" y="-526.5" font-family="Helvetica,sans-Serif" font-size="10.00">_threshold</text>
<text text-anchor="start" x="187" y="-511.5" font-family="Helvetica,sans-Serif" font-size="10.00">&#45;</text>
<text text-anchor="start" x="197.5" y="-511.5" font-family="Helvetica,sans-Serif" font-size="10.00">_isTaskRunning</text>
<text text-anchor="start" x="184.5" y="-496.5" font-family="Helvetica,sans-Serif" font-size="10.00">+</text>
<text text-anchor="start" x="197.5" y="-496.5" font-family="Helvetica,sans-Serif" font-size="10.00">getEntities()</text>
<text text-anchor="start" x="184.5" y="-481.5" font-family="Helvetica,sans-Serif" font-size="10.00">+</text>
<text text-anchor="start" x="197.5" y="-481.5" font-family="Helvetica,sans-Serif" font-size="10.00">update()</text>
<text text-anchor="start" x="184.5" y="-466.5" font-family="Helvetica,sans-Serif" font-size="10.00">+</text>
<text text-anchor="start" x="197.5" y="-466.5" font-family="Helvetica,sans-Serif" font-size="10.00">render()</text>
<text text-anchor="start" x="184.5" y="-451.5" font-family="Helvetica,sans-Serif" font-size="10.00">+</text>
<text text-anchor="start" x="197.5" y="-451.5" font-family="Helvetica,sans-Serif" font-size="10.00">addDelta()</text>
<text text-anchor="start" x="184.5" y="-436.5" font-family="Helvetica,sans-Serif" font-size="10.00">+</text>
<text text-anchor="start" x="197.5" y="-436.5" font-family="Helvetica,sans-Serif" font-size="10.00">getDelta()</text>
<text text-anchor="start" x="184.5" y="-421.5" font-family="Helvetica,sans-Serif" font-size="10.00">+</text>
<text text-anchor="start" x="197.5" y="-421.5" font-family="Helvetica,sans-Serif" font-size="10.00">canExecute()</text>
<text text-anchor="start" x="184.5" y="-406.5" font-family="Helvetica,sans-Serif" font-size="10.00">+</text>
<text text-anchor="start" x="197.5" y="-406.5" font-family="Helvetica,sans-Serif" font-size="10.00">setTPS()</text>
<text text-anchor="start" x="184.5" y="-391.5" font-family="Helvetica,sans-Serif" font-size="10.00">+</text>
<text text-anchor="start" x="197.5" y="-391.5" font-family="Helvetica,sans-Serif" font-size="10.00">getThreshold()</text>
<text text-anchor="start" x="184.5" y="-376.5" font-family="Helvetica,sans-Serif" font-size="10.00">+</text>
<text text-anchor="start" x="197.5" y="-376.5" font-family="Helvetica,sans-Serif" font-size="10.00">executeWhenPossible()</text>
<polygon fill="#666666" stroke="#666666" points="180.5,-551.5 180.5,-551.5 316.5,-551.5 316.5,-551.5 180.5,-551.5"/>
<polygon fill="#666666" stroke="#666666" points="180.5,-506.5 180.5,-506.5 195.5,-506.5 195.5,-506.5 180.5,-506.5"/>
<polygon fill="#666666" stroke="#666666" points="195.5,-506.5 195.5,-506.5 316.5,-506.5 316.5,-506.5 195.5,-506.5"/>
<polygon fill="none" stroke="#666666" points="180.5,-370 180.5,-569 316.5,-569 316.5,-370 180.5,-370"/>
</a>
</g>
</g>
<!-- Node6&#45;&gt;Node5 -->
<g id="edge5_Node000005_Node000006" class="edge">
<title>Node6&#45;&gt;Node5</title>
<g id="a_edge5_Node000005_Node000006"><a xlink:title=" ">
<path fill="none" stroke="#63b8ff" d="M248.5,-369.7C248.5,-357.51 248.5,-345.73 248.5,-335.42"/>
<polygon fill="none" stroke="#63b8ff" points="248.5,-335.21 244.5,-329.21 248.5,-323.21 252.5,-329.21 248.5,-335.21"/>
</a>
</g>
<text text-anchor="middle" x="261" y="-344" font-family="Helvetica,sans-Serif" font-size="10.00" fill="grey"> +ptr</text>
</g>
<!-- Node7 -->
<g id="Node000007" class="node">
<title>Node7</title>
<g id="a_Node000007"><a xlink:title=" ">
<polygon fill="white" stroke="transparent" points="297.5,-665 199.5,-665 199.5,-616 297.5,-616 297.5,-665"/>
<text text-anchor="start" x="204.5" y="-652.5" font-family="Helvetica,sans-Serif" font-size="10.00">std::set&lt; Entity &gt;</text>
<text text-anchor="start" x="217" y="-637.5" font-family="Helvetica,sans-Serif" font-size="10.00">+</text>
<text text-anchor="start" x="243.5" y="-637.5" font-family="Helvetica,sans-Serif" font-size="10.00">keys</text>
<text text-anchor="start" x="246.5" y="-622.5" font-family="Helvetica,sans-Serif" font-size="10.00"> </text>
<polygon fill="#666666" stroke="#666666" points="199.5,-647.5 199.5,-647.5 297.5,-647.5 297.5,-647.5 199.5,-647.5"/>
<polygon fill="#666666" stroke="#666666" points="199.5,-632.5 199.5,-632.5 241.5,-632.5 241.5,-632.5 199.5,-632.5"/>
<polygon fill="#666666" stroke="#666666" points="241.5,-632.5 241.5,-632.5 297.5,-632.5 297.5,-632.5 241.5,-632.5"/>
<polygon fill="none" stroke="#666666" points="199.5,-616 199.5,-665 297.5,-665 297.5,-616 199.5,-616"/>
</a>
</g>
</g>
<!-- Node7&#45;&gt;Node6 -->
<g id="edge6_Node000006_Node000007" class="edge">
<title>Node7&#45;&gt;Node6</title>
<g id="a_edge6_Node000006_Node000007"><a xlink:title=" ">
<path fill="none" stroke="#63b8ff" d="M248.5,-615.64C248.5,-606.06 248.5,-594.28 248.5,-581.6"/>
<polygon fill="none" stroke="#63b8ff" points="248.5,-581.22 244.5,-575.22 248.5,-569.22 252.5,-575.22 248.5,-581.22"/>
</a>
</g>
<text text-anchor="middle" x="273" y="-590" font-family="Helvetica,sans-Serif" font-size="10.00" fill="grey"> +entities</text>
</g>
</g>
</svg>
