<?xml version="1.0" encoding="UTF-8" standalone="no"?>
<!DOCTYPE svg PUBLIC "-//W3C//DTD SVG 1.1//EN"
 "http://www.w3.org/Graphics/SVG/1.1/DTD/svg11.dtd">
<!-- Generated by graphviz version 2.43.0 (0)
 -->
<!-- Title: EntityManager Pages: 1 -->
<svg width="258pt" height="350pt"
 viewBox="0.00 0.00 257.50 350.00" xmlns="http://www.w3.org/2000/svg" xmlns:xlink="http://www.w3.org/1999/xlink">

<svg id="main" version="1.1" xmlns="http://www.w3.org/2000/svg" xmlns:xlink="http://www.w3.org/1999/xlink" xml:space="preserve" onload="init(evt)">
<style type="text/css"><![CDATA[
.node, .edge {opacity: 0.7;}
.node.selected, .edge.selected {opacity: 1;}
.edge:hover path { stroke: red; }
.edge:hover polygon { stroke: red; fill: red; }
]]></style>
<script type="application/ecmascript" xlink:href="svg.min.js"/>
<svg id="graph" class="graph">
<g id="graph0" class="graph" transform="scale(1 1) rotate(0) translate(4 346)">
<title>EntityManager</title>
<!-- Node1 -->
<g id="Node000001" class="node">
<title>Node1</title>
<g id="a_Node000001"><a xlink:title="Manages the creation and destruction of entities.">
<polygon fill="#999999" stroke="transparent" points="165.5,-139 59.5,-139 59.5,0 165.5,0 165.5,-139"/>
<text text-anchor="start" x="76.5" y="-126.5" font-family="Helvetica,sans-Serif" font-size="10.00">EntityManager</text>
<text text-anchor="start" x="66" y="-111.5" font-family="Helvetica,sans-Serif" font-size="10.00">&#45;</text>
<text text-anchor="start" x="76.5" y="-111.5" font-family="Helvetica,sans-Serif" font-size="10.00">livingEntityCount</text>
<text text-anchor="start" x="63.5" y="-96.5" font-family="Helvetica,sans-Serif" font-size="10.00">+</text>
<text text-anchor="start" x="76.5" y="-96.5" font-family="Helvetica,sans-Serif" font-size="10.00">EntityManager()</text>
<text text-anchor="start" x="63.5" y="-81.5" font-family="Helvetica,sans-Serif" font-size="10.00">+</text>
<text text-anchor="start" x="76.5" y="-81.5" font-family="Helvetica,sans-Serif" font-size="10.00">createEntity()</text>
<text text-anchor="start" x="63.5" y="-66.5" font-family="Helvetica,sans-Serif" font-size="10.00">+</text>
<text text-anchor="start" x="76.5" y="-66.5" font-family="Helvetica,sans-Serif" font-size="10.00">destroyEntity()</text>
<text text-anchor="start" x="63.5" y="-51.5" font-family="Helvetica,sans-Serif" font-size="10.00">+</text>
<text text-anchor="start" x="76.5" y="-51.5" font-family="Helvetica,sans-Serif" font-size="10.00">entityExists()</text>
<text text-anchor="start" x="63.5" y="-36.5" font-family="Helvetica,sans-Serif" font-size="10.00">+</text>
<text text-anchor="start" x="76.5" y="-36.5" font-family="Helvetica,sans-Serif" font-size="10.00">getEntities()</text>
<text text-anchor="start" x="63.5" y="-21.5" font-family="Helvetica,sans-Serif" font-size="10.00">+</text>
<text text-anchor="start" x="76.5" y="-21.5" font-family="Helvetica,sans-Serif" font-size="10.00">setSignature()</text>
<text text-anchor="start" x="63.5" y="-6.5" font-family="Helvetica,sans-Serif" font-size="10.00">+</text>
<text text-anchor="start" x="76.5" y="-6.5" font-family="Helvetica,sans-Serif" font-size="10.00">getSignature()</text>
<polygon fill="#666666" stroke="#666666" points="59.5,-121.5 59.5,-121.5 165.5,-121.5 165.5,-121.5 59.5,-121.5"/>
<polygon fill="#666666" stroke="#666666" points="59.5,-106.5 59.5,-106.5 74.5,-106.5 74.5,-106.5 59.5,-106.5"/>
<polygon fill="#666666" stroke="#666666" points="74.5,-106.5 74.5,-106.5 165.5,-106.5 165.5,-106.5 74.5,-106.5"/>
<polygon fill="none" stroke="#666666" points="59.5,0 59.5,-139 165.5,-139 165.5,0 59.5,0"/>
</a>
</g>
</g>
<!-- Node2 -->
<g id="Node000002" class="node">
<title>Node2</title>
<g id="a_Node000002"><a xlink:title=" ">
<polygon fill="white" stroke="transparent" points="113,-240.5 0,-240.5 0,-191.5 113,-191.5 113,-240.5"/>
<text text-anchor="start" x="5.5" y="-228" font-family="Helvetica,sans-Serif" font-size="10.00">std::queue&lt; Entity &gt;</text>
<text text-anchor="start" x="16" y="-213" font-family="Helvetica,sans-Serif" font-size="10.00">+</text>
<text text-anchor="start" x="40.5" y="-213" font-family="Helvetica,sans-Serif" font-size="10.00">elements</text>
<text text-anchor="start" x="55" y="-198" font-family="Helvetica,sans-Serif" font-size="10.00"> </text>
<polygon fill="#666666" stroke="#666666" points="0.5,-223 0.5,-223 113.5,-223 113.5,-223 0.5,-223"/>
<polygon fill="#666666" stroke="#666666" points="0.5,-208 0.5,-208 38.5,-208 38.5,-208 0.5,-208"/>
<polygon fill="#666666" stroke="#666666" points="38.5,-208 38.5,-208 113.5,-208 113.5,-208 38.5,-208"/>
<polygon fill="none" stroke="#666666" points="0,-191.5 0,-240.5 113,-240.5 113,-191.5 0,-191.5"/>
</a>
</g>
</g>
<!-- Node2&#45;&gt;Node1 -->
<g id="edge1_Node000001_Node000002" class="edge">
<title>Node2&#45;&gt;Node1</title>
<g id="a_edge1_Node000001_Node000002"><a xlink:title=" ">
<path fill="none" stroke="#63b8ff" d="M59.9,-191.47C61.82,-180.77 64.62,-168.06 68.5,-157 69.27,-154.79 70.09,-152.57 70.95,-150.35"/>
<polygon fill="none" stroke="#63b8ff" points="70.97,-150.29 69.55,-143.22 75.52,-139.19 76.95,-146.25 70.97,-150.29"/>
</a>
</g>
<text text-anchor="middle" x="113" y="-160" font-family="Helvetica,sans-Serif" font-size="10.00" fill="grey"> &#45;availableEntities</text>
</g>
<!-- Node3 -->
<g id="Node000003" class="node">
<title>Node3</title>
<g id="a_Node000003"><a xlink:title=" ">
<polygon fill="white" stroke="transparent" points="249.5,-246 131.5,-246 131.5,-186 249.5,-186 249.5,-246"/>
<text text-anchor="start" x="136.5" y="-234" font-family="Helvetica,sans-Serif" font-size="10.00">std::array&lt; Signature,</text>
<text text-anchor="start" x="147.5" y="-223" font-family="Helvetica,sans-Serif" font-size="10.00"> MAX_ENTITIES &gt;</text>
<text text-anchor="start" x="188.5" y="-208" font-family="Helvetica,sans-Serif" font-size="10.00"> </text>
<text text-anchor="start" x="188.5" y="-193" font-family="Helvetica,sans-Serif" font-size="10.00"> </text>
<polygon fill="#666666" stroke="#666666" points="131.5,-218 131.5,-218 249.5,-218 249.5,-218 131.5,-218"/>
<polygon fill="#666666" stroke="#666666" points="131.5,-203 131.5,-203 249.5,-203 249.5,-203 131.5,-203"/>
<polygon fill="none" stroke="#666666" points="131.5,-186 131.5,-246 249.5,-246 249.5,-186 131.5,-186"/>
</a>
</g>
</g>
<!-- Node3&#45;&gt;Node1 -->
<g id="edge2_Node000001_Node000003" class="edge">
<title>Node3&#45;&gt;Node1</title>
<g id="a_edge2_Node000001_Node000003"><a xlink:title=" ">
<path fill="none" stroke="#63b8ff" d="M174.72,-185.76C169.01,-175.19 162.27,-162.7 155.36,-149.9"/>
<polygon fill="none" stroke="#63b8ff" points="155.24,-149.67 148.87,-146.29 149.54,-139.11 155.91,-142.49 155.24,-149.67"/>
</a>
</g>
<text text-anchor="middle" x="192.5" y="-160" font-family="Helvetica,sans-Serif" font-size="10.00" fill="grey"> &#45;signatures</text>
</g>
<!-- Node4 -->
<g id="Node000004" class="node">
<title>Node4</title>
<g id="a_Node000004"><a xlink:title=" ">
<polygon fill="white" stroke="transparent" points="241,-342 140,-342 140,-293 241,-293 241,-342"/>
<text text-anchor="start" x="145.5" y="-329.5" font-family="Helvetica,sans-Serif" font-size="10.00">std::bitset&lt; Bits &gt;</text>
<text text-anchor="start" x="189" y="-314.5" font-family="Helvetica,sans-Serif" font-size="10.00"> </text>
<text text-anchor="start" x="189" y="-299.5" font-family="Helvetica,sans-Serif" font-size="10.00"> </text>
<polygon fill="#666666" stroke="#666666" points="140.5,-324.5 140.5,-324.5 241.5,-324.5 241.5,-324.5 140.5,-324.5"/>
<polygon fill="#666666" stroke="#666666" points="140.5,-309.5 140.5,-309.5 241.5,-309.5 241.5,-309.5 140.5,-309.5"/>
<polygon fill="none" stroke="#666666" points="140,-293 140,-342 241,-342 241,-293 140,-293"/>
</a>
</g>
</g>
<!-- Node4&#45;&gt;Node3 -->
<g id="edge3_Node000003_Node000004" class="edge">
<title>Node4&#45;&gt;Node3</title>
<g id="a_edge3_Node000003_Node000004"><a xlink:title=" ">
<path fill="none" stroke="#63b8ff" d="M190.5,-292.92C190.5,-282.51 190.5,-269.97 190.5,-258.1"/>
<polygon fill="none" stroke="#63b8ff" points="190.5,-258.1 186.5,-252.1 190.5,-246.1 194.5,-252.1 190.5,-258.1"/>
</a>
</g>
<text text-anchor="middle" x="219.5" y="-267" font-family="Helvetica,sans-Serif" font-size="10.00" fill="grey"> +elements</text>
</g>
</g>
</svg>
</svg>

<style type='text/css'>
<![CDATA[
[data-mouse-over-selected='false'] { opacity: 0.7; }
[data-mouse-over-selected='true']  { opacity: 1.0; }
]]>
</style>
<script type="application/ecmascript"><![CDATA[
document.addEventListener('DOMContentLoaded', (event) => {
  highlightEdges();
  highlightAdjacentNodes();
});
]]></script>
</svg>
