<?xml version="1.0" encoding="UTF-8" standalone="no"?>
<!DOCTYPE svg PUBLIC "-//W3C//DTD SVG 1.1//EN"
 "http://www.w3.org/Graphics/SVG/1.1/DTD/svg11.dtd">
<!-- Generated by graphviz version 2.43.0 (0)
 -->
<!-- Title: Coordinator Pages: 1 -->
<svg width="994pt" height="1082pt"
 viewBox="0.00 0.00 994.00 1082.00" xmlns="http://www.w3.org/2000/svg" xmlns:xlink="http://www.w3.org/1999/xlink">
<g id="graph0" class="graph" transform="scale(1 1) rotate(0) translate(4 1078)">
<title>Coordinator</title>
<!-- Node1 -->
<g id="Node000001" class="node">
<title>Node1</title>
<g id="a_Node000001"><a xlink:title="Coordinates entities, components, and systems.">
<polygon fill="#999999" stroke="transparent" points="681,-199 558,-199 558,0 681,0 681,-199"/>
<text text-anchor="start" x="591" y="-186.5" font-family="Helvetica,sans-Serif" font-size="10.00">Coordinator</text>
<text text-anchor="start" x="618" y="-171.5" font-family="Helvetica,sans-Serif" font-size="10.00"> </text>
<text text-anchor="start" x="562.5" y="-156.5" font-family="Helvetica,sans-Serif" font-size="10.00">+</text>
<text text-anchor="start" x="575.5" y="-156.5" font-family="Helvetica,sans-Serif" font-size="10.00">init()</text>
<text text-anchor="start" x="562.5" y="-141.5" font-family="Helvetica,sans-Serif" font-size="10.00">+</text>
<text text-anchor="start" x="575.5" y="-141.5" font-family="Helvetica,sans-Serif" font-size="10.00">createEntity()</text>
<text text-anchor="start" x="562.5" y="-126.5" font-family="Helvetica,sans-Serif" font-size="10.00">+</text>
<text text-anchor="start" x="575.5" y="-126.5" font-family="Helvetica,sans-Serif" font-size="10.00">entityExists()</text>
<text text-anchor="start" x="562.5" y="-111.5" font-family="Helvetica,sans-Serif" font-size="10.00">+</text>
<text text-anchor="start" x="575.5" y="-111.5" font-family="Helvetica,sans-Serif" font-size="10.00">destroyEntity()</text>
<text text-anchor="start" x="562.5" y="-96.5" font-family="Helvetica,sans-Serif" font-size="10.00">+</text>
<text text-anchor="start" x="575.5" y="-96.5" font-family="Helvetica,sans-Serif" font-size="10.00">destroyEntitySync()</text>
<text text-anchor="start" x="562.5" y="-81.5" font-family="Helvetica,sans-Serif" font-size="10.00">+</text>
<text text-anchor="start" x="575.5" y="-81.5" font-family="Helvetica,sans-Serif" font-size="10.00">registerComponent()</text>
<text text-anchor="start" x="562.5" y="-66.5" font-family="Helvetica,sans-Serif" font-size="10.00">+</text>
<text text-anchor="start" x="575.5" y="-66.5" font-family="Helvetica,sans-Serif" font-size="10.00">registerSystem()</text>
<text text-anchor="start" x="562.5" y="-51.5" font-family="Helvetica,sans-Serif" font-size="10.00">+</text>
<text text-anchor="start" x="575.5" y="-51.5" font-family="Helvetica,sans-Serif" font-size="10.00">getSystem()</text>
<text text-anchor="start" x="562.5" y="-36.5" font-family="Helvetica,sans-Serif" font-size="10.00">+</text>
<text text-anchor="start" x="575.5" y="-36.5" font-family="Helvetica,sans-Serif" font-size="10.00">addComponent()</text>
<text text-anchor="start" x="562.5" y="-21.5" font-family="Helvetica,sans-Serif" font-size="10.00">+</text>
<text text-anchor="start" x="575.5" y="-21.5" font-family="Helvetica,sans-Serif" font-size="10.00">removeComponent()</text>
<text text-anchor="start" x="575.5" y="-6.5" font-family="Helvetica,sans-Serif" font-size="10.00">and 11 more...</text>
<polygon fill="#666666" stroke="#666666" points="558.5,-181.5 558.5,-181.5 681.5,-181.5 681.5,-181.5 558.5,-181.5"/>
<polygon fill="#666666" stroke="#666666" points="558.5,-166.5 558.5,-166.5 681.5,-166.5 681.5,-166.5 558.5,-166.5"/>
<polygon fill="none" stroke="#666666" points="558,0 558,-199 681,-199 681,0 558,0"/>
</a>
</g>
</g>
<!-- Node2 -->
<g id="Node000002" class="node">
<title>Node2</title>
<g id="a_Node000002"><a xlink:title=" ">
<polygon fill="white" stroke="transparent" points="403,-306 252,-306 252,-246 403,-246 403,-306"/>
<text text-anchor="start" x="257.5" y="-294" font-family="Helvetica,sans-Serif" font-size="10.00">std::unique_ptr&lt; Component</text>
<text text-anchor="start" x="300.5" y="-283" font-family="Helvetica,sans-Serif" font-size="10.00">Manager &gt;</text>
<text text-anchor="start" x="326" y="-268" font-family="Helvetica,sans-Serif" font-size="10.00"> </text>
<text text-anchor="start" x="273.5" y="-253" font-family="Helvetica,sans-Serif" font-size="10.00">+</text>
<text text-anchor="start" x="303.5" y="-253" font-family="Helvetica,sans-Serif" font-size="10.00">operator&#45;&gt;()</text>
<polygon fill="#666666" stroke="#666666" points="252.5,-278 252.5,-278 403.5,-278 403.5,-278 252.5,-278"/>
<polygon fill="#666666" stroke="#666666" points="252.5,-263 252.5,-263 403.5,-263 403.5,-263 252.5,-263"/>
<polygon fill="none" stroke="#666666" points="252,-246 252,-306 403,-306 403,-246 252,-246"/>
</a>
</g>
</g>
<!-- Node2&#45;&gt;Node1 -->
<g id="edge1_Node000001_Node000002" class="edge">
<title>Node2&#45;&gt;Node1</title>
<g id="a_edge1_Node000001_Node000002"><a xlink:title=" ">
<path fill="none" stroke="#63b8ff" d="M376.05,-245.99C422.8,-218.05 494.08,-175.45 547.45,-143.56"/>
<polygon fill="none" stroke="#63b8ff" points="547.57,-143.48 550.67,-136.97 557.88,-137.33 554.78,-143.84 547.57,-143.48"/>
</a>
</g>
<text text-anchor="middle" x="475" y="-220" font-family="Helvetica,sans-Serif" font-size="10.00" fill="grey"> &#45;componentManager</text>
</g>
<!-- Node3 -->
<g id="Node000003" class="node">
<title>Node3</title>
<g id="a_Node000003"><a xlink:href="classComponentManager.html" target="_top" xlink:title="Manages component arrays and types.">
<polygon fill="white" stroke="transparent" points="348.5,-492 208.5,-492 208.5,-353 348.5,-353 348.5,-492"/>
<text text-anchor="start" x="228.5" y="-479.5" font-family="Helvetica,sans-Serif" font-size="10.00">ComponentManager</text>
<text text-anchor="start" x="215" y="-464.5" font-family="Helvetica,sans-Serif" font-size="10.00">&#45;</text>
<text text-anchor="start" x="225.5" y="-464.5" font-family="Helvetica,sans-Serif" font-size="10.00">nextComponentType</text>
<text text-anchor="start" x="212.5" y="-449.5" font-family="Helvetica,sans-Serif" font-size="10.00">+</text>
<text text-anchor="start" x="225.5" y="-449.5" font-family="Helvetica,sans-Serif" font-size="10.00">registerComponent()</text>
<text text-anchor="start" x="212.5" y="-434.5" font-family="Helvetica,sans-Serif" font-size="10.00">+</text>
<text text-anchor="start" x="225.5" y="-434.5" font-family="Helvetica,sans-Serif" font-size="10.00">getComponentTypeID()</text>
<text text-anchor="start" x="212.5" y="-419.5" font-family="Helvetica,sans-Serif" font-size="10.00">+</text>
<text text-anchor="start" x="225.5" y="-419.5" font-family="Helvetica,sans-Serif" font-size="10.00">addComponent()</text>
<text text-anchor="start" x="212.5" y="-404.5" font-family="Helvetica,sans-Serif" font-size="10.00">+</text>
<text text-anchor="start" x="225.5" y="-404.5" font-family="Helvetica,sans-Serif" font-size="10.00">removeComponent()</text>
<text text-anchor="start" x="212.5" y="-389.5" font-family="Helvetica,sans-Serif" font-size="10.00">+</text>
<text text-anchor="start" x="225.5" y="-389.5" font-family="Helvetica,sans-Serif" font-size="10.00">getComponent()</text>
<text text-anchor="start" x="212.5" y="-374.5" font-family="Helvetica,sans-Serif" font-size="10.00">+</text>
<text text-anchor="start" x="225.5" y="-374.5" font-family="Helvetica,sans-Serif" font-size="10.00">entityDestroyed()</text>
<text text-anchor="start" x="215" y="-359.5" font-family="Helvetica,sans-Serif" font-size="10.00">&#45;</text>
<text text-anchor="start" x="225.5" y="-359.5" font-family="Helvetica,sans-Serif" font-size="10.00">GetComponentStorage()</text>
<polygon fill="#666666" stroke="#666666" points="208.5,-474.5 208.5,-474.5 348.5,-474.5 348.5,-474.5 208.5,-474.5"/>
<polygon fill="#666666" stroke="#666666" points="208.5,-459.5 208.5,-459.5 223.5,-459.5 223.5,-459.5 208.5,-459.5"/>
<polygon fill="#666666" stroke="#666666" points="223.5,-459.5 223.5,-459.5 348.5,-459.5 348.5,-459.5 223.5,-459.5"/>
<polygon fill="none" stroke="#666666" points="208.5,-353 208.5,-492 348.5,-492 348.5,-353 208.5,-353"/>
</a>
</g>
</g>
<!-- Node3&#45;&gt;Node2 -->
<g id="edge2_Node000002_Node000003" class="edge">
<title>Node3&#45;&gt;Node2</title>
<g id="a_edge2_Node000002_Node000003"><a xlink:title=" ">
<path fill="none" stroke="#63b8ff" d="M301.85,-352.64C305.9,-340.7 309.99,-328.64 313.68,-317.76"/>
<polygon fill="none" stroke="#63b8ff" points="313.79,-317.42 311.93,-310.45 317.65,-306.06 319.51,-313.02 313.79,-317.42"/>
</a>
</g>
<text text-anchor="middle" x="323" y="-327" font-family="Helvetica,sans-Serif" font-size="10.00" fill="grey"> +ptr</text>
</g>
<!-- Node4 -->
<g id="Node000004" class="node">
<title>Node4</title>
<g id="a_Node000004"><a xlink:title=" ">
<polygon fill="white" stroke="transparent" points="159,-625 0,-625 0,-539 159,-539 159,-625"/>
<text text-anchor="start" x="5.5" y="-613" font-family="Helvetica,sans-Serif" font-size="10.00">std::unordered_map</text>
<text text-anchor="start" x="5.5" y="-602" font-family="Helvetica,sans-Serif" font-size="10.00">&lt; std::type_index, Component</text>
<text text-anchor="start" x="57.5" y="-591" font-family="Helvetica,sans-Serif" font-size="10.00">TypeID &gt;</text>
<text text-anchor="start" x="27.5" y="-576" font-family="Helvetica,sans-Serif" font-size="10.00">+</text>
<text text-anchor="start" x="63.5" y="-576" font-family="Helvetica,sans-Serif" font-size="10.00">keys</text>
<text text-anchor="start" x="27.5" y="-561" font-family="Helvetica,sans-Serif" font-size="10.00">+</text>
<text text-anchor="start" x="63.5" y="-561" font-family="Helvetica,sans-Serif" font-size="10.00">elements</text>
<text text-anchor="start" x="78" y="-546" font-family="Helvetica,sans-Serif" font-size="10.00"> </text>
<polygon fill="#666666" stroke="#666666" points="0.5,-586 0.5,-586 159.5,-586 159.5,-586 0.5,-586"/>
<polygon fill="#666666" stroke="#666666" points="0.5,-556 0.5,-556 61.5,-556 61.5,-556 0.5,-556"/>
<polygon fill="#666666" stroke="#666666" points="61.5,-556 61.5,-556 159.5,-556 159.5,-556 61.5,-556"/>
<polygon fill="none" stroke="#666666" points="0,-539 0,-625 159,-625 159,-539 0,-539"/>
</a>
</g>
</g>
<!-- Node4&#45;&gt;Node3 -->
<g id="edge3_Node000003_Node000004" class="edge">
<title>Node4&#45;&gt;Node3</title>
<g id="a_edge3_Node000003_Node000004"><a xlink:title=" ">
<path fill="none" stroke="#63b8ff" d="M132.57,-539C152.92,-522.89 176.61,-504.14 198.91,-486.49"/>
<polygon fill="none" stroke="#63b8ff" points="198.96,-486.45 201.18,-479.59 208.37,-479.01 206.15,-485.87 198.96,-486.45"/>
</a>
</g>
<text text-anchor="middle" x="212.5" y="-513" font-family="Helvetica,sans-Serif" font-size="10.00" fill="grey"> &#45;componentTypes</text>
</g>
<!-- Node5 -->
<g id="Node000005" class="node">
<title>Node5</title>
<g id="a_Node000005"><a xlink:title=" ">
<polygon fill="white" stroke="transparent" points="380,-617.5 177,-617.5 177,-546.5 380,-546.5 380,-617.5"/>
<text text-anchor="start" x="182.5" y="-605" font-family="Helvetica,sans-Serif" font-size="10.00">std::unordered_map</text>
<text text-anchor="start" x="182.5" y="-594" font-family="Helvetica,sans-Serif" font-size="10.00">&lt; std::type_index, std</text>
<text text-anchor="start" x="182.5" y="-583" font-family="Helvetica,sans-Serif" font-size="10.00">::shared_ptr&lt; AComponentStorage &gt; &gt;</text>
<text text-anchor="start" x="221" y="-568" font-family="Helvetica,sans-Serif" font-size="10.00">+</text>
<text text-anchor="start" x="273.5" y="-568" font-family="Helvetica,sans-Serif" font-size="10.00">keys</text>
<text text-anchor="start" x="277" y="-553" font-family="Helvetica,sans-Serif" font-size="10.00"> </text>
<polygon fill="#666666" stroke="#666666" points="177.5,-578 177.5,-578 380.5,-578 380.5,-578 177.5,-578"/>
<polygon fill="#666666" stroke="#666666" points="177.5,-563 177.5,-563 271.5,-563 271.5,-563 177.5,-563"/>
<polygon fill="#666666" stroke="#666666" points="271.5,-563 271.5,-563 380.5,-563 380.5,-563 271.5,-563"/>
<polygon fill="none" stroke="#666666" points="177,-546.5 177,-617.5 380,-617.5 380,-546.5 177,-546.5"/>
</a>
</g>
</g>
<!-- Node5&#45;&gt;Node3 -->
<g id="edge4_Node000003_Node000005" class="edge">
<title>Node5&#45;&gt;Node3</title>
<g id="a_edge4_Node000003_Node000005"><a xlink:title=" ">
<path fill="none" stroke="#63b8ff" d="M278.5,-546.44C278.5,-533.99 278.5,-519.36 278.5,-504.61"/>
<polygon fill="none" stroke="#63b8ff" points="278.5,-504.25 274.5,-498.25 278.5,-492.25 282.5,-498.25 278.5,-504.25"/>
</a>
</g>
<text text-anchor="middle" x="331.5" y="-513" font-family="Helvetica,sans-Serif" font-size="10.00" fill="grey"> &#45;ComponentStorages</text>
</g>
<!-- Node6 -->
<g id="Node000006" class="node">
<title>Node6</title>
<g id="a_Node000006"><a xlink:title=" ">
<polygon fill="white" stroke="transparent" points="357.5,-732 199.5,-732 199.5,-672 357.5,-672 357.5,-732"/>
<text text-anchor="start" x="204.5" y="-720" font-family="Helvetica,sans-Serif" font-size="10.00">std::shared_ptr&lt; AComponent</text>
<text text-anchor="start" x="254" y="-709" font-family="Helvetica,sans-Serif" font-size="10.00">Storage &gt;</text>
<text text-anchor="start" x="276.5" y="-694" font-family="Helvetica,sans-Serif" font-size="10.00"> </text>
<text text-anchor="start" x="222.5" y="-679" font-family="Helvetica,sans-Serif" font-size="10.00">+</text>
<text text-anchor="start" x="254.5" y="-679" font-family="Helvetica,sans-Serif" font-size="10.00">operator&#45;&gt;()</text>
<polygon fill="#666666" stroke="#666666" points="199.5,-704 199.5,-704 357.5,-704 357.5,-704 199.5,-704"/>
<polygon fill="#666666" stroke="#666666" points="199.5,-689 199.5,-689 357.5,-689 357.5,-689 199.5,-689"/>
<polygon fill="none" stroke="#666666" points="199.5,-672 199.5,-732 357.5,-732 357.5,-672 199.5,-672"/>
</a>
</g>
</g>
<!-- Node6&#45;&gt;Node5 -->
<g id="edge5_Node000005_Node000006" class="edge">
<title>Node6&#45;&gt;Node5</title>
<g id="a_edge5_Node000005_Node000006"><a xlink:title=" ">
<path fill="none" stroke="#63b8ff" d="M278.5,-671.83C278.5,-659.16 278.5,-644 278.5,-629.83"/>
<polygon fill="none" stroke="#63b8ff" points="278.5,-629.71 274.5,-623.71 278.5,-617.71 282.5,-623.71 278.5,-629.71"/>
</a>
</g>
<text text-anchor="middle" x="307.5" y="-646" font-family="Helvetica,sans-Serif" font-size="10.00" fill="grey"> +elements</text>
</g>
<!-- Node7 -->
<g id="Node000007" class="node">
<title>Node7</title>
<g id="a_Node000007"><a xlink:href="classAComponentStorage.html" target="_top" xlink:title="Abstract base class for component arrays.">
<polygon fill="white" stroke="transparent" points="347.5,-910.5 209.5,-910.5 209.5,-846.5 347.5,-846.5 347.5,-910.5"/>
<text text-anchor="start" x="228" y="-898.5" font-family="Helvetica,sans-Serif" font-size="10.00">AComponentStorage</text>
<text text-anchor="start" x="276.5" y="-883.5" font-family="Helvetica,sans-Serif" font-size="10.00"> </text>
<text text-anchor="start" x="213.5" y="-868.5" font-family="Helvetica,sans-Serif" font-size="10.00">+</text>
<text text-anchor="start" x="226.5" y="-868.5" font-family="Helvetica,sans-Serif" font-size="10.00">~AComponentStorage()</text>
<text text-anchor="start" x="213.5" y="-853.5" font-family="Helvetica,sans-Serif" font-size="10.00">+</text>
<text text-anchor="start" x="226.5" y="-853.5" font-family="Helvetica,sans-Serif" font-size="10.00">entityDestroyed()</text>
<polygon fill="#666666" stroke="#666666" points="209.5,-893.5 209.5,-893.5 347.5,-893.5 347.5,-893.5 209.5,-893.5"/>
<polygon fill="#666666" stroke="#666666" points="209.5,-878.5 209.5,-878.5 347.5,-878.5 347.5,-878.5 209.5,-878.5"/>
<polygon fill="none" stroke="#666666" points="209.5,-846.5 209.5,-910.5 347.5,-910.5 347.5,-846.5 209.5,-846.5"/>
</a>
</g>
</g>
<!-- Node7&#45;&gt;Node6 -->
<g id="edge6_Node000006_Node000007" class="edge">
<title>Node7&#45;&gt;Node6</title>
<g id="a_edge6_Node000006_Node000007"><a xlink:title=" ">
<path fill="none" stroke="#63b8ff" d="M278.5,-846.3C278.5,-817.87 278.5,-775.66 278.5,-744.41"/>
<polygon fill="none" stroke="#63b8ff" points="278.5,-744.19 274.5,-738.19 278.5,-732.19 282.5,-738.19 278.5,-744.19"/>
</a>
</g>
<text text-anchor="middle" x="291" y="-753" font-family="Helvetica,sans-Serif" font-size="10.00" fill="grey"> +ptr</text>
</g>
<!-- Node8 -->
<g id="Node000008" class="node">
<title>Node8</title>
<g id="a_Node000008"><a xlink:title=" ">
<polygon fill="white" stroke="transparent" points="609,-300.5 432,-300.5 432,-251.5 609,-251.5 609,-300.5"/>
<text text-anchor="start" x="437.5" y="-288" font-family="Helvetica,sans-Serif" font-size="10.00">std::unique_ptr&lt; EntityManager &gt;</text>
<text text-anchor="start" x="519" y="-273" font-family="Helvetica,sans-Serif" font-size="10.00"> </text>
<text text-anchor="start" x="460" y="-258" font-family="Helvetica,sans-Serif" font-size="10.00">+</text>
<text text-anchor="start" x="496.5" y="-258" font-family="Helvetica,sans-Serif" font-size="10.00">operator&#45;&gt;()</text>
<polygon fill="#666666" stroke="#666666" points="432.5,-283 432.5,-283 609.5,-283 609.5,-283 432.5,-283"/>
<polygon fill="#666666" stroke="#666666" points="432.5,-268 432.5,-268 609.5,-268 609.5,-268 432.5,-268"/>
<polygon fill="none" stroke="#666666" points="432,-251.5 432,-300.5 609,-300.5 609,-251.5 432,-251.5"/>
</a>
</g>
</g>
<!-- Node8&#45;&gt;Node1 -->
<g id="edge7_Node000001_Node000008" class="edge">
<title>Node8&#45;&gt;Node1</title>
<g id="a_edge7_Node000001_Node000008"><a xlink:title=" ">
<path fill="none" stroke="#63b8ff" d="M533.85,-251.47C540.28,-240.13 548.51,-225.63 557.3,-210.13"/>
<polygon fill="none" stroke="#63b8ff" points="557.55,-209.7 557.03,-202.5 563.47,-199.26 563.99,-206.45 557.55,-209.7"/>
</a>
</g>
<text text-anchor="middle" x="592" y="-220" font-family="Helvetica,sans-Serif" font-size="10.00" fill="grey"> &#45;entityManager</text>
</g>
<!-- Node9 -->
<g id="Node000009" class="node">
<title>Node9</title>
<g id="a_Node000009"><a xlink:href="classEntityManager.html" target="_top" xlink:title="Manages the creation and destruction of entities.">
<polygon fill="white" stroke="transparent" points="573.5,-492 467.5,-492 467.5,-353 573.5,-353 573.5,-492"/>
<text text-anchor="start" x="484.5" y="-479.5" font-family="Helvetica,sans-Serif" font-size="10.00">EntityManager</text>
<text text-anchor="start" x="474" y="-464.5" font-family="Helvetica,sans-Serif" font-size="10.00">&#45;</text>
<text text-anchor="start" x="484.5" y="-464.5" font-family="Helvetica,sans-Serif" font-size="10.00">livingEntityCount</text>
<text text-anchor="start" x="471.5" y="-449.5" font-family="Helvetica,sans-Serif" font-size="10.00">+</text>
<text text-anchor="start" x="484.5" y="-449.5" font-family="Helvetica,sans-Serif" font-size="10.00">EntityManager()</text>
<text text-anchor="start" x="471.5" y="-434.5" font-family="Helvetica,sans-Serif" font-size="10.00">+</text>
<text text-anchor="start" x="484.5" y="-434.5" font-family="Helvetica,sans-Serif" font-size="10.00">createEntity()</text>
<text text-anchor="start" x="471.5" y="-419.5" font-family="Helvetica,sans-Serif" font-size="10.00">+</text>
<text text-anchor="start" x="484.5" y="-419.5" font-family="Helvetica,sans-Serif" font-size="10.00">destroyEntity()</text>
<text text-anchor="start" x="471.5" y="-404.5" font-family="Helvetica,sans-Serif" font-size="10.00">+</text>
<text text-anchor="start" x="484.5" y="-404.5" font-family="Helvetica,sans-Serif" font-size="10.00">entityExists()</text>
<text text-anchor="start" x="471.5" y="-389.5" font-family="Helvetica,sans-Serif" font-size="10.00">+</text>
<text text-anchor="start" x="484.5" y="-389.5" font-family="Helvetica,sans-Serif" font-size="10.00">getEntities()</text>
<text text-anchor="start" x="471.5" y="-374.5" font-family="Helvetica,sans-Serif" font-size="10.00">+</text>
<text text-anchor="start" x="484.5" y="-374.5" font-family="Helvetica,sans-Serif" font-size="10.00">setSignature()</text>
<text text-anchor="start" x="471.5" y="-359.5" font-family="Helvetica,sans-Serif" font-size="10.00">+</text>
<text text-anchor="start" x="484.5" y="-359.5" font-family="Helvetica,sans-Serif" font-size="10.00">getSignature()</text>
<polygon fill="#666666" stroke="#666666" points="467.5,-474.5 467.5,-474.5 573.5,-474.5 573.5,-474.5 467.5,-474.5"/>
<polygon fill="#666666" stroke="#666666" points="467.5,-459.5 467.5,-459.5 482.5,-459.5 482.5,-459.5 467.5,-459.5"/>
<polygon fill="#666666" stroke="#666666" points="482.5,-459.5 482.5,-459.5 573.5,-459.5 573.5,-459.5 482.5,-459.5"/>
<polygon fill="none" stroke="#666666" points="467.5,-353 467.5,-492 573.5,-492 573.5,-353 467.5,-353"/>
</a>
</g>
</g>
<!-- Node9&#45;&gt;Node8 -->
<g id="edge8_Node000008_Node000009" class="edge">
<title>Node9&#45;&gt;Node8</title>
<g id="a_edge8_Node000008_Node000009"><a xlink:title=" ">
<path fill="none" stroke="#63b8ff" d="M520.5,-352.64C520.5,-338.86 520.5,-324.93 520.5,-312.83"/>
<polygon fill="none" stroke="#63b8ff" points="520.5,-312.53 516.5,-306.53 520.5,-300.53 524.5,-306.53 520.5,-312.53"/>
</a>
</g>
<text text-anchor="middle" x="533" y="-327" font-family="Helvetica,sans-Serif" font-size="10.00" fill="grey"> +ptr</text>
</g>
<!-- Node10 -->
<g id="Node000010" class="node">
<title>Node10</title>
<g id="a_Node000010"><a xlink:title=" ">
<polygon fill="white" stroke="transparent" points="511,-606.5 398,-606.5 398,-557.5 511,-557.5 511,-606.5"/>
<text text-anchor="start" x="403.5" y="-594" font-family="Helvetica,sans-Serif" font-size="10.00">std::queue&lt; Entity &gt;</text>
<text text-anchor="start" x="414" y="-579" font-family="Helvetica,sans-Serif" font-size="10.00">+</text>
<text text-anchor="start" x="438.5" y="-579" font-family="Helvetica,sans-Serif" font-size="10.00">elements</text>
<text text-anchor="start" x="453" y="-564" font-family="Helvetica,sans-Serif" font-size="10.00"> </text>
<polygon fill="#666666" stroke="#666666" points="398.5,-589 398.5,-589 511.5,-589 511.5,-589 398.5,-589"/>
<polygon fill="#666666" stroke="#666666" points="398.5,-574 398.5,-574 436.5,-574 436.5,-574 398.5,-574"/>
<polygon fill="#666666" stroke="#666666" points="436.5,-574 436.5,-574 511.5,-574 511.5,-574 436.5,-574"/>
<polygon fill="none" stroke="#666666" points="398,-557.5 398,-606.5 511,-606.5 511,-557.5 398,-557.5"/>
</a>
</g>
</g>
<!-- Node10&#45;&gt;Node9 -->
<g id="edge9_Node000009_Node000010" class="edge">
<title>Node10&#45;&gt;Node9</title>
<g id="a_edge9_Node000009_Node000010"><a xlink:title=" ">
<path fill="none" stroke="#63b8ff" d="M456.17,-557.37C457.73,-543.27 460.73,-525.19 466.5,-510 467.35,-507.77 468.26,-505.53 469.22,-503.29"/>
<polygon fill="none" stroke="#63b8ff" points="469.34,-503.02 468.25,-495.89 474.41,-492.15 475.5,-499.28 469.34,-503.02"/>
</a>
</g>
<text text-anchor="middle" x="511" y="-513" font-family="Helvetica,sans-Serif" font-size="10.00" fill="grey"> &#45;availableEntities</text>
</g>
<!-- Node11 -->
<g id="Node000011" class="node">
<title>Node11</title>
<g id="a_Node000011"><a xlink:title=" ">
<polygon fill="white" stroke="transparent" points="647.5,-612 529.5,-612 529.5,-552 647.5,-552 647.5,-612"/>
<text text-anchor="start" x="534.5" y="-600" font-family="Helvetica,sans-Serif" font-size="10.00">std::array&lt; Signature,</text>
<text text-anchor="start" x="545.5" y="-589" font-family="Helvetica,sans-Serif" font-size="10.00"> MAX_ENTITIES &gt;</text>
<text text-anchor="start" x="586.5" y="-574" font-family="Helvetica,sans-Serif" font-size="10.00"> </text>
<text text-anchor="start" x="586.5" y="-559" font-family="Helvetica,sans-Serif" font-size="10.00"> </text>
<polygon fill="#666666" stroke="#666666" points="529.5,-584 529.5,-584 647.5,-584 647.5,-584 529.5,-584"/>
<polygon fill="#666666" stroke="#666666" points="529.5,-569 529.5,-569 647.5,-569 647.5,-569 529.5,-569"/>
<polygon fill="none" stroke="#666666" points="529.5,-552 529.5,-612 647.5,-612 647.5,-552 529.5,-552"/>
</a>
</g>
</g>
<!-- Node11&#45;&gt;Node9 -->
<g id="edge10_Node000009_Node000011" class="edge">
<title>Node11&#45;&gt;Node9</title>
<g id="a_edge10_Node000009_Node000011"><a xlink:title=" ">
<path fill="none" stroke="#63b8ff" d="M575.87,-551.74C569.91,-537.95 562.49,-520.75 555.03,-503.48"/>
<polygon fill="none" stroke="#63b8ff" points="554.89,-503.16 548.84,-499.24 550.14,-492.15 556.19,-496.07 554.89,-503.16"/>
</a>
</g>
<text text-anchor="middle" x="591.5" y="-513" font-family="Helvetica,sans-Serif" font-size="10.00" fill="grey"> &#45;signatures</text>
</g>
<!-- Node12 -->
<g id="Node000012" class="node">
<title>Node12</title>
<g id="a_Node000012"><a xlink:title=" ">
<polygon fill="white" stroke="transparent" points="699,-726.5 598,-726.5 598,-677.5 699,-677.5 699,-726.5"/>
<text text-anchor="start" x="603.5" y="-714" font-family="Helvetica,sans-Serif" font-size="10.00">std::bitset&lt; Bits &gt;</text>
<text text-anchor="start" x="647" y="-699" font-family="Helvetica,sans-Serif" font-size="10.00"> </text>
<text text-anchor="start" x="647" y="-684" font-family="Helvetica,sans-Serif" font-size="10.00"> </text>
<polygon fill="#666666" stroke="#666666" points="598.5,-709 598.5,-709 699.5,-709 699.5,-709 598.5,-709"/>
<polygon fill="#666666" stroke="#666666" points="598.5,-694 598.5,-694 699.5,-694 699.5,-694 598.5,-694"/>
<polygon fill="none" stroke="#666666" points="598,-677.5 598,-726.5 699,-726.5 699,-677.5 598,-677.5"/>
</a>
</g>
</g>
<!-- Node12&#45;&gt;Node11 -->
<g id="edge11_Node000011_Node000012" class="edge">
<title>Node12&#45;&gt;Node11</title>
<g id="a_edge11_Node000011_Node000012"><a xlink:title=" ">
<path fill="none" stroke="#63b8ff" d="M636.5,-677.4C628.63,-661.92 618.13,-641.27 608.96,-623.24"/>
<polygon fill="none" stroke="#63b8ff" points="608.9,-623.11 602.61,-619.58 603.46,-612.42 609.74,-615.95 608.9,-623.11"/>
</a>
</g>
<text text-anchor="middle" x="652.5" y="-646" font-family="Helvetica,sans-Serif" font-size="10.00" fill="grey"> +elements</text>
</g>
<!-- Node15 -->
<g id="Node000015" class="node">
<title>Node15</title>
<g id="a_Node000015"><a xlink:title=" ">
<polygon fill="white" stroke="transparent" points="827,-612 666,-612 666,-552 827,-552 827,-612"/>
<text text-anchor="start" x="671.5" y="-600" font-family="Helvetica,sans-Serif" font-size="10.00">std::unordered_map</text>
<text text-anchor="start" x="671.5" y="-589" font-family="Helvetica,sans-Serif" font-size="10.00">&lt; std::type_index, Signature &gt;</text>
<text text-anchor="start" x="699.5" y="-574" font-family="Helvetica,sans-Serif" font-size="10.00">+</text>
<text text-anchor="start" x="741.5" y="-574" font-family="Helvetica,sans-Serif" font-size="10.00">keys</text>
<text text-anchor="start" x="745" y="-559" font-family="Helvetica,sans-Serif" font-size="10.00"> </text>
<polygon fill="#666666" stroke="#666666" points="666.5,-584 666.5,-584 827.5,-584 827.5,-584 666.5,-584"/>
<polygon fill="#666666" stroke="#666666" points="666.5,-569 666.5,-569 739.5,-569 739.5,-569 666.5,-569"/>
<polygon fill="#666666" stroke="#666666" points="739.5,-569 739.5,-569 827.5,-569 827.5,-569 739.5,-569"/>
<polygon fill="none" stroke="#666666" points="666,-552 666,-612 827,-612 827,-552 666,-552"/>
</a>
</g>
</g>
<!-- Node12&#45;&gt;Node15 -->
<g id="edge15_Node000015_Node000012" class="edge">
<title>Node12&#45;&gt;Node15</title>
<g id="a_edge15_Node000015_Node000012"><a xlink:title=" ">
<path fill="none" stroke="#63b8ff" d="M668.1,-677.4C681.32,-661.48 699.08,-640.1 714.35,-621.71"/>
<polygon fill="none" stroke="#63b8ff" points="714.4,-621.65 715.16,-614.48 722.07,-612.42 721.31,-619.59 714.4,-621.65"/>
</a>
</g>
<text text-anchor="middle" x="723.5" y="-646" font-family="Helvetica,sans-Serif" font-size="10.00" fill="grey"> +elements</text>
</g>
<!-- Node13 -->
<g id="Node000013" class="node">
<title>Node13</title>
<g id="a_Node000013"><a xlink:title=" ">
<polygon fill="white" stroke="transparent" points="812,-300.5 627,-300.5 627,-251.5 812,-251.5 812,-300.5"/>
<text text-anchor="start" x="632.5" y="-288" font-family="Helvetica,sans-Serif" font-size="10.00">std::unique_ptr&lt; SystemManager &gt;</text>
<text text-anchor="start" x="718" y="-273" font-family="Helvetica,sans-Serif" font-size="10.00"> </text>
<text text-anchor="start" x="657" y="-258" font-family="Helvetica,sans-Serif" font-size="10.00">+</text>
<text text-anchor="start" x="695.5" y="-258" font-family="Helvetica,sans-Serif" font-size="10.00">operator&#45;&gt;()</text>
<polygon fill="#666666" stroke="#666666" points="627.5,-283 627.5,-283 812.5,-283 812.5,-283 627.5,-283"/>
<polygon fill="#666666" stroke="#666666" points="627.5,-268 627.5,-268 812.5,-268 812.5,-268 627.5,-268"/>
<polygon fill="none" stroke="#666666" points="627,-251.5 627,-300.5 812,-300.5 812,-251.5 627,-251.5"/>
</a>
</g>
</g>
<!-- Node13&#45;&gt;Node1 -->
<g id="edge12_Node000001_Node000013" class="edge">
<title>Node13&#45;&gt;Node1</title>
<g id="a_edge12_Node000001_Node000013"><a xlink:title=" ">
<path fill="none" stroke="#63b8ff" d="M706.01,-251.47C699.45,-240.02 691.05,-225.35 682.07,-209.68"/>
<polygon fill="none" stroke="#63b8ff" points="682.06,-209.67 675.61,-206.45 676.1,-199.26 682.55,-202.48 682.06,-209.67"/>
</a>
</g>
<text text-anchor="middle" x="732.5" y="-220" font-family="Helvetica,sans-Serif" font-size="10.00" fill="grey"> &#45;systemManager</text>
</g>
<!-- Node14 -->
<g id="Node000014" class="node">
<title>Node14</title>
<g id="a_Node000014"><a xlink:href="classSystemManager.html" target="_top" xlink:title="Manages systems and their component signatures.">
<polygon fill="white" stroke="transparent" points="820,-477 673,-477 673,-368 820,-368 820,-477"/>
<text text-anchor="start" x="707" y="-464.5" font-family="Helvetica,sans-Serif" font-size="10.00">SystemManager</text>
<text text-anchor="start" x="745" y="-449.5" font-family="Helvetica,sans-Serif" font-size="10.00"> </text>
<text text-anchor="start" x="677.5" y="-434.5" font-family="Helvetica,sans-Serif" font-size="10.00">+</text>
<text text-anchor="start" x="690.5" y="-434.5" font-family="Helvetica,sans-Serif" font-size="10.00">registerSystem()</text>
<text text-anchor="start" x="677.5" y="-419.5" font-family="Helvetica,sans-Serif" font-size="10.00">+</text>
<text text-anchor="start" x="690.5" y="-419.5" font-family="Helvetica,sans-Serif" font-size="10.00">getSystem()</text>
<text text-anchor="start" x="677.5" y="-404.5" font-family="Helvetica,sans-Serif" font-size="10.00">+</text>
<text text-anchor="start" x="690.5" y="-404.5" font-family="Helvetica,sans-Serif" font-size="10.00">setSignature()</text>
<text text-anchor="start" x="677.5" y="-389.5" font-family="Helvetica,sans-Serif" font-size="10.00">+</text>
<text text-anchor="start" x="690.5" y="-389.5" font-family="Helvetica,sans-Serif" font-size="10.00">entityDestroyed()</text>
<text text-anchor="start" x="677.5" y="-374.5" font-family="Helvetica,sans-Serif" font-size="10.00">+</text>
<text text-anchor="start" x="690.5" y="-374.5" font-family="Helvetica,sans-Serif" font-size="10.00">entitySignatureChanged()</text>
<polygon fill="#666666" stroke="#666666" points="673.5,-459.5 673.5,-459.5 820.5,-459.5 820.5,-459.5 673.5,-459.5"/>
<polygon fill="#666666" stroke="#666666" points="673.5,-444.5 673.5,-444.5 820.5,-444.5 820.5,-444.5 673.5,-444.5"/>
<polygon fill="none" stroke="#666666" points="673,-368 673,-477 820,-477 820,-368 673,-368"/>
</a>
</g>
</g>
<!-- Node14&#45;&gt;Node13 -->
<g id="edge13_Node000013_Node000014" class="edge">
<title>Node14&#45;&gt;Node13</title>
<g id="a_edge13_Node000013_Node000014"><a xlink:title=" ">
<path fill="none" stroke="#63b8ff" d="M736.45,-367.69C733.01,-349.28 729.24,-329.15 726.14,-312.54"/>
<polygon fill="none" stroke="#63b8ff" points="726.12,-312.41 721.08,-307.25 723.91,-300.62 728.95,-305.78 726.12,-312.41"/>
</a>
</g>
<text text-anchor="middle" x="742" y="-327" font-family="Helvetica,sans-Serif" font-size="10.00" fill="grey"> +ptr</text>
</g>
<!-- Node15&#45;&gt;Node14 -->
<g id="edge14_Node000014_Node000015" class="edge">
<title>Node15&#45;&gt;Node14</title>
<g id="a_edge14_Node000014_Node000015"><a xlink:title=" ">
<path fill="none" stroke="#63b8ff" d="M746.5,-551.74C746.5,-534.19 746.5,-511.11 746.5,-489.38"/>
<polygon fill="none" stroke="#63b8ff" points="746.5,-489.14 742.5,-483.14 746.5,-477.14 750.5,-483.14 746.5,-489.14"/>
</a>
</g>
<text text-anchor="middle" x="775.5" y="-513" font-family="Helvetica,sans-Serif" font-size="10.00" fill="grey"> &#45;signatures</text>
</g>
<!-- Node16 -->
<g id="Node000016" class="node">
<title>Node16</title>
<g id="a_Node000016"><a xlink:title=" ">
<polygon fill="white" stroke="transparent" points="984,-617.5 845,-617.5 845,-546.5 984,-546.5 984,-617.5"/>
<text text-anchor="start" x="850.5" y="-605" font-family="Helvetica,sans-Serif" font-size="10.00">std::unordered_map</text>
<text text-anchor="start" x="850.5" y="-594" font-family="Helvetica,sans-Serif" font-size="10.00">&lt; std::type_index, std</text>
<text text-anchor="start" x="850.5" y="-583" font-family="Helvetica,sans-Serif" font-size="10.00">::shared_ptr&lt; System &gt; &gt;</text>
<text text-anchor="start" x="873" y="-568" font-family="Helvetica,sans-Serif" font-size="10.00">+</text>
<text text-anchor="start" x="909.5" y="-568" font-family="Helvetica,sans-Serif" font-size="10.00">keys</text>
<text text-anchor="start" x="913" y="-553" font-family="Helvetica,sans-Serif" font-size="10.00"> </text>
<polygon fill="#666666" stroke="#666666" points="845.5,-578 845.5,-578 984.5,-578 984.5,-578 845.5,-578"/>
<polygon fill="#666666" stroke="#666666" points="845.5,-563 845.5,-563 907.5,-563 907.5,-563 845.5,-563"/>
<polygon fill="#666666" stroke="#666666" points="907.5,-563 907.5,-563 984.5,-563 984.5,-563 907.5,-563"/>
<polygon fill="none" stroke="#666666" points="845,-546.5 845,-617.5 984,-617.5 984,-546.5 845,-546.5"/>
</a>
</g>
</g>
<!-- Node16&#45;&gt;Node14 -->
<g id="edge16_Node000014_Node000016" class="edge">
<title>Node16&#45;&gt;Node14</title>
<g id="a_edge16_Node000014_Node000016"><a xlink:title=" ">
<path fill="none" stroke="#63b8ff" d="M877.63,-546.44C858.62,-528.61 834.84,-506.31 812.77,-485.62"/>
<polygon fill="none" stroke="#63b8ff" points="812.51,-485.39 805.4,-484.2 803.76,-477.18 810.87,-478.37 812.51,-485.39"/>
</a>
</g>
<text text-anchor="middle" x="874" y="-513" font-family="Helvetica,sans-Serif" font-size="10.00" fill="grey"> &#45;systems</text>
</g>
<!-- Node17 -->
<g id="Node000017" class="node">
<title>Node17</title>
<g id="a_Node000017"><a xlink:title=" ">
<polygon fill="white" stroke="transparent" points="986,-726.5 843,-726.5 843,-677.5 986,-677.5 986,-726.5"/>
<text text-anchor="start" x="848.5" y="-714" font-family="Helvetica,sans-Serif" font-size="10.00">std::shared_ptr&lt; System &gt;</text>
<text text-anchor="start" x="913" y="-699" font-family="Helvetica,sans-Serif" font-size="10.00"> </text>
<text text-anchor="start" x="862.5" y="-684" font-family="Helvetica,sans-Serif" font-size="10.00">+</text>
<text text-anchor="start" x="890.5" y="-684" font-family="Helvetica,sans-Serif" font-size="10.00">operator&#45;&gt;()</text>
<polygon fill="#666666" stroke="#666666" points="843.5,-709 843.5,-709 986.5,-709 986.5,-709 843.5,-709"/>
<polygon fill="#666666" stroke="#666666" points="843.5,-694 843.5,-694 986.5,-694 986.5,-694 843.5,-694"/>
<polygon fill="none" stroke="#666666" points="843,-677.5 843,-726.5 986,-726.5 986,-677.5 843,-677.5"/>
</a>
</g>
</g>
<!-- Node17&#45;&gt;Node16 -->
<g id="edge17_Node000016_Node000017" class="edge">
<title>Node17&#45;&gt;Node16</title>
<g id="a_edge17_Node000016_Node000017"><a xlink:title=" ">
<path fill="none" stroke="#63b8ff" d="M914.5,-677.4C914.5,-663.79 914.5,-646.19 914.5,-629.88"/>
<polygon fill="none" stroke="#63b8ff" points="914.5,-629.74 910.5,-623.74 914.5,-617.74 918.5,-623.74 914.5,-629.74"/>
</a>
</g>
<text text-anchor="middle" x="943.5" y="-646" font-family="Helvetica,sans-Serif" font-size="10.00" fill="grey"> +elements</text>
</g>
<!-- Node18 -->
<g id="Node000018" class="node">
<title>Node18</title>
<g id="a_Node000018"><a xlink:href="classSystem.html" target="_top" xlink:title="Base class for all systems in the ECS architecture.">
<polygon fill="white" stroke="transparent" points="982.5,-978 846.5,-978 846.5,-779 982.5,-779 982.5,-978"/>
<text text-anchor="start" x="896" y="-965.5" font-family="Helvetica,sans-Serif" font-size="10.00">System</text>
<text text-anchor="start" x="853" y="-950.5" font-family="Helvetica,sans-Serif" font-size="10.00">&#45;</text>
<text text-anchor="start" x="863.5" y="-950.5" font-family="Helvetica,sans-Serif" font-size="10.00">_delta</text>
<text text-anchor="start" x="853" y="-935.5" font-family="Helvetica,sans-Serif" font-size="10.00">&#45;</text>
<text text-anchor="start" x="863.5" y="-935.5" font-family="Helvetica,sans-Serif" font-size="10.00">_threshold</text>
<text text-anchor="start" x="853" y="-920.5" font-family="Helvetica,sans-Serif" font-size="10.00">&#45;</text>
<text text-anchor="start" x="863.5" y="-920.5" font-family="Helvetica,sans-Serif" font-size="10.00">_isTaskRunning</text>
<text text-anchor="start" x="850.5" y="-905.5" font-family="Helvetica,sans-Serif" font-size="10.00">+</text>
<text text-anchor="start" x="863.5" y="-905.5" font-family="Helvetica,sans-Serif" font-size="10.00">getEntities()</text>
<text text-anchor="start" x="850.5" y="-890.5" font-family="Helvetica,sans-Serif" font-size="10.00">+</text>
<text text-anchor="start" x="863.5" y="-890.5" font-family="Helvetica,sans-Serif" font-size="10.00">update()</text>
<text text-anchor="start" x="850.5" y="-875.5" font-family="Helvetica,sans-Serif" font-size="10.00">+</text>
<text text-anchor="start" x="863.5" y="-875.5" font-family="Helvetica,sans-Serif" font-size="10.00">render()</text>
<text text-anchor="start" x="850.5" y="-860.5" font-family="Helvetica,sans-Serif" font-size="10.00">+</text>
<text text-anchor="start" x="863.5" y="-860.5" font-family="Helvetica,sans-Serif" font-size="10.00">addDelta()</text>
<text text-anchor="start" x="850.5" y="-845.5" font-family="Helvetica,sans-Serif" font-size="10.00">+</text>
<text text-anchor="start" x="863.5" y="-845.5" font-family="Helvetica,sans-Serif" font-size="10.00">getDelta()</text>
<text text-anchor="start" x="850.5" y="-830.5" font-family="Helvetica,sans-Serif" font-size="10.00">+</text>
<text text-anchor="start" x="863.5" y="-830.5" font-family="Helvetica,sans-Serif" font-size="10.00">canExecute()</text>
<text text-anchor="start" x="850.5" y="-815.5" font-family="Helvetica,sans-Serif" font-size="10.00">+</text>
<text text-anchor="start" x="863.5" y="-815.5" font-family="Helvetica,sans-Serif" font-size="10.00">setTPS()</text>
<text text-anchor="start" x="850.5" y="-800.5" font-family="Helvetica,sans-Serif" font-size="10.00">+</text>
<text text-anchor="start" x="863.5" y="-800.5" font-family="Helvetica,sans-Serif" font-size="10.00">getThreshold()</text>
<text text-anchor="start" x="850.5" y="-785.5" font-family="Helvetica,sans-Serif" font-size="10.00">+</text>
<text text-anchor="start" x="863.5" y="-785.5" font-family="Helvetica,sans-Serif" font-size="10.00">executeWhenPossible()</text>
<polygon fill="#666666" stroke="#666666" points="846.5,-960.5 846.5,-960.5 982.5,-960.5 982.5,-960.5 846.5,-960.5"/>
<polygon fill="#666666" stroke="#666666" points="846.5,-915.5 846.5,-915.5 861.5,-915.5 861.5,-915.5 846.5,-915.5"/>
<polygon fill="#666666" stroke="#666666" points="861.5,-915.5 861.5,-915.5 982.5,-915.5 982.5,-915.5 861.5,-915.5"/>
<polygon fill="none" stroke="#666666" points="846.5,-779 846.5,-978 982.5,-978 982.5,-779 846.5,-779"/>
</a>
</g>
</g>
<!-- Node18&#45;&gt;Node17 -->
<g id="edge18_Node000017_Node000018" class="edge">
<title>Node18&#45;&gt;Node17</title>
<g id="a_edge18_Node000017_Node000018"><a xlink:title=" ">
<path fill="none" stroke="#63b8ff" d="M914.5,-778.78C914.5,-764.51 914.5,-750.65 914.5,-738.78"/>
<polygon fill="none" stroke="#63b8ff" points="914.5,-738.74 910.5,-732.74 914.5,-726.74 918.5,-732.74 914.5,-738.74"/>
</a>
</g>
<text text-anchor="middle" x="927" y="-753" font-family="Helvetica,sans-Serif" font-size="10.00" fill="grey"> +ptr</text>
</g>
<!-- Node19 -->
<g id="Node000019" class="node">
<title>Node19</title>
<g id="a_Node000019"><a xlink:title=" ">
<polygon fill="white" stroke="transparent" points="963.5,-1074 865.5,-1074 865.5,-1025 963.5,-1025 963.5,-1074"/>
<text text-anchor="start" x="870.5" y="-1061.5" font-family="Helvetica,sans-Serif" font-size="10.00">std::set&lt; Entity &gt;</text>
<text text-anchor="start" x="883" y="-1046.5" font-family="Helvetica,sans-Serif" font-size="10.00">+</text>
<text text-anchor="start" x="909.5" y="-1046.5" font-family="Helvetica,sans-Serif" font-size="10.00">keys</text>
<text text-anchor="start" x="912.5" y="-1031.5" font-family="Helvetica,sans-Serif" font-size="10.00"> </text>
<polygon fill="#666666" stroke="#666666" points="865.5,-1056.5 865.5,-1056.5 963.5,-1056.5 963.5,-1056.5 865.5,-1056.5"/>
<polygon fill="#666666" stroke="#666666" points="865.5,-1041.5 865.5,-1041.5 907.5,-1041.5 907.5,-1041.5 865.5,-1041.5"/>
<polygon fill="#666666" stroke="#666666" points="907.5,-1041.5 907.5,-1041.5 963.5,-1041.5 963.5,-1041.5 907.5,-1041.5"/>
<polygon fill="none" stroke="#666666" points="865.5,-1025 865.5,-1074 963.5,-1074 963.5,-1025 865.5,-1025"/>
</a>
</g>
</g>
<!-- Node19&#45;&gt;Node18 -->
<g id="edge19_Node000018_Node000019" class="edge">
<title>Node19&#45;&gt;Node18</title>
<g id="a_edge19_Node000018_Node000019"><a xlink:title=" ">
<path fill="none" stroke="#63b8ff" d="M914.5,-1024.64C914.5,-1015.06 914.5,-1003.28 914.5,-990.6"/>
<polygon fill="none" stroke="#63b8ff" points="914.5,-990.22 910.5,-984.22 914.5,-978.22 918.5,-984.22 914.5,-990.22"/>
</a>
</g>
<text text-anchor="middle" x="939" y="-999" font-family="Helvetica,sans-Serif" font-size="10.00" fill="grey"> +entities</text>
</g>
<!-- Node20 -->
<g id="Node000020" class="node">
<title>Node20</title>
<g id="a_Node000020"><a xlink:title=" ">
<polygon fill="white" stroke="transparent" points="931,-300.5 830,-300.5 830,-251.5 931,-251.5 931,-300.5"/>
<text text-anchor="start" x="835.5" y="-288" font-family="Helvetica,sans-Serif" font-size="10.00">std::shared_mutex</text>
<text text-anchor="start" x="879" y="-273" font-family="Helvetica,sans-Serif" font-size="10.00"> </text>
<text text-anchor="start" x="879" y="-258" font-family="Helvetica,sans-Serif" font-size="10.00"> </text>
<polygon fill="#666666" stroke="#666666" points="830.5,-283 830.5,-283 931.5,-283 931.5,-283 830.5,-283"/>
<polygon fill="#666666" stroke="#666666" points="830.5,-268 830.5,-268 931.5,-268 931.5,-268 830.5,-268"/>
<polygon fill="none" stroke="#666666" points="830,-251.5 830,-300.5 931,-300.5 931,-251.5 830,-251.5"/>
</a>
</g>
</g>
<!-- Node20&#45;&gt;Node1 -->
<g id="edge20_Node000001_Node000020" class="edge">
<title>Node20&#45;&gt;Node1</title>
<g id="a_edge20_Node000001_Node000020"><a xlink:title=" ">
<path fill="none" stroke="#63b8ff" d="M845.3,-251.47C805.99,-225.18 741.3,-181.94 691.22,-148.45"/>
<polygon fill="none" stroke="#63b8ff" points="691.07,-148.35 683.85,-148.34 681.09,-141.68 688.3,-141.69 691.07,-148.35"/>
</a>
</g>
<text text-anchor="middle" x="837.5" y="-220" font-family="Helvetica,sans-Serif" font-size="10.00" fill="grey"> &#45;m_ecsMutex</text>
</g>
</g>
</svg>
