<?xml version="1.0" encoding="UTF-8" standalone="no"?>
<!DOCTYPE svg PUBLIC "-//W3C//DTD SVG 1.1//EN"
 "http://www.w3.org/Graphics/SVG/1.1/DTD/svg11.dtd">
<!-- Generated by graphviz version 2.43.0 (0)
 -->
<!-- Title: ComponentStorage&lt; T &gt; Pages: 1 -->
<svg width="276pt" height="324pt"
 viewBox="0.00 0.00 276.00 324.00" xmlns="http://www.w3.org/2000/svg" xmlns:xlink="http://www.w3.org/1999/xlink">
<g id="graph0" class="graph" transform="scale(1 1) rotate(0) translate(4 320)">
<title>ComponentStorage&lt; T &gt;</title>
<!-- Node1 -->
<g id="Node000001" class="node">
<title>Node1</title>
<g id="a_Node000001"><a xlink:title="Stores component data for entities using an unordered map.">
<polygon fill="#999999" stroke="transparent" points="178.5,-109 45.5,-109 45.5,0 178.5,0 178.5,-109"/>
<text text-anchor="start" x="51" y="-96.5" font-family="Helvetica,sans-Serif" font-size="10.00">ComponentStorage&lt; T &gt;</text>
<text text-anchor="start" x="110.5" y="-81.5" font-family="Helvetica,sans-Serif" font-size="10.00"> </text>
<text text-anchor="start" x="56" y="-66.5" font-family="Helvetica,sans-Serif" font-size="10.00">+</text>
<text text-anchor="start" x="75" y="-66.5" font-family="Helvetica,sans-Serif" font-size="10.00">insertData()</text>
<text text-anchor="start" x="56" y="-51.5" font-family="Helvetica,sans-Serif" font-size="10.00">+</text>
<text text-anchor="start" x="75" y="-51.5" font-family="Helvetica,sans-Serif" font-size="10.00">removeData()</text>
<text text-anchor="start" x="56" y="-36.5" font-family="Helvetica,sans-Serif" font-size="10.00">+</text>
<text text-anchor="start" x="75" y="-36.5" font-family="Helvetica,sans-Serif" font-size="10.00">getData()</text>
<text text-anchor="start" x="56" y="-21.5" font-family="Helvetica,sans-Serif" font-size="10.00">+</text>
<text text-anchor="start" x="75" y="-21.5" font-family="Helvetica,sans-Serif" font-size="10.00">hasData()</text>
<text text-anchor="start" x="56" y="-6.5" font-family="Helvetica,sans-Serif" font-size="10.00">+</text>
<text text-anchor="start" x="75" y="-6.5" font-family="Helvetica,sans-Serif" font-size="10.00">entityDestroyed()</text>
<polygon fill="#666666" stroke="#666666" points="46,-91.5 46,-91.5 179,-91.5 179,-91.5 46,-91.5"/>
<polygon fill="#666666" stroke="#666666" points="46,-76.5 46,-76.5 179,-76.5 179,-76.5 46,-76.5"/>
<polygon fill="none" stroke="#666666" points="45.5,0 45.5,-109 178.5,-109 178.5,0 45.5,0"/>
</a>
</g>
</g>
<!-- Node2 -->
<g id="Node000002" class="node">
<title>Node2</title>
<g id="a_Node000002"><a xlink:href="classAComponentStorage.html" target="_top" xlink:title="Abstract base class for component arrays.">
<polygon fill="white" stroke="transparent" points="138,-220 0,-220 0,-156 138,-156 138,-220"/>
<text text-anchor="start" x="18.5" y="-208" font-family="Helvetica,sans-Serif" font-size="10.00">AComponentStorage</text>
<text text-anchor="start" x="67" y="-193" font-family="Helvetica,sans-Serif" font-size="10.00"> </text>
<text text-anchor="start" x="4" y="-178" font-family="Helvetica,sans-Serif" font-size="10.00">+</text>
<text text-anchor="start" x="17" y="-178" font-family="Helvetica,sans-Serif" font-size="10.00">~AComponentStorage()</text>
<text text-anchor="start" x="4" y="-163" font-family="Helvetica,sans-Serif" font-size="10.00">+</text>
<text text-anchor="start" x="17" y="-163" font-family="Helvetica,sans-Serif" font-size="10.00">entityDestroyed()</text>
<polygon fill="#666666" stroke="#666666" points="0,-203 0,-203 138,-203 138,-203 0,-203"/>
<polygon fill="#666666" stroke="#666666" points="0,-188 0,-188 138,-188 138,-188 0,-188"/>
<polygon fill="none" stroke="#666666" points="0,-156 0,-220 138,-220 138,-156 0,-156"/>
</a>
</g>
</g>
<!-- Node2&#45;&gt;Node1 -->
<g id="edge1_Node000001_Node000002" class="edge">
<title>Node2&#45;&gt;Node1</title>
<g id="a_edge1_Node000001_Node000002"><a xlink:title=" ">
<path fill="none" stroke="#63b8ff" d="M82.31,-146.29C86.16,-134.52 90.42,-121.49 94.48,-109.07"/>
<polygon fill="none" stroke="#63b8ff" points="78.97,-145.24 79.19,-155.84 85.63,-147.42 78.97,-145.24"/>
</a>
</g>
</g>
<!-- Node3 -->
<g id="Node000003" class="node">
<title>Node3</title>
<g id="a_Node000003"><a xlink:title=" ">
<polygon fill="white" stroke="transparent" points="264,-218 156,-218 156,-158 264,-158 264,-218"/>
<text text-anchor="start" x="161" y="-206" font-family="Helvetica,sans-Serif" font-size="10.00">std::unordered_map</text>
<text text-anchor="start" x="178" y="-195" font-family="Helvetica,sans-Serif" font-size="10.00">&lt; Entity, T &gt;</text>
<text text-anchor="start" x="176" y="-180" font-family="Helvetica,sans-Serif" font-size="10.00">+</text>
<text text-anchor="start" x="205" y="-180" font-family="Helvetica,sans-Serif" font-size="10.00">keys</text>
<text text-anchor="start" x="208" y="-165" font-family="Helvetica,sans-Serif" font-size="10.00"> </text>
<polygon fill="#666666" stroke="#666666" points="156,-190 156,-190 264,-190 264,-190 156,-190"/>
<polygon fill="#666666" stroke="#666666" points="156,-175 156,-175 203,-175 203,-175 156,-175"/>
<polygon fill="#666666" stroke="#666666" points="203,-175 203,-175 264,-175 264,-175 203,-175"/>
<polygon fill="none" stroke="#666666" points="156,-158 156,-218 264,-218 264,-158 156,-158"/>
</a>
</g>
</g>
<!-- Node3&#45;&gt;Node1 -->
<g id="edge2_Node000001_Node000003" class="edge">
<title>Node3&#45;&gt;Node1</title>
<g id="a_edge2_Node000001_Node000003"><a xlink:title=" ">
<path fill="none" stroke="#63b8ff" d="M188.25,-157.82C179.67,-146.31 169.47,-132.61 159.35,-119.04"/>
<polygon fill="none" stroke="#63b8ff" points="159.2,-118.83 152.4,-116.41 152.03,-109.21 158.82,-111.63 159.2,-118.83"/>
</a>
</g>
<text text-anchor="middle" x="213.5" y="-130" font-family="Helvetica,sans-Serif" font-size="10.00" fill="grey"> &#45;componentMap</text>
</g>
<!-- Node4 -->
<g id="Node000004" class="node">
<title>Node4</title>
<g id="a_Node000004"><a xlink:title=" ">
<polygon fill="white" stroke="transparent" points="218.5,-316 201.5,-316 201.5,-267 218.5,-267 218.5,-316"/>
<text text-anchor="start" x="207" y="-303.5" font-family="Helvetica,sans-Serif" font-size="10.00">T</text>
<text text-anchor="start" x="208.5" y="-288.5" font-family="Helvetica,sans-Serif" font-size="10.00"> </text>
<text text-anchor="start" x="208.5" y="-273.5" font-family="Helvetica,sans-Serif" font-size="10.00"> </text>
<polygon fill="#666666" stroke="#666666" points="202,-298.5 202,-298.5 219,-298.5 219,-298.5 202,-298.5"/>
<polygon fill="#666666" stroke="#666666" points="202,-283.5 202,-283.5 219,-283.5 219,-283.5 202,-283.5"/>
<polygon fill="none" stroke="#666666" points="201.5,-267 201.5,-316 218.5,-316 218.5,-267 201.5,-267"/>
</a>
</g>
</g>
<!-- Node4&#45;&gt;Node3 -->
<g id="edge3_Node000003_Node000004" class="edge">
<title>Node4&#45;&gt;Node3</title>
<g id="a_edge3_Node000003_Node000004"><a xlink:title=" ">
<path fill="none" stroke="#63b8ff" d="M210,-266.96C210,-256.07 210,-242.8 210,-230.32"/>
<polygon fill="none" stroke="#63b8ff" points="210,-230.22 206,-224.22 210,-218.22 214,-224.22 210,-230.22"/>
</a>
</g>
<text text-anchor="middle" x="239" y="-241" font-family="Helvetica,sans-Serif" font-size="10.00" fill="grey"> +elements</text>
</g>
</g>
</svg>
