<?xml version="1.0" encoding="UTF-8" standalone="no"?>
<!DOCTYPE svg PUBLIC "-//W3C//DTD SVG 1.1//EN"
 "http://www.w3.org/Graphics/SVG/1.1/DTD/svg11.dtd">
<!-- Generated by graphviz version 2.43.0 (0)
 -->
<!-- Title: SystemManager Pages: 1 -->
<!--zoomable 673 -->

<svg id="main" version="1.1" xmlns="http://www.w3.org/2000/svg" xmlns:xlink="http://www.w3.org/1999/xlink" xml:space="preserve" onload="init(evt)">
<style type="text/css"><![CDATA[
.node, .edge {opacity: 0.7;}
.node.selected, .edge.selected {opacity: 1;}
.edge:hover path { stroke: red; }
.edge:hover polygon { stroke: red; fill: red; }
]]></style>

<defs>
  <circle id="rim" cx="0" cy="0" r="7"/>
  <circle id="rim2" cx="0" cy="0" r="3.5"/>
  <g id="zoomPlus">
    <use xlink:href="#rim" fill="#404040"><set attributeName="fill" to="#808080" begin="zoomplus.mouseover" end="zoomplus.mouseout"/></use>
    <path d="M-4,0h8M0,-4v8" fill="none" stroke="white" stroke-width="1.5" pointer-events="none"/>
  </g>
  <g id="zoomMin">
    <use xlink:href="#rim" fill="#404040"><set attributeName="fill" to="#808080" begin="zoomminus.mouseover" end="zoomminus.mouseout"/></use>
    <path d="M-4,0h8" fill="none" stroke="white" stroke-width="1.5" pointer-events="none"/>
  </g>
  <g id="arrowUp" transform="translate(30 24)">
    <use xlink:href="#rim"/>
    <path pointer-events="none" fill="none" stroke="white" stroke-width="1.5" d="M0,-3.0v7 M-2.5,-0.5L0,-3.0L2.5,-0.5"/>
  </g>
  <g id="arrowRight" transform="rotate(90) translate(36 -43)">
    <use xlink:href="#rim"/>
    <path pointer-events="none" fill="none" stroke="white" stroke-width="1.5" d="M0,-3.0v7 M-2.5,-0.5L0,-3.0L2.5,-0.5"/>
  </g>
  <g id="arrowDown" transform="rotate(180) translate(-30 -48)">
    <use xlink:href="#rim"/>
    <path pointer-events="none" fill="none" stroke="white" stroke-width="1.5" d="M0,-3.0v7 M-2.5,-0.5L0,-3.0L2.5,-0.5"/>
  </g>
  <g id="arrowLeft" transform="rotate(270) translate(-36 17)">
    <use xlink:href="#rim"/>
    <path pointer-events="none" fill="none" stroke="white" stroke-width="1.5" d="M0,-3.0v7 M-2.5,-0.5L0,-3.0L2.5,-0.5"/>
  </g>
  <g id="resetDef">
    <use xlink:href="#rim2" fill="#404040"><set attributeName="fill" to="#808080" begin="reset.mouseover" end="reset.mouseout"/></use>
  </g>
</defs>
<script type="application/ecmascript">
var viewWidth = 328;
var viewHeight = 673;
var sectionId = 'dynsection-0';
</script>
<script type="application/ecmascript" xlink:href="svg.min.js"/>
<svg id="graph" class="graph">
<g id="viewport">
<title>SystemManager</title>
<!-- Node1 -->
<g id="Node000001" class="node">
<title>Node1</title>
<g id="a_Node000001"><a xlink:title="Manages systems and their component signatures.">
<polygon fill="#999999" stroke="transparent" points="237,-109 90,-109 90,0 237,0 237,-109"/>
<text text-anchor="start" x="124" y="-96.5" font-family="Helvetica,sans-Serif" font-size="10.00">SystemManager</text>
<text text-anchor="start" x="162" y="-81.5" font-family="Helvetica,sans-Serif" font-size="10.00"> </text>
<text text-anchor="start" x="94.5" y="-66.5" font-family="Helvetica,sans-Serif" font-size="10.00">+</text>
<text text-anchor="start" x="107.5" y="-66.5" font-family="Helvetica,sans-Serif" font-size="10.00">registerSystem()</text>
<text text-anchor="start" x="94.5" y="-51.5" font-family="Helvetica,sans-Serif" font-size="10.00">+</text>
<text text-anchor="start" x="107.5" y="-51.5" font-family="Helvetica,sans-Serif" font-size="10.00">getSystem()</text>
<text text-anchor="start" x="94.5" y="-36.5" font-family="Helvetica,sans-Serif" font-size="10.00">+</text>
<text text-anchor="start" x="107.5" y="-36.5" font-family="Helvetica,sans-Serif" font-size="10.00">setSignature()</text>
<text text-anchor="start" x="94.5" y="-21.5" font-family="Helvetica,sans-Serif" font-size="10.00">+</text>
<text text-anchor="start" x="107.5" y="-21.5" font-family="Helvetica,sans-Serif" font-size="10.00">entityDestroyed()</text>
<text text-anchor="start" x="94.5" y="-6.5" font-family="Helvetica,sans-Serif" font-size="10.00">+</text>
<text text-anchor="start" x="107.5" y="-6.5" font-family="Helvetica,sans-Serif" font-size="10.00">entitySignatureChanged()</text>
<polygon fill="#666666" stroke="#666666" points="90.5,-91.5 90.5,-91.5 237.5,-91.5 237.5,-91.5 90.5,-91.5"/>
<polygon fill="#666666" stroke="#666666" points="90.5,-76.5 90.5,-76.5 237.5,-76.5 237.5,-76.5 90.5,-76.5"/>
<polygon fill="none" stroke="#666666" points="90,0 90,-109 237,-109 237,0 90,0"/>
</a>
</g>
</g>
<!-- Node2 -->
<g id="Node000002" class="node">
<title>Node2</title>
<g id="a_Node000002"><a xlink:title=" ">
<polygon fill="white" stroke="transparent" points="161,-221.5 0,-221.5 0,-161.5 161,-161.5 161,-221.5"/>
<text text-anchor="start" x="5.5" y="-209.5" font-family="Helvetica,sans-Serif" font-size="10.00">std::unordered_map</text>
<text text-anchor="start" x="5.5" y="-198.5" font-family="Helvetica,sans-Serif" font-size="10.00">&lt; std::type_index, Signature &gt;</text>
<text text-anchor="start" x="33.5" y="-183.5" font-family="Helvetica,sans-Serif" font-size="10.00">+</text>
<text text-anchor="start" x="75.5" y="-183.5" font-family="Helvetica,sans-Serif" font-size="10.00">keys</text>
<text text-anchor="start" x="79" y="-168.5" font-family="Helvetica,sans-Serif" font-size="10.00"> </text>
<polygon fill="#666666" stroke="#666666" points="0.5,-193.5 0.5,-193.5 161.5,-193.5 161.5,-193.5 0.5,-193.5"/>
<polygon fill="#666666" stroke="#666666" points="0.5,-178.5 0.5,-178.5 73.5,-178.5 73.5,-178.5 0.5,-178.5"/>
<polygon fill="#666666" stroke="#666666" points="73.5,-178.5 73.5,-178.5 161.5,-178.5 161.5,-178.5 73.5,-178.5"/>
<polygon fill="none" stroke="#666666" points="0,-161.5 0,-221.5 161,-221.5 161,-161.5 0,-161.5"/>
</a>
</g>
</g>
<!-- Node2&#45;&gt;Node1 -->
<g id="edge1_Node000001_Node000002" class="edge">
<title>Node2&#45;&gt;Node1</title>
<g id="a_edge1_Node000001_Node000002"><a xlink:title=" ">
<path fill="none" stroke="#63b8ff" d="M98.51,-161.21C106.03,-148.98 115.08,-134.25 124.01,-119.73"/>
<polygon fill="none" stroke="#63b8ff" points="124.18,-119.45 123.92,-112.24 130.47,-109.23 130.73,-116.43 124.18,-119.45"/>
</a>
</g>
<text text-anchor="middle" x="148.5" y="-130" font-family="Helvetica,sans-Serif" font-size="10.00" fill="grey"> &#45;signatures</text>
</g>
<!-- Node3 -->
<g id="Node000003" class="node">
<title>Node3</title>
<g id="a_Node000003"><a xlink:title=" ">
<polygon fill="white" stroke="transparent" points="131,-323 30,-323 30,-274 131,-274 131,-323"/>
<text text-anchor="start" x="35.5" y="-310.5" font-family="Helvetica,sans-Serif" font-size="10.00">std::bitset&lt; Bits &gt;</text>
<text text-anchor="start" x="79" y="-295.5" font-family="Helvetica,sans-Serif" font-size="10.00"> </text>
<text text-anchor="start" x="79" y="-280.5" font-family="Helvetica,sans-Serif" font-size="10.00"> </text>
<polygon fill="#666666" stroke="#666666" points="30.5,-305.5 30.5,-305.5 131.5,-305.5 131.5,-305.5 30.5,-305.5"/>
<polygon fill="#666666" stroke="#666666" points="30.5,-290.5 30.5,-290.5 131.5,-290.5 131.5,-290.5 30.5,-290.5"/>
<polygon fill="none" stroke="#666666" points="30,-274 30,-323 131,-323 131,-274 30,-274"/>
</a>
</g>
</g>
<!-- Node3&#45;&gt;Node2 -->
<g id="edge2_Node000002_Node000003" class="edge">
<title>Node3&#45;&gt;Node2</title>
<g id="a_edge2_Node000002_Node000003"><a xlink:title=" ">
<path fill="none" stroke="#63b8ff" d="M80.5,-273.94C80.5,-262.09 80.5,-247.37 80.5,-233.73"/>
<polygon fill="none" stroke="#63b8ff" points="80.5,-233.61 76.5,-227.61 80.5,-221.61 84.5,-227.61 80.5,-233.61"/>
</a>
</g>
<text text-anchor="middle" x="109.5" y="-248" font-family="Helvetica,sans-Serif" font-size="10.00" fill="grey"> +elements</text>
</g>
<!-- Node4 -->
<g id="Node000004" class="node">
<title>Node4</title>
<g id="a_Node000004"><a xlink:title=" ">
<polygon fill="white" stroke="transparent" points="318,-227 179,-227 179,-156 318,-156 318,-227"/>
<text text-anchor="start" x="184.5" y="-214.5" font-family="Helvetica,sans-Serif" font-size="10.00">std::unordered_map</text>
<text text-anchor="start" x="184.5" y="-203.5" font-family="Helvetica,sans-Serif" font-size="10.00">&lt; std::type_index, std</text>
<text text-anchor="start" x="184.5" y="-192.5" font-family="Helvetica,sans-Serif" font-size="10.00">::shared_ptr&lt; System &gt; &gt;</text>
<text text-anchor="start" x="207" y="-177.5" font-family="Helvetica,sans-Serif" font-size="10.00">+</text>
<text text-anchor="start" x="243.5" y="-177.5" font-family="Helvetica,sans-Serif" font-size="10.00">keys</text>
<text text-anchor="start" x="247" y="-162.5" font-family="Helvetica,sans-Serif" font-size="10.00"> </text>
<polygon fill="#666666" stroke="#666666" points="179.5,-187.5 179.5,-187.5 318.5,-187.5 318.5,-187.5 179.5,-187.5"/>
<polygon fill="#666666" stroke="#666666" points="179.5,-172.5 179.5,-172.5 241.5,-172.5 241.5,-172.5 179.5,-172.5"/>
<polygon fill="#666666" stroke="#666666" points="241.5,-172.5 241.5,-172.5 318.5,-172.5 318.5,-172.5 241.5,-172.5"/>
<polygon fill="none" stroke="#666666" points="179,-156 179,-227 318,-227 318,-156 179,-156"/>
</a>
</g>
</g>
<!-- Node4&#45;&gt;Node1 -->
<g id="edge3_Node000001_Node000004" class="edge">
<title>Node4&#45;&gt;Node1</title>
<g id="a_edge3_Node000001_Node000004"><a xlink:title=" ">
<path fill="none" stroke="#63b8ff" d="M226.61,-155.73C219.62,-144.63 211.64,-131.96 203.77,-119.45"/>
<polygon fill="none" stroke="#63b8ff" points="203.59,-119.18 197.01,-116.23 197.2,-109.02 203.78,-111.97 203.59,-119.18"/>
</a>
</g>
<text text-anchor="middle" x="238" y="-130" font-family="Helvetica,sans-Serif" font-size="10.00" fill="grey"> &#45;systems</text>
</g>
<!-- Node5 -->
<g id="Node000005" class="node">
<title>Node5</title>
<g id="a_Node000005"><a xlink:title=" ">
<polygon fill="white" stroke="transparent" points="320,-323 177,-323 177,-274 320,-274 320,-323"/>
<text text-anchor="start" x="182.5" y="-310.5" font-family="Helvetica,sans-Serif" font-size="10.00">std::shared_ptr&lt; System &gt;</text>
<text text-anchor="start" x="247" y="-295.5" font-family="Helvetica,sans-Serif" font-size="10.00"> </text>
<text text-anchor="start" x="196.5" y="-280.5" font-family="Helvetica,sans-Serif" font-size="10.00">+</text>
<text text-anchor="start" x="224.5" y="-280.5" font-family="Helvetica,sans-Serif" font-size="10.00">operator&#45;&gt;()</text>
<polygon fill="#666666" stroke="#666666" points="177.5,-305.5 177.5,-305.5 320.5,-305.5 320.5,-305.5 177.5,-305.5"/>
<polygon fill="#666666" stroke="#666666" points="177.5,-290.5 177.5,-290.5 320.5,-290.5 320.5,-290.5 177.5,-290.5"/>
<polygon fill="none" stroke="#666666" points="177,-274 177,-323 320,-323 320,-274 177,-274"/>
</a>
</g>
</g>
<!-- Node5&#45;&gt;Node4 -->
<g id="edge4_Node000004_Node000005" class="edge">
<title>Node5&#45;&gt;Node4</title>
<g id="a_edge4_Node000004_Node000005"><a xlink:title=" ">
<path fill="none" stroke="#63b8ff" d="M248.5,-273.94C248.5,-263.7 248.5,-251.34 248.5,-239.37"/>
<polygon fill="none" stroke="#63b8ff" points="248.5,-239.15 244.5,-233.15 248.5,-227.15 252.5,-233.15 248.5,-239.15"/>
</a>
</g>
<text text-anchor="middle" x="277.5" y="-248" font-family="Helvetica,sans-Serif" font-size="10.00" fill="grey"> +elements</text>
</g>
<!-- Node6 -->
<g id="Node000006" class="node">
<title>Node6</title>
<g id="a_Node000006"><a xlink:href="classSystem.html" target="_top" xlink:title="Base class for all systems in the ECS architecture.">
<polygon fill="white" stroke="transparent" points="316.5,-569 180.5,-569 180.5,-370 316.5,-370 316.5,-569"/>
<text text-anchor="start" x="230" y="-556.5" font-family="Helvetica,sans-Serif" font-size="10.00">System</text>
<text text-anchor="start" x="187" y="-541.5" font-family="Helvetica,sans-Serif" font-size="10.00">&#45;</text>
<text text-anchor="start" x="197.5" y="-541.5" font-family="Helvetica,sans-Serif" font-size="10.00">_delta</text>
<text text-anchor="start" x="187" y="-526.5" font-family="Helvetica,sans-Serif" font-size="10.00">&#45;</text>
<text text-anchor="start" x="197.5" y="-526.5" font-family="Helvetica,sans-Serif" font-size="10.00">_threshold</text>
<text text-anchor="start" x="187" y="-511.5" font-family="Helvetica,sans-Serif" font-size="10.00">&#45;</text>
<text text-anchor="start" x="197.5" y="-511.5" font-family="Helvetica,sans-Serif" font-size="10.00">_isTaskRunning</text>
<text text-anchor="start" x="184.5" y="-496.5" font-family="Helvetica,sans-Serif" font-size="10.00">+</text>
<text text-anchor="start" x="197.5" y="-496.5" font-family="Helvetica,sans-Serif" font-size="10.00">getEntities()</text>
<text text-anchor="start" x="184.5" y="-481.5" font-family="Helvetica,sans-Serif" font-size="10.00">+</text>
<text text-anchor="start" x="197.5" y="-481.5" font-family="Helvetica,sans-Serif" font-size="10.00">update()</text>
<text text-anchor="start" x="184.5" y="-466.5" font-family="Helvetica,sans-Serif" font-size="10.00">+</text>
<text text-anchor="start" x="197.5" y="-466.5" font-family="Helvetica,sans-Serif" font-size="10.00">render()</text>
<text text-anchor="start" x="184.5" y="-451.5" font-family="Helvetica,sans-Serif" font-size="10.00">+</text>
<text text-anchor="start" x="197.5" y="-451.5" font-family="Helvetica,sans-Serif" font-size="10.00">addDelta()</text>
<text text-anchor="start" x="184.5" y="-436.5" font-family="Helvetica,sans-Serif" font-size="10.00">+</text>
<text text-anchor="start" x="197.5" y="-436.5" font-family="Helvetica,sans-Serif" font-size="10.00">getDelta()</text>
<text text-anchor="start" x="184.5" y="-421.5" font-family="Helvetica,sans-Serif" font-size="10.00">+</text>
<text text-anchor="start" x="197.5" y="-421.5" font-family="Helvetica,sans-Serif" font-size="10.00">canExecute()</text>
<text text-anchor="start" x="184.5" y="-406.5" font-family="Helvetica,sans-Serif" font-size="10.00">+</text>
<text text-anchor="start" x="197.5" y="-406.5" font-family="Helvetica,sans-Serif" font-size="10.00">setTPS()</text>
<text text-anchor="start" x="184.5" y="-391.5" font-family="Helvetica,sans-Serif" font-size="10.00">+</text>
<text text-anchor="start" x="197.5" y="-391.5" font-family="Helvetica,sans-Serif" font-size="10.00">getThreshold()</text>
<text text-anchor="start" x="184.5" y="-376.5" font-family="Helvetica,sans-Serif" font-size="10.00">+</text>
<text text-anchor="start" x="197.5" y="-376.5" font-family="Helvetica,sans-Serif" font-size="10.00">executeWhenPossible()</text>
<polygon fill="#666666" stroke="#666666" points="180.5,-551.5 180.5,-551.5 316.5,-551.5 316.5,-551.5 180.5,-551.5"/>
<polygon fill="#666666" stroke="#666666" points="180.5,-506.5 180.5,-506.5 195.5,-506.5 195.5,-506.5 180.5,-506.5"/>
<polygon fill="#666666" stroke="#666666" points="195.5,-506.5 195.5,-506.5 316.5,-506.5 316.5,-506.5 195.5,-506.5"/>
<polygon fill="none" stroke="#666666" points="180.5,-370 180.5,-569 316.5,-569 316.5,-370 180.5,-370"/>
</a>
</g>
</g>
<!-- Node6&#45;&gt;Node5 -->
<g id="edge5_Node000005_Node000006" class="edge">
<title>Node6&#45;&gt;Node5</title>
<g id="a_edge5_Node000005_Node000006"><a xlink:title=" ">
<path fill="none" stroke="#63b8ff" d="M248.5,-369.7C248.5,-357.51 248.5,-345.73 248.5,-335.42"/>
<polygon fill="none" stroke="#63b8ff" points="248.5,-335.21 244.5,-329.21 248.5,-323.21 252.5,-329.21 248.5,-335.21"/>
</a>
</g>
<text text-anchor="middle" x="261" y="-344" font-family="Helvetica,sans-Serif" font-size="10.00" fill="grey"> +ptr</text>
</g>
<!-- Node7 -->
<g id="Node000007" class="node">
<title>Node7</title>
<g id="a_Node000007"><a xlink:title=" ">
<polygon fill="white" stroke="transparent" points="297.5,-665 199.5,-665 199.5,-616 297.5,-616 297.5,-665"/>
<text text-anchor="start" x="204.5" y="-652.5" font-family="Helvetica,sans-Serif" font-size="10.00">std::set&lt; Entity &gt;</text>
<text text-anchor="start" x="217" y="-637.5" font-family="Helvetica,sans-Serif" font-size="10.00">+</text>
<text text-anchor="start" x="243.5" y="-637.5" font-family="Helvetica,sans-Serif" font-size="10.00">keys</text>
<text text-anchor="start" x="246.5" y="-622.5" font-family="Helvetica,sans-Serif" font-size="10.00"> </text>
<polygon fill="#666666" stroke="#666666" points="199.5,-647.5 199.5,-647.5 297.5,-647.5 297.5,-647.5 199.5,-647.5"/>
<polygon fill="#666666" stroke="#666666" points="199.5,-632.5 199.5,-632.5 241.5,-632.5 241.5,-632.5 199.5,-632.5"/>
<polygon fill="#666666" stroke="#666666" points="241.5,-632.5 241.5,-632.5 297.5,-632.5 297.5,-632.5 241.5,-632.5"/>
<polygon fill="none" stroke="#666666" points="199.5,-616 199.5,-665 297.5,-665 297.5,-616 199.5,-616"/>
</a>
</g>
</g>
<!-- Node7&#45;&gt;Node6 -->
<g id="edge6_Node000006_Node000007" class="edge">
<title>Node7&#45;&gt;Node6</title>
<g id="a_edge6_Node000006_Node000007"><a xlink:title=" ">
<path fill="none" stroke="#63b8ff" d="M248.5,-615.64C248.5,-606.06 248.5,-594.28 248.5,-581.6"/>
<polygon fill="none" stroke="#63b8ff" points="248.5,-581.22 244.5,-575.22 248.5,-569.22 252.5,-575.22 248.5,-581.22"/>
</a>
</g>
<text text-anchor="middle" x="273" y="-590" font-family="Helvetica,sans-Serif" font-size="10.00" fill="grey"> +entities</text>
</g>
</g>
</svg>

<g id="navigator" transform="translate(0 0)" fill="#404254">
  <rect fill="#f2f5e9" fill-opacity="0.5" stroke="#606060" stroke-width=".5" x="0" y="0" width="60" height="60"/>
  <use id="zoomplus" xlink:href="#zoomPlus" x="17" y="9" onmousedown="handleZoom(evt,'in')"/>
  <use id="zoomminus" xlink:href="#zoomMin" x="42" y="9" onmousedown="handleZoom(evt,'out')"/>
  <use id="reset" xlink:href="#resetDef" x="30" y="36" onmousedown="handleReset()"/>
   <use id="arrowup" xlink:href="#arrowUp" x="0" y="0" onmousedown="handlePan(0,-1)"/>
  <use id="arrowright" xlink:href="#arrowRight" x="0" y="0" onmousedown="handlePan(1,0)"/>
  <use id="arrowdown" xlink:href="#arrowDown" x="0" y="0" onmousedown="handlePan(0,1)"/>
  <use id="arrowleft" xlink:href="#arrowLeft" x="0" y="0" onmousedown="handlePan(-1,0)"/>
</g>
<svg viewBox="0 0 15 15" width="100%" height="30px" preserveAspectRatio="xMaxYMin meet">
 <g id="arrow_out" transform="scale(0.3 0.3)">
  <a xlink:href="classSystemManager__coll__graph_org.svg" target="_base">
   <rect id="button" ry="5" rx="5" y="6" x="6" height="38" width="38"
        fill="#f2f5e9" fill-opacity="0.5" stroke="#606060" stroke-width="1.0"/>
   <path id="arrow"
     d="M 11.500037,31.436501 C 11.940474,20.09759 22.043105,11.32322 32.158766,21.979434 L 37.068811,17.246167 C 37.068811,17.246167 37.088388,32 37.088388,32 L 22.160133,31.978069 C 22.160133,31.978069 26.997745,27.140456 26.997745,27.140456 C 18.528582,18.264221 13.291696,25.230495 11.500037,31.436501 z"
     style="fill:#404040;"/>
  </a>
 </g>
</svg>

<style type='text/css'>
<![CDATA[
[data-mouse-over-selected='false'] { opacity: 0.7; }
[data-mouse-over-selected='true']  { opacity: 1.0; }
]]>
</style>
<script type="application/ecmascript"><![CDATA[
document.addEventListener('DOMContentLoaded', (event) => {
  highlightEdges();
  highlightAdjacentNodes();
});
]]></script>
</svg>
