<?xml version="1.0" encoding="UTF-8" standalone="no"?>
<!DOCTYPE svg PUBLIC "-//W3C//DTD SVG 1.1//EN"
 "http://www.w3.org/Graphics/SVG/1.1/DTD/svg11.dtd">
<!-- Generated by graphviz version 2.43.0 (0)
 -->
<!-- Title: ComponentManager Pages: 1 -->
<!--zoomable 498 -->

<svg id="main" version="1.1" xmlns="http://www.w3.org/2000/svg" xmlns:xlink="http://www.w3.org/1999/xlink" xml:space="preserve" onload="init(evt)">
<style type="text/css"><![CDATA[
.node, .edge {opacity: 0.7;}
.node.selected, .edge.selected {opacity: 1;}
.edge:hover path { stroke: red; }
.edge:hover polygon { stroke: red; fill: red; }
]]></style>

<defs>
  <circle id="rim" cx="0" cy="0" r="7"/>
  <circle id="rim2" cx="0" cy="0" r="3.5"/>
  <g id="zoomPlus">
    <use xlink:href="#rim" fill="#404040"><set attributeName="fill" to="#808080" begin="zoomplus.mouseover" end="zoomplus.mouseout"/></use>
    <path d="M-4,0h8M0,-4v8" fill="none" stroke="white" stroke-width="1.5" pointer-events="none"/>
  </g>
  <g id="zoomMin">
    <use xlink:href="#rim" fill="#404040"><set attributeName="fill" to="#808080" begin="zoomminus.mouseover" end="zoomminus.mouseout"/></use>
    <path d="M-4,0h8" fill="none" stroke="white" stroke-width="1.5" pointer-events="none"/>
  </g>
  <g id="arrowUp" transform="translate(30 24)">
    <use xlink:href="#rim"/>
    <path pointer-events="none" fill="none" stroke="white" stroke-width="1.5" d="M0,-3.0v7 M-2.5,-0.5L0,-3.0L2.5,-0.5"/>
  </g>
  <g id="arrowRight" transform="rotate(90) translate(36 -43)">
    <use xlink:href="#rim"/>
    <path pointer-events="none" fill="none" stroke="white" stroke-width="1.5" d="M0,-3.0v7 M-2.5,-0.5L0,-3.0L2.5,-0.5"/>
  </g>
  <g id="arrowDown" transform="rotate(180) translate(-30 -48)">
    <use xlink:href="#rim"/>
    <path pointer-events="none" fill="none" stroke="white" stroke-width="1.5" d="M0,-3.0v7 M-2.5,-0.5L0,-3.0L2.5,-0.5"/>
  </g>
  <g id="arrowLeft" transform="rotate(270) translate(-36 17)">
    <use xlink:href="#rim"/>
    <path pointer-events="none" fill="none" stroke="white" stroke-width="1.5" d="M0,-3.0v7 M-2.5,-0.5L0,-3.0L2.5,-0.5"/>
  </g>
  <g id="resetDef">
    <use xlink:href="#rim2" fill="#404040"><set attributeName="fill" to="#808080" begin="reset.mouseover" end="reset.mouseout"/></use>
  </g>
</defs>
<script type="application/ecmascript">
var viewWidth = 388;
var viewHeight = 498;
var sectionId = 'dynsection-0';
</script>
<script type="application/ecmascript" xlink:href="svg.min.js"/>
<svg id="graph" class="graph">
<g id="viewport">
<title>ComponentManager</title>
<!-- Node1 -->
<g id="Node000001" class="node">
<title>Node1</title>
<g id="a_Node000001"><a xlink:title="Manages component arrays and types.">
<polygon fill="#999999" stroke="transparent" points="205.5,-139 65.5,-139 65.5,0 205.5,0 205.5,-139"/>
<text text-anchor="start" x="85.5" y="-126.5" font-family="Helvetica,sans-Serif" font-size="10.00">ComponentManager</text>
<text text-anchor="start" x="72" y="-111.5" font-family="Helvetica,sans-Serif" font-size="10.00">&#45;</text>
<text text-anchor="start" x="82.5" y="-111.5" font-family="Helvetica,sans-Serif" font-size="10.00">nextComponentType</text>
<text text-anchor="start" x="69.5" y="-96.5" font-family="Helvetica,sans-Serif" font-size="10.00">+</text>
<text text-anchor="start" x="82.5" y="-96.5" font-family="Helvetica,sans-Serif" font-size="10.00">registerComponent()</text>
<text text-anchor="start" x="69.5" y="-81.5" font-family="Helvetica,sans-Serif" font-size="10.00">+</text>
<text text-anchor="start" x="82.5" y="-81.5" font-family="Helvetica,sans-Serif" font-size="10.00">getComponentTypeID()</text>
<text text-anchor="start" x="69.5" y="-66.5" font-family="Helvetica,sans-Serif" font-size="10.00">+</text>
<text text-anchor="start" x="82.5" y="-66.5" font-family="Helvetica,sans-Serif" font-size="10.00">addComponent()</text>
<text text-anchor="start" x="69.5" y="-51.5" font-family="Helvetica,sans-Serif" font-size="10.00">+</text>
<text text-anchor="start" x="82.5" y="-51.5" font-family="Helvetica,sans-Serif" font-size="10.00">removeComponent()</text>
<text text-anchor="start" x="69.5" y="-36.5" font-family="Helvetica,sans-Serif" font-size="10.00">+</text>
<text text-anchor="start" x="82.5" y="-36.5" font-family="Helvetica,sans-Serif" font-size="10.00">getComponent()</text>
<text text-anchor="start" x="69.5" y="-21.5" font-family="Helvetica,sans-Serif" font-size="10.00">+</text>
<text text-anchor="start" x="82.5" y="-21.5" font-family="Helvetica,sans-Serif" font-size="10.00">entityDestroyed()</text>
<text text-anchor="start" x="72" y="-6.5" font-family="Helvetica,sans-Serif" font-size="10.00">&#45;</text>
<text text-anchor="start" x="82.5" y="-6.5" font-family="Helvetica,sans-Serif" font-size="10.00">GetComponentStorage()</text>
<polygon fill="#666666" stroke="#666666" points="65.5,-121.5 65.5,-121.5 205.5,-121.5 205.5,-121.5 65.5,-121.5"/>
<polygon fill="#666666" stroke="#666666" points="65.5,-106.5 65.5,-106.5 80.5,-106.5 80.5,-106.5 65.5,-106.5"/>
<polygon fill="#666666" stroke="#666666" points="80.5,-106.5 80.5,-106.5 205.5,-106.5 205.5,-106.5 80.5,-106.5"/>
<polygon fill="none" stroke="#666666" points="65.5,0 65.5,-139 205.5,-139 205.5,0 65.5,0"/>
</a>
</g>
</g>
<!-- Node2 -->
<g id="Node000002" class="node">
<title>Node2</title>
<g id="a_Node000002"><a xlink:title=" ">
<polygon fill="white" stroke="transparent" points="159,-272 0,-272 0,-186 159,-186 159,-272"/>
<text text-anchor="start" x="5.5" y="-260" font-family="Helvetica,sans-Serif" font-size="10.00">std::unordered_map</text>
<text text-anchor="start" x="5.5" y="-249" font-family="Helvetica,sans-Serif" font-size="10.00">&lt; std::type_index, Component</text>
<text text-anchor="start" x="57.5" y="-238" font-family="Helvetica,sans-Serif" font-size="10.00">TypeID &gt;</text>
<text text-anchor="start" x="27.5" y="-223" font-family="Helvetica,sans-Serif" font-size="10.00">+</text>
<text text-anchor="start" x="63.5" y="-223" font-family="Helvetica,sans-Serif" font-size="10.00">keys</text>
<text text-anchor="start" x="27.5" y="-208" font-family="Helvetica,sans-Serif" font-size="10.00">+</text>
<text text-anchor="start" x="63.5" y="-208" font-family="Helvetica,sans-Serif" font-size="10.00">elements</text>
<text text-anchor="start" x="78" y="-193" font-family="Helvetica,sans-Serif" font-size="10.00"> </text>
<polygon fill="#666666" stroke="#666666" points="0.5,-233 0.5,-233 159.5,-233 159.5,-233 0.5,-233"/>
<polygon fill="#666666" stroke="#666666" points="0.5,-203 0.5,-203 61.5,-203 61.5,-203 0.5,-203"/>
<polygon fill="#666666" stroke="#666666" points="61.5,-203 61.5,-203 159.5,-203 159.5,-203 61.5,-203"/>
<polygon fill="none" stroke="#666666" points="0,-186 0,-272 159,-272 159,-186 0,-186"/>
</a>
</g>
</g>
<!-- Node2&#45;&gt;Node1 -->
<g id="edge1_Node000001_Node000002" class="edge">
<title>Node2&#45;&gt;Node1</title>
<g id="a_edge1_Node000001_Node000002"><a xlink:title=" ">
<path fill="none" stroke="#63b8ff" d="M94.51,-185.79C98.36,-174.95 102.64,-162.92 106.93,-150.84"/>
<polygon fill="none" stroke="#63b8ff" points="107.02,-150.59 105.26,-143.6 111.04,-139.29 112.8,-146.28 107.02,-150.59"/>
</a>
</g>
<text text-anchor="middle" x="149.5" y="-160" font-family="Helvetica,sans-Serif" font-size="10.00" fill="grey"> &#45;componentTypes</text>
</g>
<!-- Node3 -->
<g id="Node000003" class="node">
<title>Node3</title>
<g id="a_Node000003"><a xlink:title=" ">
<polygon fill="white" stroke="transparent" points="380,-264.5 177,-264.5 177,-193.5 380,-193.5 380,-264.5"/>
<text text-anchor="start" x="182.5" y="-252" font-family="Helvetica,sans-Serif" font-size="10.00">std::unordered_map</text>
<text text-anchor="start" x="182.5" y="-241" font-family="Helvetica,sans-Serif" font-size="10.00">&lt; std::type_index, std</text>
<text text-anchor="start" x="182.5" y="-230" font-family="Helvetica,sans-Serif" font-size="10.00">::shared_ptr&lt; AComponentStorage &gt; &gt;</text>
<text text-anchor="start" x="221" y="-215" font-family="Helvetica,sans-Serif" font-size="10.00">+</text>
<text text-anchor="start" x="273.5" y="-215" font-family="Helvetica,sans-Serif" font-size="10.00">keys</text>
<text text-anchor="start" x="277" y="-200" font-family="Helvetica,sans-Serif" font-size="10.00"> </text>
<polygon fill="#666666" stroke="#666666" points="177.5,-225 177.5,-225 380.5,-225 380.5,-225 177.5,-225"/>
<polygon fill="#666666" stroke="#666666" points="177.5,-210 177.5,-210 271.5,-210 271.5,-210 177.5,-210"/>
<polygon fill="#666666" stroke="#666666" points="271.5,-210 271.5,-210 380.5,-210 380.5,-210 271.5,-210"/>
<polygon fill="none" stroke="#666666" points="177,-193.5 177,-264.5 380,-264.5 380,-193.5 177,-193.5"/>
</a>
</g>
</g>
<!-- Node3&#45;&gt;Node1 -->
<g id="edge2_Node000001_Node000003" class="edge">
<title>Node3&#45;&gt;Node1</title>
<g id="a_edge2_Node000001_Node000003"><a xlink:title=" ">
<path fill="none" stroke="#63b8ff" d="M247.12,-193.44C235.02,-180.11 220.66,-164.3 206.34,-148.52"/>
<polygon fill="none" stroke="#63b8ff" points="205.99,-148.14 198.99,-146.38 197.92,-139.25 204.92,-141.01 205.99,-148.14"/>
</a>
</g>
<text text-anchor="middle" x="276.5" y="-160" font-family="Helvetica,sans-Serif" font-size="10.00" fill="grey"> &#45;ComponentStorages</text>
</g>
<!-- Node4 -->
<g id="Node000004" class="node">
<title>Node4</title>
<g id="a_Node000004"><a xlink:title=" ">
<polygon fill="white" stroke="transparent" points="357.5,-379 199.5,-379 199.5,-319 357.5,-319 357.5,-379"/>
<text text-anchor="start" x="204.5" y="-367" font-family="Helvetica,sans-Serif" font-size="10.00">std::shared_ptr&lt; AComponent</text>
<text text-anchor="start" x="254" y="-356" font-family="Helvetica,sans-Serif" font-size="10.00">Storage &gt;</text>
<text text-anchor="start" x="276.5" y="-341" font-family="Helvetica,sans-Serif" font-size="10.00"> </text>
<text text-anchor="start" x="222.5" y="-326" font-family="Helvetica,sans-Serif" font-size="10.00">+</text>
<text text-anchor="start" x="254.5" y="-326" font-family="Helvetica,sans-Serif" font-size="10.00">operator&#45;&gt;()</text>
<polygon fill="#666666" stroke="#666666" points="199.5,-351 199.5,-351 357.5,-351 357.5,-351 199.5,-351"/>
<polygon fill="#666666" stroke="#666666" points="199.5,-336 199.5,-336 357.5,-336 357.5,-336 199.5,-336"/>
<polygon fill="none" stroke="#666666" points="199.5,-319 199.5,-379 357.5,-379 357.5,-319 199.5,-319"/>
</a>
</g>
</g>
<!-- Node4&#45;&gt;Node3 -->
<g id="edge3_Node000003_Node000004" class="edge">
<title>Node4&#45;&gt;Node3</title>
<g id="a_edge3_Node000003_Node000004"><a xlink:title=" ">
<path fill="none" stroke="#63b8ff" d="M278.5,-318.83C278.5,-306.16 278.5,-291 278.5,-276.83"/>
<polygon fill="none" stroke="#63b8ff" points="278.5,-276.71 274.5,-270.71 278.5,-264.71 282.5,-270.71 278.5,-276.71"/>
</a>
</g>
<text text-anchor="middle" x="307.5" y="-293" font-family="Helvetica,sans-Serif" font-size="10.00" fill="grey"> +elements</text>
</g>
<!-- Node5 -->
<g id="Node000005" class="node">
<title>Node5</title>
<g id="a_Node000005"><a xlink:href="classAComponentStorage.html" target="_top" xlink:title="Abstract base class for component arrays.">
<polygon fill="white" stroke="transparent" points="347.5,-490 209.5,-490 209.5,-426 347.5,-426 347.5,-490"/>
<text text-anchor="start" x="228" y="-478" font-family="Helvetica,sans-Serif" font-size="10.00">AComponentStorage</text>
<text text-anchor="start" x="276.5" y="-463" font-family="Helvetica,sans-Serif" font-size="10.00"> </text>
<text text-anchor="start" x="213.5" y="-448" font-family="Helvetica,sans-Serif" font-size="10.00">+</text>
<text text-anchor="start" x="226.5" y="-448" font-family="Helvetica,sans-Serif" font-size="10.00">~AComponentStorage()</text>
<text text-anchor="start" x="213.5" y="-433" font-family="Helvetica,sans-Serif" font-size="10.00">+</text>
<text text-anchor="start" x="226.5" y="-433" font-family="Helvetica,sans-Serif" font-size="10.00">entityDestroyed()</text>
<polygon fill="#666666" stroke="#666666" points="209.5,-473 209.5,-473 347.5,-473 347.5,-473 209.5,-473"/>
<polygon fill="#666666" stroke="#666666" points="209.5,-458 209.5,-458 347.5,-458 347.5,-458 209.5,-458"/>
<polygon fill="none" stroke="#666666" points="209.5,-426 209.5,-490 347.5,-490 347.5,-426 209.5,-426"/>
</a>
</g>
</g>
<!-- Node5&#45;&gt;Node4 -->
<g id="edge4_Node000004_Node000005" class="edge">
<title>Node5&#45;&gt;Node4</title>
<g id="a_edge4_Node000004_Node000005"><a xlink:title=" ">
<path fill="none" stroke="#63b8ff" d="M278.5,-425.76C278.5,-414.98 278.5,-402.73 278.5,-391.27"/>
<polygon fill="none" stroke="#63b8ff" points="278.5,-391.26 274.5,-385.26 278.5,-379.26 282.5,-385.26 278.5,-391.26"/>
</a>
</g>
<text text-anchor="middle" x="291" y="-400" font-family="Helvetica,sans-Serif" font-size="10.00" fill="grey"> +ptr</text>
</g>
</g>
</svg>

<g id="navigator" transform="translate(0 0)" fill="#404254">
  <rect fill="#f2f5e9" fill-opacity="0.5" stroke="#606060" stroke-width=".5" x="0" y="0" width="60" height="60"/>
  <use id="zoomplus" xlink:href="#zoomPlus" x="17" y="9" onmousedown="handleZoom(evt,'in')"/>
  <use id="zoomminus" xlink:href="#zoomMin" x="42" y="9" onmousedown="handleZoom(evt,'out')"/>
  <use id="reset" xlink:href="#resetDef" x="30" y="36" onmousedown="handleReset()"/>
   <use id="arrowup" xlink:href="#arrowUp" x="0" y="0" onmousedown="handlePan(0,-1)"/>
  <use id="arrowright" xlink:href="#arrowRight" x="0" y="0" onmousedown="handlePan(1,0)"/>
  <use id="arrowdown" xlink:href="#arrowDown" x="0" y="0" onmousedown="handlePan(0,1)"/>
  <use id="arrowleft" xlink:href="#arrowLeft" x="0" y="0" onmousedown="handlePan(-1,0)"/>
</g>
<svg viewBox="0 0 15 15" width="100%" height="30px" preserveAspectRatio="xMaxYMin meet">
 <g id="arrow_out" transform="scale(0.3 0.3)">
  <a xlink:href="classComponentManager__coll__graph_org.svg" target="_base">
   <rect id="button" ry="5" rx="5" y="6" x="6" height="38" width="38"
        fill="#f2f5e9" fill-opacity="0.5" stroke="#606060" stroke-width="1.0"/>
   <path id="arrow"
     d="M 11.500037,31.436501 C 11.940474,20.09759 22.043105,11.32322 32.158766,21.979434 L 37.068811,17.246167 C 37.068811,17.246167 37.088388,32 37.088388,32 L 22.160133,31.978069 C 22.160133,31.978069 26.997745,27.140456 26.997745,27.140456 C 18.528582,18.264221 13.291696,25.230495 11.500037,31.436501 z"
     style="fill:#404040;"/>
  </a>
 </g>
</svg>

<style type='text/css'>
<![CDATA[
[data-mouse-over-selected='false'] { opacity: 0.7; }
[data-mouse-over-selected='true']  { opacity: 1.0; }
]]>
</style>
<script type="application/ecmascript"><![CDATA[
document.addEventListener('DOMContentLoaded', (event) => {
  highlightEdges();
  highlightAdjacentNodes();
});
]]></script>
</svg>
