<?xml version="1.0" encoding="UTF-8" standalone="no"?>
<!DOCTYPE svg PUBLIC "-//W3C//DTD SVG 1.1//EN"
 "http://www.w3.org/Graphics/SVG/1.1/DTD/svg11.dtd">
<!-- Generated by graphviz version 2.43.0 (0)
 -->
<!-- Title: ComponentManager::removeComponent Pages: 1 -->
<svg width="398pt" height="56pt"
 viewBox="0.00 0.00 398.00 56.00" xmlns="http://www.w3.org/2000/svg" xmlns:xlink="http://www.w3.org/1999/xlink">
<g id="graph0" class="graph" transform="scale(1 1) rotate(0) translate(4 52)">
<title>ComponentManager::removeComponent</title>
<!-- Node1 -->
<g id="Node000001" class="node">
<title>Node1</title>
<g id="a_Node000001"><a xlink:title="Removes a component from an entity.">
<polygon fill="#999999" stroke="#666666" points="159,-30 0,-30 0,0 159,0 159,-30"/>
<text text-anchor="start" x="8" y="-18" font-family="Helvetica,sans-Serif" font-size="10.00">ComponentManager::remove</text>
<text text-anchor="middle" x="79.5" y="-7" font-family="Helvetica,sans-Serif" font-size="10.00">Component</text>
</a>
</g>
</g>
<!-- Node2 -->
<g id="Node000002" class="node">
<title>Node2</title>
<g id="a_Node000002"><a xlink:href="classComponentManager.html#a3298ae9e5eaf1d7f8a207e14d85ac68b" target="_top" xlink:title="Get the Component Storage object.">
<polygon fill="white" stroke="#666666" points="390,-30 195,-30 195,0 390,0 390,-30"/>
<text text-anchor="start" x="203" y="-18" font-family="Helvetica,sans-Serif" font-size="10.00">ComponentManager::GetComponent</text>
<text text-anchor="middle" x="292.5" y="-7" font-family="Helvetica,sans-Serif" font-size="10.00">Storage</text>
</a>
</g>
</g>
<!-- Node1&#45;&gt;Node2 -->
<g id="edge1_Node000001_Node000002" class="edge">
<title>Node1&#45;&gt;Node2</title>
<g id="a_edge1_Node000001_Node000002"><a xlink:title=" ">
<path fill="none" stroke="#63b8ff" d="M159.07,-15C167.41,-15 175.98,-15 184.57,-15"/>
<polygon fill="#63b8ff" stroke="#63b8ff" points="184.65,-18.5 194.65,-15 184.65,-11.5 184.65,-18.5"/>
</a>
</g>
</g>
<!-- Node2&#45;&gt;Node2 -->
<g id="edge2_Node000002_Node000002" class="edge">
<title>Node2&#45;&gt;Node2</title>
<g id="a_edge2_Node000002_Node000002"><a xlink:title=" ">
<path fill="none" stroke="#63b8ff" d="M255.23,-30.28C246.95,-39.41 259.37,-48 292.5,-48 312.17,-48 324.54,-44.97 329.61,-40.6"/>
<polygon fill="#63b8ff" stroke="#63b8ff" points="333.11,-40.33 329.77,-30.28 326.11,-40.22 333.11,-40.33"/>
</a>
</g>
</g>
</g>
</svg>
