<?xml version="1.0" encoding="UTF-8" standalone="no"?>
<!DOCTYPE svg PUBLIC "-//W3C//DTD SVG 1.1//EN"
 "http://www.w3.org/Graphics/SVG/1.1/DTD/svg11.dtd">
<!-- Generated by graphviz version 2.43.0 (0)
 -->
<!-- Title: System::executeWhenPossible Pages: 1 -->
<svg width="333pt" height="101pt"
 viewBox="0.00 0.00 333.00 101.00" xmlns="http://www.w3.org/2000/svg" xmlns:xlink="http://www.w3.org/1999/xlink">
<g id="graph0" class="graph" transform="scale(1 1) rotate(0) translate(4 97)">
<title>System::executeWhenPossible</title>
<!-- Node1 -->
<g id="Node000001" class="node">
<title>Node1</title>
<g id="a_Node000001"><a xlink:title="Execute a task when enough time has accumulated.">
<polygon fill="#999999" stroke="#666666" points="166,-56 0,-56 0,-37 166,-37 166,-56"/>
<text text-anchor="middle" x="83" y="-44" font-family="Helvetica,sans-Serif" font-size="10.00">System::executeWhenPossible</text>
</a>
</g>
</g>
<!-- Node2 -->
<g id="Node000002" class="node">
<title>Node2</title>
<g id="a_Node000002"><a xlink:href="classSystem.html#a4ce97b40c72573661e870324731dee48" target="_top" xlink:title="Accumulate delta time for time&#45;based execution.">
<polygon fill="white" stroke="#666666" points="315.5,-93 211.5,-93 211.5,-74 315.5,-74 315.5,-93"/>
<text text-anchor="middle" x="263.5" y="-81" font-family="Helvetica,sans-Serif" font-size="10.00">System::addDelta</text>
</a>
</g>
</g>
<!-- Node1&#45;&gt;Node2 -->
<g id="edge1_Node000001_Node000002" class="edge">
<title>Node1&#45;&gt;Node2</title>
<g id="a_edge1_Node000001_Node000002"><a xlink:title=" ">
<path fill="none" stroke="#63b8ff" d="M129.97,-56.03C153.3,-60.86 181.84,-66.78 206.45,-71.88"/>
<polygon fill="#63b8ff" stroke="#63b8ff" points="205.88,-75.34 216.38,-73.94 207.3,-68.48 205.88,-75.34"/>
</a>
</g>
</g>
<!-- Node3 -->
<g id="Node000003" class="node">
<title>Node3</title>
<g id="a_Node000003"><a xlink:href="classSystem.html#a4568c6a28a4a3b71495da388c3844a11" target="_top" xlink:title="Check if system has accumulated enough time to execute.">
<polygon fill="white" stroke="#666666" points="321,-56 206,-56 206,-37 321,-37 321,-56"/>
<text text-anchor="middle" x="263.5" y="-44" font-family="Helvetica,sans-Serif" font-size="10.00">System::canExecute</text>
</a>
</g>
</g>
<!-- Node1&#45;&gt;Node3 -->
<g id="edge2_Node000001_Node000003" class="edge">
<title>Node1&#45;&gt;Node3</title>
<g id="a_edge2_Node000001_Node000003"><a xlink:title=" ">
<path fill="none" stroke="#63b8ff" d="M166.2,-46.5C176.07,-46.5 186.07,-46.5 195.69,-46.5"/>
<polygon fill="#63b8ff" stroke="#63b8ff" points="195.96,-50 205.96,-46.5 195.96,-43 195.96,-50"/>
</a>
</g>
</g>
<!-- Node4 -->
<g id="Node000004" class="node">
<title>Node4</title>
<g id="a_Node000004"><a xlink:href="classSystem.html#a9823e9efdd5cab2c64e2e664537bb0cb" target="_top" xlink:title="Get the current execution threshold.">
<polygon fill="white" stroke="#666666" points="325,-19 202,-19 202,0 325,0 325,-19"/>
<text text-anchor="middle" x="263.5" y="-7" font-family="Helvetica,sans-Serif" font-size="10.00">System::getThreshold</text>
</a>
</g>
</g>
<!-- Node1&#45;&gt;Node4 -->
<g id="edge3_Node000001_Node000004" class="edge">
<title>Node1&#45;&gt;Node4</title>
<g id="a_edge3_Node000001_Node000004"><a xlink:title=" ">
<path fill="none" stroke="#63b8ff" d="M129.97,-36.97C153.3,-32.14 181.84,-26.22 206.45,-21.12"/>
<polygon fill="#63b8ff" stroke="#63b8ff" points="207.3,-24.52 216.38,-19.06 205.88,-17.66 207.3,-24.52"/>
</a>
</g>
</g>
</g>
</svg>
