<?xml version="1.0" encoding="UTF-8" standalone="no"?>
<!DOCTYPE svg PUBLIC "-//W3C//DTD SVG 1.1//EN"
 "http://www.w3.org/Graphics/SVG/1.1/DTD/svg11.dtd">
<!-- Generated by graphviz version 2.43.0 (0)
 -->
<!-- Title: ComponentManager Pages: 1 -->
<svg width="388pt" height="498pt"
 viewBox="0.00 0.00 388.00 498.00" xmlns="http://www.w3.org/2000/svg" xmlns:xlink="http://www.w3.org/1999/xlink">
<g id="graph0" class="graph" transform="scale(1 1) rotate(0) translate(4 494)">
<title>ComponentManager</title>
<!-- Node1 -->
<g id="Node000001" class="node">
<title>Node1</title>
<g id="a_Node000001"><a xlink:title="Manages component arrays and types.">
<polygon fill="#999999" stroke="transparent" points="205.5,-139 65.5,-139 65.5,0 205.5,0 205.5,-139"/>
<text text-anchor="start" x="85.5" y="-126.5" font-family="Helvetica,sans-Serif" font-size="10.00">ComponentManager</text>
<text text-anchor="start" x="72" y="-111.5" font-family="Helvetica,sans-Serif" font-size="10.00">&#45;</text>
<text text-anchor="start" x="82.5" y="-111.5" font-family="Helvetica,sans-Serif" font-size="10.00">nextComponentType</text>
<text text-anchor="start" x="69.5" y="-96.5" font-family="Helvetica,sans-Serif" font-size="10.00">+</text>
<text text-anchor="start" x="82.5" y="-96.5" font-family="Helvetica,sans-Serif" font-size="10.00">registerComponent()</text>
<text text-anchor="start" x="69.5" y="-81.5" font-family="Helvetica,sans-Serif" font-size="10.00">+</text>
<text text-anchor="start" x="82.5" y="-81.5" font-family="Helvetica,sans-Serif" font-size="10.00">getComponentTypeID()</text>
<text text-anchor="start" x="69.5" y="-66.5" font-family="Helvetica,sans-Serif" font-size="10.00">+</text>
<text text-anchor="start" x="82.5" y="-66.5" font-family="Helvetica,sans-Serif" font-size="10.00">addComponent()</text>
<text text-anchor="start" x="69.5" y="-51.5" font-family="Helvetica,sans-Serif" font-size="10.00">+</text>
<text text-anchor="start" x="82.5" y="-51.5" font-family="Helvetica,sans-Serif" font-size="10.00">removeComponent()</text>
<text text-anchor="start" x="69.5" y="-36.5" font-family="Helvetica,sans-Serif" font-size="10.00">+</text>
<text text-anchor="start" x="82.5" y="-36.5" font-family="Helvetica,sans-Serif" font-size="10.00">getComponent()</text>
<text text-anchor="start" x="69.5" y="-21.5" font-family="Helvetica,sans-Serif" font-size="10.00">+</text>
<text text-anchor="start" x="82.5" y="-21.5" font-family="Helvetica,sans-Serif" font-size="10.00">entityDestroyed()</text>
<text text-anchor="start" x="72" y="-6.5" font-family="Helvetica,sans-Serif" font-size="10.00">&#45;</text>
<text text-anchor="start" x="82.5" y="-6.5" font-family="Helvetica,sans-Serif" font-size="10.00">GetComponentStorage()</text>
<polygon fill="#666666" stroke="#666666" points="65.5,-121.5 65.5,-121.5 205.5,-121.5 205.5,-121.5 65.5,-121.5"/>
<polygon fill="#666666" stroke="#666666" points="65.5,-106.5 65.5,-106.5 80.5,-106.5 80.5,-106.5 65.5,-106.5"/>
<polygon fill="#666666" stroke="#666666" points="80.5,-106.5 80.5,-106.5 205.5,-106.5 205.5,-106.5 80.5,-106.5"/>
<polygon fill="none" stroke="#666666" points="65.5,0 65.5,-139 205.5,-139 205.5,0 65.5,0"/>
</a>
</g>
</g>
<!-- Node2 -->
<g id="Node000002" class="node">
<title>Node2</title>
<g id="a_Node000002"><a xlink:title=" ">
<polygon fill="white" stroke="transparent" points="159,-272 0,-272 0,-186 159,-186 159,-272"/>
<text text-anchor="start" x="5.5" y="-260" font-family="Helvetica,sans-Serif" font-size="10.00">std::unordered_map</text>
<text text-anchor="start" x="5.5" y="-249" font-family="Helvetica,sans-Serif" font-size="10.00">&lt; std::type_index, Component</text>
<text text-anchor="start" x="57.5" y="-238" font-family="Helvetica,sans-Serif" font-size="10.00">TypeID &gt;</text>
<text text-anchor="start" x="27.5" y="-223" font-family="Helvetica,sans-Serif" font-size="10.00">+</text>
<text text-anchor="start" x="63.5" y="-223" font-family="Helvetica,sans-Serif" font-size="10.00">keys</text>
<text text-anchor="start" x="27.5" y="-208" font-family="Helvetica,sans-Serif" font-size="10.00">+</text>
<text text-anchor="start" x="63.5" y="-208" font-family="Helvetica,sans-Serif" font-size="10.00">elements</text>
<text text-anchor="start" x="78" y="-193" font-family="Helvetica,sans-Serif" font-size="10.00"> </text>
<polygon fill="#666666" stroke="#666666" points="0.5,-233 0.5,-233 159.5,-233 159.5,-233 0.5,-233"/>
<polygon fill="#666666" stroke="#666666" points="0.5,-203 0.5,-203 61.5,-203 61.5,-203 0.5,-203"/>
<polygon fill="#666666" stroke="#666666" points="61.5,-203 61.5,-203 159.5,-203 159.5,-203 61.5,-203"/>
<polygon fill="none" stroke="#666666" points="0,-186 0,-272 159,-272 159,-186 0,-186"/>
</a>
</g>
</g>
<!-- Node2&#45;&gt;Node1 -->
<g id="edge1_Node000001_Node000002" class="edge">
<title>Node2&#45;&gt;Node1</title>
<g id="a_edge1_Node000001_Node000002"><a xlink:title=" ">
<path fill="none" stroke="#63b8ff" d="M94.51,-185.79C98.36,-174.95 102.64,-162.92 106.93,-150.84"/>
<polygon fill="none" stroke="#63b8ff" points="107.02,-150.59 105.26,-143.6 111.04,-139.29 112.8,-146.28 107.02,-150.59"/>
</a>
</g>
<text text-anchor="middle" x="149.5" y="-160" font-family="Helvetica,sans-Serif" font-size="10.00" fill="grey"> &#45;componentTypes</text>
</g>
<!-- Node3 -->
<g id="Node000003" class="node">
<title>Node3</title>
<g id="a_Node000003"><a xlink:title=" ">
<polygon fill="white" stroke="transparent" points="380,-264.5 177,-264.5 177,-193.5 380,-193.5 380,-264.5"/>
<text text-anchor="start" x="182.5" y="-252" font-family="Helvetica,sans-Serif" font-size="10.00">std::unordered_map</text>
<text text-anchor="start" x="182.5" y="-241" font-family="Helvetica,sans-Serif" font-size="10.00">&lt; std::type_index, std</text>
<text text-anchor="start" x="182.5" y="-230" font-family="Helvetica,sans-Serif" font-size="10.00">::shared_ptr&lt; AComponentStorage &gt; &gt;</text>
<text text-anchor="start" x="221" y="-215" font-family="Helvetica,sans-Serif" font-size="10.00">+</text>
<text text-anchor="start" x="273.5" y="-215" font-family="Helvetica,sans-Serif" font-size="10.00">keys</text>
<text text-anchor="start" x="277" y="-200" font-family="Helvetica,sans-Serif" font-size="10.00"> </text>
<polygon fill="#666666" stroke="#666666" points="177.5,-225 177.5,-225 380.5,-225 380.5,-225 177.5,-225"/>
<polygon fill="#666666" stroke="#666666" points="177.5,-210 177.5,-210 271.5,-210 271.5,-210 177.5,-210"/>
<polygon fill="#666666" stroke="#666666" points="271.5,-210 271.5,-210 380.5,-210 380.5,-210 271.5,-210"/>
<polygon fill="none" stroke="#666666" points="177,-193.5 177,-264.5 380,-264.5 380,-193.5 177,-193.5"/>
</a>
</g>
</g>
<!-- Node3&#45;&gt;Node1 -->
<g id="edge2_Node000001_Node000003" class="edge">
<title>Node3&#45;&gt;Node1</title>
<g id="a_edge2_Node000001_Node000003"><a xlink:title=" ">
<path fill="none" stroke="#63b8ff" d="M247.12,-193.44C235.02,-180.11 220.66,-164.3 206.34,-148.52"/>
<polygon fill="none" stroke="#63b8ff" points="205.99,-148.14 198.99,-146.38 197.92,-139.25 204.92,-141.01 205.99,-148.14"/>
</a>
</g>
<text text-anchor="middle" x="276.5" y="-160" font-family="Helvetica,sans-Serif" font-size="10.00" fill="grey"> &#45;ComponentStorages</text>
</g>
<!-- Node4 -->
<g id="Node000004" class="node">
<title>Node4</title>
<g id="a_Node000004"><a xlink:title=" ">
<polygon fill="white" stroke="transparent" points="357.5,-379 199.5,-379 199.5,-319 357.5,-319 357.5,-379"/>
<text text-anchor="start" x="204.5" y="-367" font-family="Helvetica,sans-Serif" font-size="10.00">std::shared_ptr&lt; AComponent</text>
<text text-anchor="start" x="254" y="-356" font-family="Helvetica,sans-Serif" font-size="10.00">Storage &gt;</text>
<text text-anchor="start" x="276.5" y="-341" font-family="Helvetica,sans-Serif" font-size="10.00"> </text>
<text text-anchor="start" x="222.5" y="-326" font-family="Helvetica,sans-Serif" font-size="10.00">+</text>
<text text-anchor="start" x="254.5" y="-326" font-family="Helvetica,sans-Serif" font-size="10.00">operator&#45;&gt;()</text>
<polygon fill="#666666" stroke="#666666" points="199.5,-351 199.5,-351 357.5,-351 357.5,-351 199.5,-351"/>
<polygon fill="#666666" stroke="#666666" points="199.5,-336 199.5,-336 357.5,-336 357.5,-336 199.5,-336"/>
<polygon fill="none" stroke="#666666" points="199.5,-319 199.5,-379 357.5,-379 357.5,-319 199.5,-319"/>
</a>
</g>
</g>
<!-- Node4&#45;&gt;Node3 -->
<g id="edge3_Node000003_Node000004" class="edge">
<title>Node4&#45;&gt;Node3</title>
<g id="a_edge3_Node000003_Node000004"><a xlink:title=" ">
<path fill="none" stroke="#63b8ff" d="M278.5,-318.83C278.5,-306.16 278.5,-291 278.5,-276.83"/>
<polygon fill="none" stroke="#63b8ff" points="278.5,-276.71 274.5,-270.71 278.5,-264.71 282.5,-270.71 278.5,-276.71"/>
</a>
</g>
<text text-anchor="middle" x="307.5" y="-293" font-family="Helvetica,sans-Serif" font-size="10.00" fill="grey"> +elements</text>
</g>
<!-- Node5 -->
<g id="Node000005" class="node">
<title>Node5</title>
<g id="a_Node000005"><a xlink:href="classAComponentStorage.html" target="_top" xlink:title="Abstract base class for component arrays.">
<polygon fill="white" stroke="transparent" points="347.5,-490 209.5,-490 209.5,-426 347.5,-426 347.5,-490"/>
<text text-anchor="start" x="228" y="-478" font-family="Helvetica,sans-Serif" font-size="10.00">AComponentStorage</text>
<text text-anchor="start" x="276.5" y="-463" font-family="Helvetica,sans-Serif" font-size="10.00"> </text>
<text text-anchor="start" x="213.5" y="-448" font-family="Helvetica,sans-Serif" font-size="10.00">+</text>
<text text-anchor="start" x="226.5" y="-448" font-family="Helvetica,sans-Serif" font-size="10.00">~AComponentStorage()</text>
<text text-anchor="start" x="213.5" y="-433" font-family="Helvetica,sans-Serif" font-size="10.00">+</text>
<text text-anchor="start" x="226.5" y="-433" font-family="Helvetica,sans-Serif" font-size="10.00">entityDestroyed()</text>
<polygon fill="#666666" stroke="#666666" points="209.5,-473 209.5,-473 347.5,-473 347.5,-473 209.5,-473"/>
<polygon fill="#666666" stroke="#666666" points="209.5,-458 209.5,-458 347.5,-458 347.5,-458 209.5,-458"/>
<polygon fill="none" stroke="#666666" points="209.5,-426 209.5,-490 347.5,-490 347.5,-426 209.5,-426"/>
</a>
</g>
</g>
<!-- Node5&#45;&gt;Node4 -->
<g id="edge4_Node000004_Node000005" class="edge">
<title>Node5&#45;&gt;Node4</title>
<g id="a_edge4_Node000004_Node000005"><a xlink:title=" ">
<path fill="none" stroke="#63b8ff" d="M278.5,-425.76C278.5,-414.98 278.5,-402.73 278.5,-391.27"/>
<polygon fill="none" stroke="#63b8ff" points="278.5,-391.26 274.5,-385.26 278.5,-379.26 282.5,-385.26 278.5,-391.26"/>
</a>
</g>
<text text-anchor="middle" x="291" y="-400" font-family="Helvetica,sans-Serif" font-size="10.00" fill="grey"> +ptr</text>
</g>
</g>
</svg>
