<?xml version="1.0" encoding="UTF-8" standalone="no"?>
<!DOCTYPE svg PUBLIC "-//W3C//DTD SVG 1.1//EN"
 "http://www.w3.org/Graphics/SVG/1.1/DTD/svg11.dtd">
<!-- Generated by graphviz version 2.43.0 (0)
 -->
<!-- Title: ComponentManager::GetComponentStorage Pages: 1 -->
<svg width="435pt" height="162pt"
 viewBox="0.00 0.00 435.00 161.50" xmlns="http://www.w3.org/2000/svg" xmlns:xlink="http://www.w3.org/1999/xlink">

<svg id="main" version="1.1" xmlns="http://www.w3.org/2000/svg" xmlns:xlink="http://www.w3.org/1999/xlink" xml:space="preserve" onload="init(evt)">
<style type="text/css"><![CDATA[
.node, .edge {opacity: 0.7;}
.node.selected, .edge.selected {opacity: 1;}
.edge:hover path { stroke: red; }
.edge:hover polygon { stroke: red; fill: red; }
]]></style>
<script type="application/ecmascript" xlink:href="svg.min.js"/>
<svg id="graph" class="graph">
<g id="graph0" class="graph" transform="scale(1 1) rotate(0) translate(4 157.5)">
<title>ComponentManager::GetComponentStorage</title>
<!-- Node1 -->
<g id="Node000001" class="node">
<title>Node1</title>
<g id="a_Node000001"><a xlink:title="Get the Component Storage object.">
<polygon fill="#999999" stroke="#666666" points="427,-94 232,-94 232,-64 427,-64 427,-94"/>
<text text-anchor="start" x="240" y="-82" font-family="Helvetica,sans-Serif" font-size="10.00">ComponentManager::GetComponent</text>
<text text-anchor="middle" x="329.5" y="-71" font-family="Helvetica,sans-Serif" font-size="10.00">Storage</text>
</a>
</g>
</g>
<!-- Node1&#45;&gt;Node1 -->
<g id="edge4_Node000001_Node000001" class="edge">
<title>Node1&#45;&gt;Node1</title>
<g id="a_edge4_Node000001_Node000001"><a xlink:title=" ">
<path fill="none" stroke="#63b8ff" d="M369.76,-104.6C364.26,-108.97 350.84,-112 329.5,-112 293.56,-112 280.09,-103.41 289.07,-94.28"/>
<polygon fill="#63b8ff" stroke="#63b8ff" points="373.26,-104.33 369.93,-94.28 366.26,-104.22 373.26,-104.33"/>
</a>
</g>
</g>
<!-- Node2 -->
<g id="Node000002" class="node">
<title>Node2</title>
<g id="a_Node000002"><a xlink:href="classComponentManager.html#afde9df1aea1b03650c3b154e803be0f0" target="_top" xlink:title="Adds a component to an entity.">
<polygon fill="white" stroke="#666666" points="196,-153.5 0,-153.5 0,-134.5 196,-134.5 196,-153.5"/>
<text text-anchor="middle" x="98" y="-141.5" font-family="Helvetica,sans-Serif" font-size="10.00">ComponentManager::addComponent</text>
</a>
</g>
</g>
<!-- Node1&#45;&gt;Node2 -->
<g id="edge1_Node000001_Node000002" class="edge">
<title>Node1&#45;&gt;Node2</title>
<g id="a_edge1_Node000001_Node000002"><a xlink:title=" ">
<path fill="none" stroke="#63b8ff" d="M280.24,-97.59C255.35,-106.71 224.33,-117.35 196,-125 182.75,-128.58 168.3,-131.78 154.71,-134.48"/>
<polygon fill="#63b8ff" stroke="#63b8ff" points="281.65,-100.8 289.82,-94.05 279.22,-94.23 281.65,-100.8"/>
</a>
</g>
</g>
<!-- Node3 -->
<g id="Node000003" class="node">
<title>Node3</title>
<g id="a_Node000003"><a xlink:href="classComponentManager.html#ac9b631d1e3d30866cfcc76cbe3a7ca24" target="_top" xlink:title="Called when an entity is destroyed.">
<polygon fill="white" stroke="#666666" points="173,-116 23,-116 23,-86 173,-86 173,-116"/>
<text text-anchor="start" x="31" y="-104" font-family="Helvetica,sans-Serif" font-size="10.00">ComponentManager::entity</text>
<text text-anchor="middle" x="98" y="-93" font-family="Helvetica,sans-Serif" font-size="10.00">Destroyed</text>
</a>
</g>
</g>
<!-- Node1&#45;&gt;Node3 -->
<g id="edge2_Node000001_Node000003" class="edge">
<title>Node1&#45;&gt;Node3</title>
<g id="a_edge2_Node000001_Node000003"><a xlink:title=" ">
<path fill="none" stroke="#63b8ff" d="M221.68,-89.24C205.3,-90.81 188.7,-92.4 173.23,-93.88"/>
<polygon fill="#63b8ff" stroke="#63b8ff" points="222.22,-92.7 231.84,-88.27 221.55,-85.74 222.22,-92.7"/>
</a>
</g>
</g>
<!-- Node4 -->
<g id="Node000004" class="node">
<title>Node4</title>
<g id="a_Node000004"><a xlink:href="classComponentManager.html#af239b992598a18ce67a51355758da326" target="_top" xlink:title="Gets a component from an entity.">
<polygon fill="white" stroke="#666666" points="195,-67.5 1,-67.5 1,-48.5 195,-48.5 195,-67.5"/>
<text text-anchor="middle" x="98" y="-55.5" font-family="Helvetica,sans-Serif" font-size="10.00">ComponentManager::getComponent</text>
</a>
</g>
</g>
<!-- Node1&#45;&gt;Node4 -->
<g id="edge3_Node000001_Node000004" class="edge">
<title>Node1&#45;&gt;Node4</title>
<g id="a_edge3_Node000001_Node000004"><a xlink:title=" ">
<path fill="none" stroke="#63b8ff" d="M221.84,-69.24C212.95,-68.43 203.99,-67.61 195.18,-66.8"/>
<polygon fill="#63b8ff" stroke="#63b8ff" points="221.56,-72.73 231.84,-70.15 222.2,-65.76 221.56,-72.73"/>
</a>
</g>
</g>
<!-- Node5 -->
<g id="Node000005" class="node">
<title>Node5</title>
<g id="a_Node000005"><a xlink:href="classComponentManager.html#a34bc2408c0ec2610e3368bff45d08228" target="_top" xlink:title="Removes a component from an entity.">
<polygon fill="white" stroke="#666666" points="177.5,-30 18.5,-30 18.5,0 177.5,0 177.5,-30"/>
<text text-anchor="start" x="26.5" y="-18" font-family="Helvetica,sans-Serif" font-size="10.00">ComponentManager::remove</text>
<text text-anchor="middle" x="98" y="-7" font-family="Helvetica,sans-Serif" font-size="10.00">Component</text>
</a>
</g>
</g>
<!-- Node1&#45;&gt;Node5 -->
<g id="edge5_Node000001_Node000005" class="edge">
<title>Node1&#45;&gt;Node5</title>
<g id="a_edge5_Node000001_Node000005"><a xlink:title=" ">
<path fill="none" stroke="#63b8ff" d="M269.04,-61.03C246.24,-54.26 219.96,-46.61 196,-40 183.93,-36.67 170.98,-33.23 158.59,-30.02"/>
<polygon fill="#63b8ff" stroke="#63b8ff" points="268.32,-64.47 278.91,-63.97 270.32,-57.76 268.32,-64.47"/>
</a>
</g>
</g>
</g>
</svg>
</svg>

<style type='text/css'>
<![CDATA[
[data-mouse-over-selected='false'] { opacity: 0.7; }
[data-mouse-over-selected='true']  { opacity: 1.0; }
]]>
</style>
<script type="application/ecmascript"><![CDATA[
document.addEventListener('DOMContentLoaded', (event) => {
  highlightEdges();
  highlightAdjacentNodes();
});
]]></script>
</svg>
