<?xml version="1.0" encoding="UTF-8" standalone="no"?>
<!DOCTYPE svg PUBLIC "-//W3C//DTD SVG 1.1//EN"
 "http://www.w3.org/Graphics/SVG/1.1/DTD/svg11.dtd">
<!-- Generated by graphviz version 2.43.0 (0)
 -->
<!-- Title: includes/ComponentManager.hpp Pages: 1 -->
<svg width="474pt" height="247pt"
 viewBox="0.00 0.00 474.16 247.00" xmlns="http://www.w3.org/2000/svg" xmlns:xlink="http://www.w3.org/1999/xlink">

<svg id="main" version="1.1" xmlns="http://www.w3.org/2000/svg" xmlns:xlink="http://www.w3.org/1999/xlink" xml:space="preserve" onload="init(evt)">
<style type="text/css"><![CDATA[
.node, .edge {opacity: 0.7;}
.node.selected, .edge.selected {opacity: 1;}
.edge:hover path { stroke: red; }
.edge:hover polygon { stroke: red; fill: red; }
]]></style>
<script type="application/ecmascript" xlink:href="svg.min.js"/>
<svg id="graph" class="graph">
<g id="graph0" class="graph" transform="scale(1 1) rotate(0) translate(4 243)">
<title>includes/ComponentManager.hpp</title>
<!-- Node1 -->
<g id="Node000001" class="node">
<title>Node1</title>
<g id="a_Node000001"><a xlink:title=" ">
<polygon fill="#999999" stroke="#666666" points="293.72,-239 114.72,-239 114.72,-220 293.72,-220 293.72,-239"/>
<text text-anchor="middle" x="204.22" y="-227" font-family="Helvetica,sans-Serif" font-size="10.00">includes/ComponentManager.hpp</text>
</a>
</g>
</g>
<!-- Node2 -->
<g id="Node000002" class="node">
<title>Node2</title>
<g id="a_Node000002"><a xlink:title=" ">
<polygon fill="#e0e0e0" stroke="#999999" points="144.72,-129 51.72,-129 51.72,-110 144.72,-110 144.72,-129"/>
<text text-anchor="middle" x="98.22" y="-117" font-family="Helvetica,sans-Serif" font-size="10.00">unordered_map</text>
</a>
</g>
</g>
<!-- Node1&#45;&gt;Node2 -->
<g id="edge1_Node000001_Node000002" class="edge">
<title>Node1&#45;&gt;Node2</title>
<g id="a_edge1_Node000001_Node000002"><a xlink:title=" ">
<path fill="none" stroke="#63b8ff" d="M118.59,-219.98C71.49,-213.33 19.72,-202.1 5.22,-184 -13.22,-160.98 22.39,-143.03 54.74,-132.18"/>
<polygon fill="#63b8ff" stroke="#63b8ff" points="56.14,-135.41 64.61,-129.04 54.02,-128.74 56.14,-135.41"/>
</a>
</g>
</g>
<!-- Node3 -->
<g id="Node000003" class="node">
<title>Node3</title>
<g id="a_Node000003"><a xlink:title=" ">
<polygon fill="#e0e0e0" stroke="#999999" points="79.72,-184 14.72,-184 14.72,-165 79.72,-165 79.72,-184"/>
<text text-anchor="middle" x="47.22" y="-172" font-family="Helvetica,sans-Serif" font-size="10.00">typeindex</text>
</a>
</g>
</g>
<!-- Node1&#45;&gt;Node3 -->
<g id="edge2_Node000001_Node000003" class="edge">
<title>Node1&#45;&gt;Node3</title>
<g id="a_edge2_Node000001_Node000003"><a xlink:title=" ">
<path fill="none" stroke="#63b8ff" d="M179,-219.98C152.87,-211.16 111.83,-197.31 82.49,-187.41"/>
<polygon fill="#63b8ff" stroke="#63b8ff" points="83.24,-183.96 72.65,-184.08 81,-190.6 83.24,-183.96"/>
</a>
</g>
</g>
<!-- Node4 -->
<g id="Node000004" class="node">
<title>Node4</title>
<g id="a_Node000004"><a xlink:title=" ">
<polygon fill="#e0e0e0" stroke="#999999" points="156.22,-184 98.22,-184 98.22,-165 156.22,-165 156.22,-184"/>
<text text-anchor="middle" x="127.22" y="-172" font-family="Helvetica,sans-Serif" font-size="10.00">memory</text>
</a>
</g>
</g>
<!-- Node1&#45;&gt;Node4 -->
<g id="edge3_Node000001_Node000004" class="edge">
<title>Node1&#45;&gt;Node4</title>
<g id="a_edge3_Node000001_Node000004"><a xlink:title=" ">
<path fill="none" stroke="#63b8ff" d="M191.85,-219.98C180.13,-211.92 162.3,-199.65 148.34,-190.03"/>
<polygon fill="#63b8ff" stroke="#63b8ff" points="150.04,-186.96 139.82,-184.17 146.07,-192.72 150.04,-186.96"/>
</a>
</g>
</g>
<!-- Node5 -->
<g id="Node000005" class="node">
<title>Node5</title>
<g id="a_Node000005"><a xlink:title=" ">
<polygon fill="#e0e0e0" stroke="#999999" points="234.22,-184 174.22,-184 174.22,-165 234.22,-165 234.22,-184"/>
<text text-anchor="middle" x="204.22" y="-172" font-family="Helvetica,sans-Serif" font-size="10.00">iostream</text>
</a>
</g>
</g>
<!-- Node1&#45;&gt;Node5 -->
<g id="edge4_Node000001_Node000005" class="edge">
<title>Node1&#45;&gt;Node5</title>
<g id="a_edge4_Node000001_Node000005"><a xlink:title=" ">
<path fill="none" stroke="#63b8ff" d="M204.22,-219.75C204.22,-212.8 204.22,-202.85 204.22,-194.13"/>
<polygon fill="#63b8ff" stroke="#63b8ff" points="207.72,-194.09 204.22,-184.09 200.72,-194.09 207.72,-194.09"/>
</a>
</g>
</g>
<!-- Node6 -->
<g id="Node000006" class="node">
<title>Node6</title>
<g id="a_Node000006"><a xlink:href="AComponentStorage_8hpp.html" target="_top" xlink:title=" ">
<polygon fill="white" stroke="#666666" points="451.22,-129 313.22,-129 313.22,-110 451.22,-110 451.22,-129"/>
<text text-anchor="middle" x="382.22" y="-117" font-family="Helvetica,sans-Serif" font-size="10.00">AComponentStorage.hpp</text>
</a>
</g>
</g>
<!-- Node1&#45;&gt;Node6 -->
<g id="edge5_Node000001_Node000006" class="edge">
<title>Node1&#45;&gt;Node6</title>
<g id="a_edge5_Node000001_Node000006"><a xlink:title=" ">
<path fill="none" stroke="#63b8ff" d="M281.77,-219.99C327.5,-213.2 379.12,-201.81 393.22,-184 403.4,-171.15 398.33,-152.22 392.13,-138.37"/>
<polygon fill="#63b8ff" stroke="#63b8ff" points="395.22,-136.73 387.62,-129.35 388.96,-139.86 395.22,-136.73"/>
</a>
</g>
</g>
<!-- Node7 -->
<g id="Node000007" class="node">
<title>Node7</title>
<g id="a_Node000007"><a xlink:href="Types_8hpp.html" target="_top" xlink:title="Core type definitions for the ECS framework.">
<polygon fill="white" stroke="#666666" points="414.72,-74 349.72,-74 349.72,-55 414.72,-55 414.72,-74"/>
<text text-anchor="middle" x="382.22" y="-62" font-family="Helvetica,sans-Serif" font-size="10.00">Types.hpp</text>
</a>
</g>
</g>
<!-- Node1&#45;&gt;Node7 -->
<g id="edge13_Node000001_Node000007" class="edge">
<title>Node1&#45;&gt;Node7</title>
<g id="a_edge13_Node000001_Node000007"><a xlink:title=" ">
<path fill="none" stroke="#63b8ff" d="M293.74,-221.04C331.29,-214.96 374.27,-203.94 409.22,-184 443.92,-164.21 480.28,-144.54 460.22,-110 451.68,-95.29 436.25,-85.04 421.36,-78.11"/>
<polygon fill="#63b8ff" stroke="#63b8ff" points="422.3,-74.71 411.73,-74.03 419.57,-81.15 422.3,-74.71"/>
</a>
</g>
</g>
<!-- Node10 -->
<g id="Node000010" class="node">
<title>Node10</title>
<g id="a_Node000010"><a xlink:href="ComponentStorage_8hpp.html" target="_top" xlink:title=" ">
<polygon fill="white" stroke="#666666" points="383.72,-184 252.72,-184 252.72,-165 383.72,-165 383.72,-184"/>
<text text-anchor="middle" x="318.22" y="-172" font-family="Helvetica,sans-Serif" font-size="10.00">ComponentStorage.hpp</text>
</a>
</g>
</g>
<!-- Node1&#45;&gt;Node10 -->
<g id="edge9_Node000001_Node000010" class="edge">
<title>Node1&#45;&gt;Node10</title>
<g id="a_edge9_Node000001_Node000010"><a xlink:title=" ">
<path fill="none" stroke="#63b8ff" d="M222.54,-219.98C240.88,-211.46 269.33,-198.23 290.45,-188.41"/>
<polygon fill="#63b8ff" stroke="#63b8ff" points="291.98,-191.56 299.57,-184.17 289.03,-185.21 291.98,-191.56"/>
</a>
</g>
</g>
<!-- Node6&#45;&gt;Node7 -->
<g id="edge6_Node000006_Node000007" class="edge">
<title>Node6&#45;&gt;Node7</title>
<g id="a_edge6_Node000006_Node000007"><a xlink:title=" ">
<path fill="none" stroke="#63b8ff" d="M382.22,-109.75C382.22,-102.8 382.22,-92.85 382.22,-84.13"/>
<polygon fill="#63b8ff" stroke="#63b8ff" points="385.72,-84.09 382.22,-74.09 378.72,-84.09 385.72,-84.09"/>
</a>
</g>
</g>
<!-- Node8 -->
<g id="Node000008" class="node">
<title>Node8</title>
<g id="a_Node000008"><a xlink:title=" ">
<polygon fill="#e0e0e0" stroke="#999999" points="375.22,-19 325.22,-19 325.22,0 375.22,0 375.22,-19"/>
<text text-anchor="middle" x="350.22" y="-7" font-family="Helvetica,sans-Serif" font-size="10.00">cstdint</text>
</a>
</g>
</g>
<!-- Node7&#45;&gt;Node8 -->
<g id="edge7_Node000007_Node000008" class="edge">
<title>Node7&#45;&gt;Node8</title>
<g id="a_edge7_Node000007_Node000008"><a xlink:title=" ">
<path fill="none" stroke="#63b8ff" d="M376.94,-54.75C372.51,-47.42 366.06,-36.73 360.61,-27.7"/>
<polygon fill="#63b8ff" stroke="#63b8ff" points="363.57,-25.84 355.41,-19.09 357.58,-29.46 363.57,-25.84"/>
</a>
</g>
</g>
<!-- Node9 -->
<g id="Node000009" class="node">
<title>Node9</title>
<g id="a_Node000009"><a xlink:title=" ">
<polygon fill="#e0e0e0" stroke="#999999" points="437.22,-19 393.22,-19 393.22,0 437.22,0 437.22,-19"/>
<text text-anchor="middle" x="415.22" y="-7" font-family="Helvetica,sans-Serif" font-size="10.00">bitset</text>
</a>
</g>
</g>
<!-- Node7&#45;&gt;Node9 -->
<g id="edge8_Node000007_Node000009" class="edge">
<title>Node7&#45;&gt;Node9</title>
<g id="a_edge8_Node000007_Node000009"><a xlink:title=" ">
<path fill="none" stroke="#63b8ff" d="M387.67,-54.75C392.24,-47.42 398.89,-36.73 404.52,-27.7"/>
<polygon fill="#63b8ff" stroke="#63b8ff" points="407.56,-29.43 409.88,-19.09 401.62,-25.73 407.56,-29.43"/>
</a>
</g>
</g>
<!-- Node10&#45;&gt;Node2 -->
<g id="edge10_Node000010_Node000002" class="edge">
<title>Node10&#45;&gt;Node2</title>
<g id="a_edge10_Node000010_Node000002"><a xlink:title=" ">
<path fill="none" stroke="#63b8ff" d="M282.88,-164.98C245.06,-155.87 184.96,-141.4 143.66,-131.45"/>
<polygon fill="#63b8ff" stroke="#63b8ff" points="144.39,-128.02 133.85,-129.08 142.75,-134.83 144.39,-128.02"/>
</a>
</g>
</g>
<!-- Node10&#45;&gt;Node6 -->
<g id="edge11_Node000010_Node000006" class="edge">
<title>Node10&#45;&gt;Node6</title>
<g id="a_edge11_Node000010_Node000006"><a xlink:title=" ">
<path fill="none" stroke="#63b8ff" d="M328.51,-164.98C338.06,-157.07 352.5,-145.11 364.01,-135.58"/>
<polygon fill="#63b8ff" stroke="#63b8ff" points="366.28,-138.24 371.75,-129.17 361.82,-132.85 366.28,-138.24"/>
</a>
</g>
</g>
<!-- Node10&#45;&gt;Node7 -->
<g id="edge12_Node000010_Node000007" class="edge">
<title>Node10&#45;&gt;Node7</title>
<g id="a_edge12_Node000010_Node000007"><a xlink:title=" ">
<path fill="none" stroke="#63b8ff" d="M312.56,-164.68C305.08,-151.83 294.02,-127.57 304.22,-110 312.77,-95.29 328.19,-85.04 343.09,-78.11"/>
<polygon fill="#63b8ff" stroke="#63b8ff" points="344.88,-81.15 352.72,-74.03 342.15,-74.71 344.88,-81.15"/>
</a>
</g>
</g>
</g>
</svg>
</svg>

<style type='text/css'>
<![CDATA[
[data-mouse-over-selected='false'] { opacity: 0.7; }
[data-mouse-over-selected='true']  { opacity: 1.0; }
]]>
</style>
<script type="application/ecmascript"><![CDATA[
document.addEventListener('DOMContentLoaded', (event) => {
  highlightEdges();
  highlightAdjacentNodes();
});
]]></script>
</svg>
