<?xml version="1.0" encoding="UTF-8" standalone="no"?>
<!DOCTYPE svg PUBLIC "-//W3C//DTD SVG 1.1//EN"
 "http://www.w3.org/Graphics/SVG/1.1/DTD/svg11.dtd">
<!-- Generated by graphviz version 2.43.0 (0)
 -->
<!-- Title: includes/ComponentStorage.hpp Pages: 1 -->
<svg width="292pt" height="192pt"
 viewBox="0.00 0.00 291.50 192.00" xmlns="http://www.w3.org/2000/svg" xmlns:xlink="http://www.w3.org/1999/xlink">
<g id="graph0" class="graph" transform="scale(1 1) rotate(0) translate(4 188)">
<title>includes/ComponentStorage.hpp</title>
<!-- Node1 -->
<g id="Node000001" class="node">
<title>Node1</title>
<g id="a_Node000001"><a xlink:title=" ">
<polygon fill="#999999" stroke="#666666" points="268,-184 93,-184 93,-165 268,-165 268,-184"/>
<text text-anchor="middle" x="180.5" y="-172" font-family="Helvetica,sans-Serif" font-size="10.00">includes/ComponentStorage.hpp</text>
</a>
</g>
</g>
<!-- Node2 -->
<g id="Node000002" class="node">
<title>Node2</title>
<g id="a_Node000002"><a xlink:title=" ">
<polygon fill="#e0e0e0" stroke="#999999" points="93,-129 0,-129 0,-110 93,-110 93,-129"/>
<text text-anchor="middle" x="46.5" y="-117" font-family="Helvetica,sans-Serif" font-size="10.00">unordered_map</text>
</a>
</g>
</g>
<!-- Node1&#45;&gt;Node2 -->
<g id="edge1_Node000001_Node000002" class="edge">
<title>Node1&#45;&gt;Node2</title>
<g id="a_edge1_Node000001_Node000002"><a xlink:title=" ">
<path fill="none" stroke="#63b8ff" d="M158.97,-164.98C137.03,-156.3 102.76,-142.75 77.81,-132.88"/>
<polygon fill="#63b8ff" stroke="#63b8ff" points="79.01,-129.59 68.42,-129.17 76.43,-136.1 79.01,-129.59"/>
</a>
</g>
</g>
<!-- Node3 -->
<g id="Node000003" class="node">
<title>Node3</title>
<g id="a_Node000003"><a xlink:href="AComponentStorage_8hpp.html" target="_top" xlink:title=" ">
<polygon fill="white" stroke="#666666" points="249.5,-129 111.5,-129 111.5,-110 249.5,-110 249.5,-129"/>
<text text-anchor="middle" x="180.5" y="-117" font-family="Helvetica,sans-Serif" font-size="10.00">AComponentStorage.hpp</text>
</a>
</g>
</g>
<!-- Node1&#45;&gt;Node3 -->
<g id="edge2_Node000001_Node000003" class="edge">
<title>Node1&#45;&gt;Node3</title>
<g id="a_edge2_Node000001_Node000003"><a xlink:title=" ">
<path fill="none" stroke="#63b8ff" d="M180.5,-164.75C180.5,-157.8 180.5,-147.85 180.5,-139.13"/>
<polygon fill="#63b8ff" stroke="#63b8ff" points="184,-139.09 180.5,-129.09 177,-139.09 184,-139.09"/>
</a>
</g>
</g>
<!-- Node4 -->
<g id="Node000004" class="node">
<title>Node4</title>
<g id="a_Node000004"><a xlink:href="Types_8hpp.html" target="_top" xlink:title="Core type definitions for the ECS framework.">
<polygon fill="white" stroke="#666666" points="261,-74 196,-74 196,-55 261,-55 261,-74"/>
<text text-anchor="middle" x="228.5" y="-62" font-family="Helvetica,sans-Serif" font-size="10.00">Types.hpp</text>
</a>
</g>
</g>
<!-- Node1&#45;&gt;Node4 -->
<g id="edge6_Node000001_Node000004" class="edge">
<title>Node1&#45;&gt;Node4</title>
<g id="a_edge6_Node000001_Node000004"><a xlink:title=" ">
<path fill="none" stroke="#63b8ff" d="M210,-164.97C227.44,-158.24 248.09,-146.93 258.5,-129 267.44,-113.6 256.42,-95.11 245.31,-82.07"/>
<polygon fill="#63b8ff" stroke="#63b8ff" points="247.55,-79.34 238.19,-74.37 242.41,-84.09 247.55,-79.34"/>
</a>
</g>
</g>
<!-- Node3&#45;&gt;Node4 -->
<g id="edge3_Node000003_Node000004" class="edge">
<title>Node3&#45;&gt;Node4</title>
<g id="a_edge3_Node000003_Node000004"><a xlink:title=" ">
<path fill="none" stroke="#63b8ff" d="M188.43,-109.75C195.35,-102.11 205.57,-90.82 213.95,-81.56"/>
<polygon fill="#63b8ff" stroke="#63b8ff" points="216.6,-83.85 220.72,-74.09 211.41,-79.15 216.6,-83.85"/>
</a>
</g>
</g>
<!-- Node5 -->
<g id="Node000005" class="node">
<title>Node5</title>
<g id="a_Node000005"><a xlink:title=" ">
<polygon fill="#e0e0e0" stroke="#999999" points="221.5,-19 171.5,-19 171.5,0 221.5,0 221.5,-19"/>
<text text-anchor="middle" x="196.5" y="-7" font-family="Helvetica,sans-Serif" font-size="10.00">cstdint</text>
</a>
</g>
</g>
<!-- Node4&#45;&gt;Node5 -->
<g id="edge4_Node000004_Node000005" class="edge">
<title>Node4&#45;&gt;Node5</title>
<g id="a_edge4_Node000004_Node000005"><a xlink:title=" ">
<path fill="none" stroke="#63b8ff" d="M223.22,-54.75C218.79,-47.42 212.34,-36.73 206.88,-27.7"/>
<polygon fill="#63b8ff" stroke="#63b8ff" points="209.85,-25.84 201.69,-19.09 203.86,-29.46 209.85,-25.84"/>
</a>
</g>
</g>
<!-- Node6 -->
<g id="Node000006" class="node">
<title>Node6</title>
<g id="a_Node000006"><a xlink:title=" ">
<polygon fill="#e0e0e0" stroke="#999999" points="283.5,-19 239.5,-19 239.5,0 283.5,0 283.5,-19"/>
<text text-anchor="middle" x="261.5" y="-7" font-family="Helvetica,sans-Serif" font-size="10.00">bitset</text>
</a>
</g>
</g>
<!-- Node4&#45;&gt;Node6 -->
<g id="edge5_Node000004_Node000006" class="edge">
<title>Node4&#45;&gt;Node6</title>
<g id="a_edge5_Node000004_Node000006"><a xlink:title=" ">
<path fill="none" stroke="#63b8ff" d="M233.95,-54.75C238.51,-47.42 245.17,-36.73 250.79,-27.7"/>
<polygon fill="#63b8ff" stroke="#63b8ff" points="253.84,-29.43 256.15,-19.09 247.9,-25.73 253.84,-29.43"/>
</a>
</g>
</g>
</g>
</svg>
