<?xml version="1.0" encoding="UTF-8" standalone="no"?>
<!DOCTYPE svg PUBLIC "-//W3C//DTD SVG 1.1//EN"
 "http://www.w3.org/Graphics/SVG/1.1/DTD/svg11.dtd">
<!-- Generated by graphviz version 2.43.0 (0)
 -->
<!-- Title: includes/Coordinator.hpp Pages: 1 -->
<svg width="1460pt" height="302pt"
 viewBox="0.00 0.00 1459.88 302.00" xmlns="http://www.w3.org/2000/svg" xmlns:xlink="http://www.w3.org/1999/xlink">
<g id="graph0" class="graph" transform="scale(1 1) rotate(0) translate(4 298)">
<title>includes/Coordinator.hpp</title>
<!-- Node1 -->
<g id="Node000001" class="node">
<title>Node1</title>
<g id="a_Node000001"><a xlink:title="Central coordinator for the Entity Component System.">
<polygon fill="#999999" stroke="#666666" points="479.38,-294 342.38,-294 342.38,-275 479.38,-275 479.38,-294"/>
<text text-anchor="middle" x="410.88" y="-282" font-family="Helvetica,sans-Serif" font-size="10.00">includes/Coordinator.hpp</text>
</a>
</g>
</g>
<!-- Node2 -->
<g id="Node000002" class="node">
<title>Node2</title>
<g id="a_Node000002"><a xlink:title=" ">
<polygon fill="#e0e0e0" stroke="#999999" points="256.88,-129 206.88,-129 206.88,-110 256.88,-110 256.88,-129"/>
<text text-anchor="middle" x="231.88" y="-117" font-family="Helvetica,sans-Serif" font-size="10.00">atomic</text>
</a>
</g>
</g>
<!-- Node1&#45;&gt;Node2 -->
<g id="edge1_Node000001_Node000002" class="edge">
<title>Node1&#45;&gt;Node2</title>
<g id="a_edge1_Node000001_Node000002"><a xlink:title=" ">
<path fill="none" stroke="#63b8ff" d="M346.34,-274.96C303.15,-267.8 251.76,-255.99 237.88,-239 214.73,-210.65 220.83,-164.56 226.72,-139.02"/>
<polygon fill="#63b8ff" stroke="#63b8ff" points="230.16,-139.71 229.23,-129.15 223.38,-137.98 230.16,-139.71"/>
</a>
</g>
</g>
<!-- Node3 -->
<g id="Node000003" class="node">
<title>Node3</title>
<g id="a_Node000003"><a xlink:title=" ">
<polygon fill="#e0e0e0" stroke="#999999" points="64.88,-239 12.88,-239 12.88,-220 64.88,-220 64.88,-239"/>
<text text-anchor="middle" x="38.88" y="-227" font-family="Helvetica,sans-Serif" font-size="10.00">cassert</text>
</a>
</g>
</g>
<!-- Node1&#45;&gt;Node3 -->
<g id="edge2_Node000001_Node000003" class="edge">
<title>Node1&#45;&gt;Node3</title>
<g id="a_edge2_Node000001_Node000003"><a xlink:title=" ">
<path fill="none" stroke="#63b8ff" d="M342.12,-276.6C276.05,-269.47 173.22,-257.1 75.26,-239.08"/>
<polygon fill="#63b8ff" stroke="#63b8ff" points="75.66,-235.6 65.19,-237.21 74.38,-242.48 75.66,-235.6"/>
</a>
</g>
</g>
<!-- Node4 -->
<g id="Node000004" class="node">
<title>Node4</title>
<g id="a_Node000004"><a xlink:title=" ">
<polygon fill="#e0e0e0" stroke="#999999" points="190.38,-239 83.38,-239 83.38,-220 190.38,-220 190.38,-239"/>
<text text-anchor="middle" x="136.88" y="-227" font-family="Helvetica,sans-Serif" font-size="10.00">condition_variable</text>
</a>
</g>
</g>
<!-- Node1&#45;&gt;Node4 -->
<g id="edge3_Node000001_Node000004" class="edge">
<title>Node1&#45;&gt;Node4</title>
<g id="a_edge3_Node000001_Node000004"><a xlink:title=" ">
<path fill="none" stroke="#63b8ff" d="M366.86,-274.98C319.06,-265.74 242.69,-250.97 191.2,-241.01"/>
<polygon fill="#63b8ff" stroke="#63b8ff" points="191.73,-237.54 181.25,-239.08 190.4,-244.42 191.73,-237.54"/>
</a>
</g>
</g>
<!-- Node5 -->
<g id="Node000005" class="node">
<title>Node5</title>
<g id="a_Node000005"><a xlink:title=" ">
<polygon fill="#e0e0e0" stroke="#999999" points="359.38,-129 294.38,-129 294.38,-110 359.38,-110 359.38,-129"/>
<text text-anchor="middle" x="326.88" y="-117" font-family="Helvetica,sans-Serif" font-size="10.00">functional</text>
</a>
</g>
</g>
<!-- Node1&#45;&gt;Node5 -->
<g id="edge4_Node000001_Node000005" class="edge">
<title>Node1&#45;&gt;Node5</title>
<g id="a_edge4_Node000001_Node000005"><a xlink:title=" ">
<path fill="none" stroke="#63b8ff" d="M400.62,-274.91C391.23,-266.57 377.52,-253.14 368.88,-239 349.03,-206.52 336.74,-163.31 330.91,-139.05"/>
<polygon fill="#63b8ff" stroke="#63b8ff" points="334.27,-138.04 328.63,-129.07 327.45,-139.6 334.27,-138.04"/>
</a>
</g>
</g>
<!-- Node6 -->
<g id="Node000006" class="node">
<title>Node6</title>
<g id="a_Node000006"><a xlink:title=" ">
<polygon fill="#e0e0e0" stroke="#999999" points="292.88,-239 246.88,-239 246.88,-220 292.88,-220 292.88,-239"/>
<text text-anchor="middle" x="269.88" y="-227" font-family="Helvetica,sans-Serif" font-size="10.00">future</text>
</a>
</g>
</g>
<!-- Node1&#45;&gt;Node6 -->
<g id="edge5_Node000001_Node000006" class="edge">
<title>Node1&#45;&gt;Node6</title>
<g id="a_edge5_Node000001_Node000006"><a xlink:title=" ">
<path fill="none" stroke="#63b8ff" d="M388.23,-274.98C365.03,-266.27 328.76,-252.63 302.48,-242.75"/>
<polygon fill="#63b8ff" stroke="#63b8ff" points="303.54,-239.41 292.95,-239.17 301.08,-245.97 303.54,-239.41"/>
</a>
</g>
</g>
<!-- Node7 -->
<g id="Node000007" class="node">
<title>Node7</title>
<g id="a_Node000007"><a xlink:title=" ">
<polygon fill="#e0e0e0" stroke="#999999" points="1103.88,-129 1043.88,-129 1043.88,-110 1103.88,-110 1103.88,-129"/>
<text text-anchor="middle" x="1073.88" y="-117" font-family="Helvetica,sans-Serif" font-size="10.00">iostream</text>
</a>
</g>
</g>
<!-- Node1&#45;&gt;Node7 -->
<g id="edge6_Node000001_Node000007" class="edge">
<title>Node1&#45;&gt;Node7</title>
<g id="a_edge6_Node000001_Node000007"><a xlink:title=" ">
<path fill="none" stroke="#63b8ff" d="M479.39,-282.25C607.7,-279.21 879.31,-269.31 967.88,-239 1010.1,-224.55 1024.44,-219.19 1051.88,-184 1062.08,-170.92 1067.74,-152.78 1070.75,-139.24"/>
<polygon fill="#63b8ff" stroke="#63b8ff" points="1074.24,-139.64 1072.7,-129.15 1067.37,-138.31 1074.24,-139.64"/>
</a>
</g>
</g>
<!-- Node8 -->
<g id="Node000008" class="node">
<title>Node8</title>
<g id="a_Node000008"><a xlink:title=" ">
<polygon fill="#e0e0e0" stroke="#999999" points="677.88,-184 619.88,-184 619.88,-165 677.88,-165 677.88,-184"/>
<text text-anchor="middle" x="648.88" y="-172" font-family="Helvetica,sans-Serif" font-size="10.00">memory</text>
</a>
</g>
</g>
<!-- Node1&#45;&gt;Node8 -->
<g id="edge7_Node000001_Node000008" class="edge">
<title>Node1&#45;&gt;Node8</title>
<g id="a_edge7_Node000001_Node000008"><a xlink:title=" ">
<path fill="none" stroke="#63b8ff" d="M400.53,-274.97C386.1,-262.06 363.24,-237.24 377.88,-220 407.1,-185.59 541.38,-177.74 609.3,-175.98"/>
<polygon fill="#63b8ff" stroke="#63b8ff" points="609.69,-179.47 619.61,-175.75 609.53,-172.48 609.69,-179.47"/>
</a>
</g>
</g>
<!-- Node9 -->
<g id="Node000009" class="node">
<title>Node9</title>
<g id="a_Node000009"><a xlink:title=" ">
<polygon fill="#e0e0e0" stroke="#999999" points="434.88,-239 386.88,-239 386.88,-220 434.88,-220 434.88,-239"/>
<text text-anchor="middle" x="410.88" y="-227" font-family="Helvetica,sans-Serif" font-size="10.00">mutex</text>
</a>
</g>
</g>
<!-- Node1&#45;&gt;Node9 -->
<g id="edge8_Node000001_Node000009" class="edge">
<title>Node1&#45;&gt;Node9</title>
<g id="a_edge8_Node000001_Node000009"><a xlink:title=" ">
<path fill="none" stroke="#63b8ff" d="M410.88,-274.75C410.88,-267.8 410.88,-257.85 410.88,-249.13"/>
<polygon fill="#63b8ff" stroke="#63b8ff" points="414.38,-249.09 410.88,-239.09 407.38,-249.09 414.38,-249.09"/>
</a>
</g>
</g>
<!-- Node10 -->
<g id="Node000010" class="node">
<title>Node10</title>
<g id="a_Node000010"><a xlink:title=" ">
<polygon fill="#e0e0e0" stroke="#999999" points="538.88,-239 452.88,-239 452.88,-220 538.88,-220 538.88,-239"/>
<text text-anchor="middle" x="495.88" y="-227" font-family="Helvetica,sans-Serif" font-size="10.00">shared_mutex</text>
</a>
</g>
</g>
<!-- Node1&#45;&gt;Node10 -->
<g id="edge9_Node000001_Node000010" class="edge">
<title>Node1&#45;&gt;Node10</title>
<g id="a_edge9_Node000001_Node000010"><a xlink:title=" ">
<path fill="none" stroke="#63b8ff" d="M424.54,-274.98C437.72,-266.77 457.91,-254.18 473.45,-244.49"/>
<polygon fill="#63b8ff" stroke="#63b8ff" points="475.34,-247.43 481.98,-239.17 471.64,-241.49 475.34,-247.43"/>
</a>
</g>
</g>
<!-- Node11 -->
<g id="Node000011" class="node">
<title>Node11</title>
<g id="a_Node000011"><a xlink:title=" ">
<polygon fill="#e0e0e0" stroke="#999999" points="604.88,-239 556.88,-239 556.88,-220 604.88,-220 604.88,-239"/>
<text text-anchor="middle" x="580.88" y="-227" font-family="Helvetica,sans-Serif" font-size="10.00">thread</text>
</a>
</g>
</g>
<!-- Node1&#45;&gt;Node11 -->
<g id="edge10_Node000001_Node000011" class="edge">
<title>Node1&#45;&gt;Node11</title>
<g id="a_edge10_Node000001_Node000011"><a xlink:title=" ">
<path fill="none" stroke="#63b8ff" d="M438.19,-274.98C467.75,-265.77 514.93,-251.06 546.87,-241.1"/>
<polygon fill="#63b8ff" stroke="#63b8ff" points="548.16,-244.37 556.66,-238.05 546.08,-237.69 548.16,-244.37"/>
</a>
</g>
</g>
<!-- Node12 -->
<g id="Node000012" class="node">
<title>Node12</title>
<g id="a_Node000012"><a xlink:title=" ">
<polygon fill="#e0e0e0" stroke="#999999" points="670.38,-239 623.38,-239 623.38,-220 670.38,-220 670.38,-239"/>
<text text-anchor="middle" x="646.88" y="-227" font-family="Helvetica,sans-Serif" font-size="10.00">vector</text>
</a>
</g>
</g>
<!-- Node1&#45;&gt;Node12 -->
<g id="edge11_Node000001_Node000012" class="edge">
<title>Node1&#45;&gt;Node12</title>
<g id="a_edge11_Node000001_Node000012"><a xlink:title=" ">
<path fill="none" stroke="#63b8ff" d="M451.81,-274.98C490.79,-266.77 551.36,-253.75 613.18,-239.1"/>
<polygon fill="#63b8ff" stroke="#63b8ff" points="614.2,-242.45 623.11,-236.73 612.58,-235.64 614.2,-242.45"/>
</a>
</g>
</g>
<!-- Node13 -->
<g id="Node000013" class="node">
<title>Node13</title>
<g id="a_Node000013"><a xlink:href="ComponentManager_8hpp.html" target="_top" xlink:title=" ">
<polygon fill="white" stroke="#666666" points="958.88,-239 822.88,-239 822.88,-220 958.88,-220 958.88,-239"/>
<text text-anchor="middle" x="890.88" y="-227" font-family="Helvetica,sans-Serif" font-size="10.00">ComponentManager.hpp</text>
</a>
</g>
</g>
<!-- Node1&#45;&gt;Node13 -->
<g id="edge12_Node000001_Node000013" class="edge">
<title>Node1&#45;&gt;Node13</title>
<g id="a_edge12_Node000001_Node000013"><a xlink:title=" ">
<path fill="none" stroke="#63b8ff" d="M479.4,-275.93C567.41,-266.22 719.81,-249.39 812.39,-239.17"/>
<polygon fill="#63b8ff" stroke="#63b8ff" points="812.99,-242.62 822.55,-238.05 812.22,-235.66 812.99,-242.62"/>
</a>
</g>
</g>
<!-- Node17 -->
<g id="Node000017" class="node">
<title>Node17</title>
<g id="a_Node000017"><a xlink:href="Types_8hpp.html" target="_top" xlink:title="Core type definitions for the ECS framework.">
<polygon fill="white" stroke="#666666" points="902.38,-74 837.38,-74 837.38,-55 902.38,-55 902.38,-74"/>
<text text-anchor="middle" x="869.88" y="-62" font-family="Helvetica,sans-Serif" font-size="10.00">Types.hpp</text>
</a>
</g>
</g>
<!-- Node1&#45;&gt;Node17 -->
<g id="edge46_Node000001_Node000017" class="edge">
<title>Node1&#45;&gt;Node17</title>
<g id="a_edge46_Node000001_Node000017"><a xlink:title=" ">
<path fill="none" stroke="#63b8ff" d="M342.07,-280.9C231.9,-276.02 26.01,-263.68 3.88,-239 -1.76,-232.71 -0.37,-227.3 3.88,-220 53.77,-134.35 102.93,-138.43 197.88,-110 316.36,-74.52 697.93,-67.29 826.86,-65.85"/>
<polygon fill="#63b8ff" stroke="#63b8ff" points="827.16,-69.35 837.12,-65.74 827.08,-62.35 827.16,-69.35"/>
</a>
</g>
</g>
<!-- Node21 -->
<g id="Node000021" class="node">
<title>Node21</title>
<g id="a_Node000021"><a xlink:href="EntityManager_8hpp.html" target="_top" xlink:title=" ">
<polygon fill="white" stroke="#666666" points="1251.88,-184 1143.88,-184 1143.88,-165 1251.88,-165 1251.88,-184"/>
<text text-anchor="middle" x="1197.88" y="-172" font-family="Helvetica,sans-Serif" font-size="10.00">EntityManager.hpp</text>
</a>
</g>
</g>
<!-- Node1&#45;&gt;Node21 -->
<g id="edge26_Node000001_Node000021" class="edge">
<title>Node1&#45;&gt;Node21</title>
<g id="a_edge26_Node000001_Node000021"><a xlink:title=" ">
<path fill="none" stroke="#63b8ff" d="M479.42,-283.73C631.26,-283.51 991.59,-278.67 1105.88,-239 1135.5,-228.72 1164.38,-206.12 1181.65,-190.85"/>
<polygon fill="#63b8ff" stroke="#63b8ff" points="1184.11,-193.35 1189.15,-184.03 1179.4,-188.17 1184.11,-193.35"/>
</a>
</g>
</g>
<!-- Node26 -->
<g id="Node000026" class="node">
<title>Node26</title>
<g id="a_Node000026"><a xlink:href="SystemManager_8hpp.html" target="_top" xlink:title="Manages registration and retrieval of systems in the ECS framework.">
<polygon fill="white" stroke="#666666" points="804.88,-239 688.88,-239 688.88,-220 804.88,-220 804.88,-239"/>
<text text-anchor="middle" x="746.88" y="-227" font-family="Helvetica,sans-Serif" font-size="10.00">SystemManager.hpp</text>
</a>
</g>
</g>
<!-- Node1&#45;&gt;Node26 -->
<g id="edge34_Node000001_Node000026" class="edge">
<title>Node1&#45;&gt;Node26</title>
<g id="a_edge34_Node000001_Node000026"><a xlink:title=" ">
<path fill="none" stroke="#63b8ff" d="M464.87,-274.98C524.17,-265.63 619.37,-250.61 682.52,-240.65"/>
<polygon fill="#63b8ff" stroke="#63b8ff" points="683.42,-244.05 692.75,-239.04 682.33,-237.14 683.42,-244.05"/>
</a>
</g>
</g>
<!-- Node13&#45;&gt;Node7 -->
<g id="edge16_Node000013_Node000007" class="edge">
<title>Node13&#45;&gt;Node7</title>
<g id="a_edge16_Node000013_Node000007"><a xlink:title=" ">
<path fill="none" stroke="#63b8ff" d="M944.17,-219.96C971.77,-213.54 1004.83,-202.55 1029.88,-184 1045.84,-172.18 1058.06,-152.79 1065.52,-138.54"/>
<polygon fill="#63b8ff" stroke="#63b8ff" points="1068.82,-139.78 1070.1,-129.26 1062.54,-136.68 1068.82,-139.78"/>
</a>
</g>
</g>
<!-- Node13&#45;&gt;Node8 -->
<g id="edge15_Node000013_Node000008" class="edge">
<title>Node13&#45;&gt;Node8</title>
<g id="a_edge15_Node000013_Node000008"><a xlink:title=" ">
<path fill="none" stroke="#63b8ff" d="M852,-219.98C807,-210.13 733.32,-193.99 688.16,-184.1"/>
<polygon fill="#63b8ff" stroke="#63b8ff" points="688.67,-180.63 678.15,-181.91 687.17,-187.47 688.67,-180.63"/>
</a>
</g>
</g>
<!-- Node14 -->
<g id="Node000014" class="node">
<title>Node14</title>
<g id="a_Node000014"><a xlink:title=" ">
<polygon fill="#e0e0e0" stroke="#999999" points="793.38,-129 700.38,-129 700.38,-110 793.38,-110 793.38,-129"/>
<text text-anchor="middle" x="746.88" y="-117" font-family="Helvetica,sans-Serif" font-size="10.00">unordered_map</text>
</a>
</g>
</g>
<!-- Node13&#45;&gt;Node14 -->
<g id="edge13_Node000013_Node000014" class="edge">
<title>Node13&#45;&gt;Node14</title>
<g id="a_edge13_Node000013_Node000014"><a xlink:title=" ">
<path fill="none" stroke="#63b8ff" d="M871.62,-219.86C854.59,-211.78 829.49,-198.78 809.88,-184 791.19,-169.91 772.67,-150.4 760.6,-136.74"/>
<polygon fill="#63b8ff" stroke="#63b8ff" points="763.16,-134.35 753.97,-129.09 757.87,-138.94 763.16,-134.35"/>
</a>
</g>
</g>
<!-- Node15 -->
<g id="Node000015" class="node">
<title>Node15</title>
<g id="a_Node000015"><a xlink:title=" ">
<polygon fill="#e0e0e0" stroke="#999999" points="761.38,-184 696.38,-184 696.38,-165 761.38,-165 761.38,-184"/>
<text text-anchor="middle" x="728.88" y="-172" font-family="Helvetica,sans-Serif" font-size="10.00">typeindex</text>
</a>
</g>
</g>
<!-- Node13&#45;&gt;Node15 -->
<g id="edge14_Node000013_Node000015" class="edge">
<title>Node13&#45;&gt;Node15</title>
<g id="a_edge14_Node000013_Node000015"><a xlink:title=" ">
<path fill="none" stroke="#63b8ff" d="M864.85,-219.98C837.77,-211.13 795.17,-197.19 764.88,-187.28"/>
<polygon fill="#63b8ff" stroke="#63b8ff" points="765.71,-183.87 755.11,-184.08 763.53,-190.52 765.71,-183.87"/>
</a>
</g>
</g>
<!-- Node16 -->
<g id="Node000016" class="node">
<title>Node16</title>
<g id="a_Node000016"><a xlink:href="AComponentStorage_8hpp.html" target="_top" xlink:title=" ">
<polygon fill="white" stroke="#666666" points="987.88,-129 849.88,-129 849.88,-110 987.88,-110 987.88,-129"/>
<text text-anchor="middle" x="918.88" y="-117" font-family="Helvetica,sans-Serif" font-size="10.00">AComponentStorage.hpp</text>
</a>
</g>
</g>
<!-- Node13&#45;&gt;Node16 -->
<g id="edge17_Node000013_Node000016" class="edge">
<title>Node13&#45;&gt;Node16</title>
<g id="a_edge17_Node000013_Node000016"><a xlink:title=" ">
<path fill="none" stroke="#63b8ff" d="M914.66,-219.92C930.31,-212.89 949.55,-201.25 958.88,-184 968.05,-167.04 953.26,-148.47 939.14,-135.82"/>
<polygon fill="#63b8ff" stroke="#63b8ff" points="941.01,-132.83 931.09,-129.11 936.53,-138.2 941.01,-132.83"/>
</a>
</g>
</g>
<!-- Node13&#45;&gt;Node17 -->
<g id="edge25_Node000013_Node000017" class="edge">
<title>Node13&#45;&gt;Node17</title>
<g id="a_edge25_Node000013_Node000017"><a xlink:title=" ">
<path fill="none" stroke="#63b8ff" d="M916.7,-219.96C934.78,-212.83 958.38,-201.07 973.88,-184 997.04,-158.51 1016.81,-138.09 996.88,-110 977.98,-83.35 941.84,-72.54 912.93,-68.21"/>
<polygon fill="#63b8ff" stroke="#63b8ff" points="913.01,-64.69 902.65,-66.89 912.12,-71.64 913.01,-64.69"/>
</a>
</g>
</g>
<!-- Node20 -->
<g id="Node000020" class="node">
<title>Node20</title>
<g id="a_Node000020"><a xlink:href="ComponentStorage_8hpp.html" target="_top" xlink:title=" ">
<polygon fill="white" stroke="#666666" points="949.38,-184 818.38,-184 818.38,-165 949.38,-165 949.38,-184"/>
<text text-anchor="middle" x="883.88" y="-172" font-family="Helvetica,sans-Serif" font-size="10.00">ComponentStorage.hpp</text>
</a>
</g>
</g>
<!-- Node13&#45;&gt;Node20 -->
<g id="edge21_Node000013_Node000020" class="edge">
<title>Node13&#45;&gt;Node20</title>
<g id="a_edge21_Node000013_Node000020"><a xlink:title=" ">
<path fill="none" stroke="#63b8ff" d="M889.73,-219.75C888.81,-212.8 887.49,-202.85 886.34,-194.13"/>
<polygon fill="#63b8ff" stroke="#63b8ff" points="889.8,-193.54 885.02,-184.09 882.86,-194.46 889.8,-193.54"/>
</a>
</g>
</g>
<!-- Node16&#45;&gt;Node17 -->
<g id="edge18_Node000016_Node000017" class="edge">
<title>Node16&#45;&gt;Node17</title>
<g id="a_edge18_Node000016_Node000017"><a xlink:title=" ">
<path fill="none" stroke="#63b8ff" d="M910.79,-109.75C903.73,-102.11 893.29,-90.82 884.73,-81.56"/>
<polygon fill="#63b8ff" stroke="#63b8ff" points="887.18,-79.06 877.82,-74.09 882.04,-83.81 887.18,-79.06"/>
</a>
</g>
</g>
<!-- Node18 -->
<g id="Node000018" class="node">
<title>Node18</title>
<g id="a_Node000018"><a xlink:title=" ">
<polygon fill="#e0e0e0" stroke="#999999" points="894.88,-19 844.88,-19 844.88,0 894.88,0 894.88,-19"/>
<text text-anchor="middle" x="869.88" y="-7" font-family="Helvetica,sans-Serif" font-size="10.00">cstdint</text>
</a>
</g>
</g>
<!-- Node17&#45;&gt;Node18 -->
<g id="edge19_Node000017_Node000018" class="edge">
<title>Node17&#45;&gt;Node18</title>
<g id="a_edge19_Node000017_Node000018"><a xlink:title=" ">
<path fill="none" stroke="#63b8ff" d="M869.88,-54.75C869.88,-47.8 869.88,-37.85 869.88,-29.13"/>
<polygon fill="#63b8ff" stroke="#63b8ff" points="873.38,-29.09 869.88,-19.09 866.38,-29.09 873.38,-29.09"/>
</a>
</g>
</g>
<!-- Node19 -->
<g id="Node000019" class="node">
<title>Node19</title>
<g id="a_Node000019"><a xlink:title=" ">
<polygon fill="#e0e0e0" stroke="#999999" points="1074.88,-19 1030.88,-19 1030.88,0 1074.88,0 1074.88,-19"/>
<text text-anchor="middle" x="1052.88" y="-7" font-family="Helvetica,sans-Serif" font-size="10.00">bitset</text>
</a>
</g>
</g>
<!-- Node17&#45;&gt;Node19 -->
<g id="edge20_Node000017_Node000019" class="edge">
<title>Node17&#45;&gt;Node19</title>
<g id="a_edge20_Node000017_Node000019"><a xlink:title=" ">
<path fill="none" stroke="#63b8ff" d="M899.28,-54.98C932.52,-45.36 986.46,-29.74 1020.77,-19.8"/>
<polygon fill="#63b8ff" stroke="#63b8ff" points="1022.11,-23.05 1030.75,-16.91 1020.17,-16.33 1022.11,-23.05"/>
</a>
</g>
</g>
<!-- Node20&#45;&gt;Node14 -->
<g id="edge22_Node000020_Node000014" class="edge">
<title>Node20&#45;&gt;Node14</title>
<g id="a_edge22_Node000020_Node000014"><a xlink:title=" ">
<path fill="none" stroke="#63b8ff" d="M861.87,-164.98C839.43,-156.3 804.4,-142.75 778.89,-132.88"/>
<polygon fill="#63b8ff" stroke="#63b8ff" points="779.88,-129.51 769.29,-129.17 777.36,-136.04 779.88,-129.51"/>
</a>
</g>
</g>
<!-- Node20&#45;&gt;Node16 -->
<g id="edge23_Node000020_Node000016" class="edge">
<title>Node20&#45;&gt;Node16</title>
<g id="a_edge23_Node000020_Node000016"><a xlink:title=" ">
<path fill="none" stroke="#63b8ff" d="M889.66,-164.75C894.5,-157.42 901.56,-146.73 907.53,-137.7"/>
<polygon fill="#63b8ff" stroke="#63b8ff" points="910.62,-139.36 913.21,-129.09 904.78,-135.5 910.62,-139.36"/>
</a>
</g>
</g>
<!-- Node20&#45;&gt;Node17 -->
<g id="edge24_Node000020_Node000017" class="edge">
<title>Node20&#45;&gt;Node17</title>
<g id="a_edge24_Node000020_Node000017"><a xlink:title=" ">
<path fill="none" stroke="#63b8ff" d="M871.39,-164.93C861.01,-156.99 847,-144.14 840.88,-129 834.31,-112.75 844.42,-94.59 854.46,-81.87"/>
<polygon fill="#63b8ff" stroke="#63b8ff" points="857.34,-83.89 861.19,-74.02 852.03,-79.33 857.34,-83.89"/>
</a>
</g>
</g>
<!-- Node21&#45;&gt;Node7 -->
<g id="edge32_Node000021_Node000007" class="edge">
<title>Node21&#45;&gt;Node7</title>
<g id="a_edge32_Node000021_Node000007"><a xlink:title=" ">
<path fill="none" stroke="#63b8ff" d="M1177.96,-164.98C1157.83,-156.38 1126.5,-142.99 1103.47,-133.15"/>
<polygon fill="#63b8ff" stroke="#63b8ff" points="1104.74,-129.88 1094.17,-129.17 1101.99,-136.32 1104.74,-129.88"/>
</a>
</g>
</g>
<!-- Node21&#45;&gt;Node17 -->
<g id="edge31_Node000021_Node000017" class="edge">
<title>Node21&#45;&gt;Node17</title>
<g id="a_edge31_Node000021_Node000017"><a xlink:title=" ">
<path fill="none" stroke="#63b8ff" d="M1189.33,-164.93C1174.93,-151.01 1144.28,-123.7 1112.88,-110 1046.82,-81.18 962.78,-71.02 912.83,-67.44"/>
<polygon fill="#63b8ff" stroke="#63b8ff" points="912.91,-63.94 902.71,-66.78 912.45,-70.93 912.91,-63.94"/>
</a>
</g>
</g>
<!-- Node21&#45;&gt;Node19 -->
<g id="edge29_Node000021_Node000019" class="edge">
<title>Node21&#45;&gt;Node19</title>
<g id="a_edge29_Node000021_Node000019"><a xlink:title=" ">
<path fill="none" stroke="#63b8ff" d="M1190.47,-164.82C1179.96,-152.55 1160.09,-129.44 1142.88,-110 1116.67,-80.39 1085.65,-46.3 1067.72,-26.69"/>
<polygon fill="#63b8ff" stroke="#63b8ff" points="1070.22,-24.24 1060.89,-19.23 1065.06,-28.97 1070.22,-24.24"/>
</a>
</g>
</g>
<!-- Node22 -->
<g id="Node000022" class="node">
<title>Node22</title>
<g id="a_Node000022"><a xlink:title=" ">
<polygon fill="#e0e0e0" stroke="#999999" points="1245.38,-129 1198.38,-129 1198.38,-110 1245.38,-110 1245.38,-129"/>
<text text-anchor="middle" x="1221.88" y="-117" font-family="Helvetica,sans-Serif" font-size="10.00">queue</text>
</a>
</g>
</g>
<!-- Node21&#45;&gt;Node22 -->
<g id="edge27_Node000021_Node000022" class="edge">
<title>Node21&#45;&gt;Node22</title>
<g id="a_edge27_Node000021_Node000022"><a xlink:title=" ">
<path fill="none" stroke="#63b8ff" d="M1201.84,-164.75C1205.09,-157.57 1209.8,-147.18 1213.84,-138.27"/>
<polygon fill="#63b8ff" stroke="#63b8ff" points="1217.06,-139.64 1217.99,-129.09 1210.68,-136.75 1217.06,-139.64"/>
</a>
</g>
</g>
<!-- Node23 -->
<g id="Node000023" class="node">
<title>Node23</title>
<g id="a_Node000023"><a xlink:title=" ">
<polygon fill="#e0e0e0" stroke="#999999" points="1305.88,-129 1263.88,-129 1263.88,-110 1305.88,-110 1305.88,-129"/>
<text text-anchor="middle" x="1284.88" y="-117" font-family="Helvetica,sans-Serif" font-size="10.00">array</text>
</a>
</g>
</g>
<!-- Node21&#45;&gt;Node23 -->
<g id="edge28_Node000021_Node000023" class="edge">
<title>Node21&#45;&gt;Node23</title>
<g id="a_edge28_Node000021_Node000023"><a xlink:title=" ">
<path fill="none" stroke="#63b8ff" d="M1211.86,-164.98C1225.35,-156.77 1246.02,-144.18 1261.92,-134.49"/>
<polygon fill="#63b8ff" stroke="#63b8ff" points="1263.93,-137.36 1270.65,-129.17 1260.29,-131.38 1263.93,-137.36"/>
</a>
</g>
</g>
<!-- Node24 -->
<g id="Node000024" class="node">
<title>Node24</title>
<g id="a_Node000024"><a xlink:title=" ">
<polygon fill="#e0e0e0" stroke="#999999" points="1389.38,-129 1324.38,-129 1324.38,-110 1389.38,-110 1389.38,-129"/>
<text text-anchor="middle" x="1356.88" y="-117" font-family="Helvetica,sans-Serif" font-size="10.00">stdexcept</text>
</a>
</g>
</g>
<!-- Node21&#45;&gt;Node24 -->
<g id="edge30_Node000021_Node000024" class="edge">
<title>Node21&#45;&gt;Node24</title>
<g id="a_edge30_Node000021_Node000024"><a xlink:title=" ">
<path fill="none" stroke="#63b8ff" d="M1223.43,-164.98C1250.01,-156.13 1291.82,-142.19 1321.55,-132.28"/>
<polygon fill="#63b8ff" stroke="#63b8ff" points="1322.75,-135.56 1331.14,-129.08 1320.54,-128.92 1322.75,-135.56"/>
</a>
</g>
</g>
<!-- Node25 -->
<g id="Node000025" class="node">
<title>Node25</title>
<g id="a_Node000025"><a xlink:title=" ">
<polygon fill="#e0e0e0" stroke="#999999" points="1451.88,-129 1407.88,-129 1407.88,-110 1451.88,-110 1451.88,-129"/>
<text text-anchor="middle" x="1429.88" y="-117" font-family="Helvetica,sans-Serif" font-size="10.00">string</text>
</a>
</g>
</g>
<!-- Node21&#45;&gt;Node25 -->
<g id="edge33_Node000021_Node000025" class="edge">
<title>Node21&#45;&gt;Node25</title>
<g id="a_edge33_Node000021_Node000025"><a xlink:title=" ">
<path fill="none" stroke="#63b8ff" d="M1239.21,-164.98C1277.8,-156.88 1337.21,-144.06 1397.49,-129.25"/>
<polygon fill="#63b8ff" stroke="#63b8ff" points="1398.7,-132.56 1407.56,-126.76 1397.02,-125.76 1398.7,-132.56"/>
</a>
</g>
</g>
<!-- Node26&#45;&gt;Node8 -->
<g id="edge37_Node000026_Node000008" class="edge">
<title>Node26&#45;&gt;Node8</title>
<g id="a_edge37_Node000026_Node000008"><a xlink:title=" ">
<path fill="none" stroke="#63b8ff" d="M731.14,-219.98C715.65,-211.61 691.79,-198.7 673.74,-188.95"/>
<polygon fill="#63b8ff" stroke="#63b8ff" points="675.37,-185.85 664.91,-184.17 672.04,-192.01 675.37,-185.85"/>
</a>
</g>
</g>
<!-- Node26&#45;&gt;Node14 -->
<g id="edge35_Node000026_Node000014" class="edge">
<title>Node26&#45;&gt;Node14</title>
<g id="a_edge35_Node000026_Node000014"><a xlink:title=" ">
<path fill="none" stroke="#63b8ff" d="M702.92,-219.92C667.53,-212.02 621.93,-199.24 610.88,-184 586.96,-151.01 643.01,-134.63 690.26,-126.88"/>
<polygon fill="#63b8ff" stroke="#63b8ff" points="690.82,-130.33 700.17,-125.35 689.76,-123.41 690.82,-130.33"/>
</a>
</g>
</g>
<!-- Node26&#45;&gt;Node15 -->
<g id="edge36_Node000026_Node000015" class="edge">
<title>Node26&#45;&gt;Node15</title>
<g id="a_edge36_Node000026_Node000015"><a xlink:title=" ">
<path fill="none" stroke="#63b8ff" d="M743.91,-219.75C741.52,-212.72 738.09,-202.62 735.11,-193.84"/>
<polygon fill="#63b8ff" stroke="#63b8ff" points="738.33,-192.43 731.8,-184.09 731.7,-194.68 738.33,-192.43"/>
</a>
</g>
</g>
<!-- Node26&#45;&gt;Node17 -->
<g id="edge45_Node000026_Node000017" class="edge">
<title>Node26&#45;&gt;Node17</title>
<g id="a_edge45_Node000026_Node000017"><a xlink:title=" ">
<path fill="none" stroke="#63b8ff" d="M697.84,-219.99C660.16,-212.34 612.63,-199.86 600.88,-184 595.86,-177.21 596.73,-172.36 600.88,-165 645.49,-85.92 763.03,-69.01 826.97,-65.83"/>
<polygon fill="#63b8ff" stroke="#63b8ff" points="827.28,-69.32 837.13,-65.42 827,-62.33 827.28,-69.32"/>
</a>
</g>
</g>
<!-- Node27 -->
<g id="Node000027" class="node">
<title>Node27</title>
<g id="a_Node000027"><a xlink:href="System_8hpp.html" target="_top" xlink:title="Defines the base System class for the ECS framework.">
<polygon fill="white" stroke="#666666" points="480.88,-184 406.88,-184 406.88,-165 480.88,-165 480.88,-184"/>
<text text-anchor="middle" x="443.88" y="-172" font-family="Helvetica,sans-Serif" font-size="10.00">System.hpp</text>
</a>
</g>
</g>
<!-- Node26&#45;&gt;Node27 -->
<g id="edge38_Node000026_Node000027" class="edge">
<title>Node26&#45;&gt;Node27</title>
<g id="a_edge38_Node000026_Node000027"><a xlink:title=" ">
<path fill="none" stroke="#63b8ff" d="M698.2,-219.98C641.19,-210.01 547.4,-193.61 491.05,-183.75"/>
<polygon fill="#63b8ff" stroke="#63b8ff" points="491.44,-180.27 480.98,-181.99 490.23,-187.16 491.44,-180.27"/>
</a>
</g>
</g>
<!-- Node27&#45;&gt;Node2 -->
<g id="edge40_Node000027_Node000002" class="edge">
<title>Node27&#45;&gt;Node2</title>
<g id="a_edge40_Node000027_Node000002"><a xlink:title=" ">
<path fill="none" stroke="#63b8ff" d="M409.82,-164.98C370.52,-155.16 306.24,-139.09 266.64,-129.19"/>
<polygon fill="#63b8ff" stroke="#63b8ff" points="267.45,-125.78 256.9,-126.75 265.75,-132.57 267.45,-125.78"/>
</a>
</g>
</g>
<!-- Node27&#45;&gt;Node5 -->
<g id="edge42_Node000027_Node000005" class="edge">
<title>Node27&#45;&gt;Node5</title>
<g id="a_edge42_Node000027_Node000005"><a xlink:title=" ">
<path fill="none" stroke="#63b8ff" d="M425.08,-164.98C406.26,-156.46 377.06,-143.23 355.39,-133.41"/>
<polygon fill="#63b8ff" stroke="#63b8ff" points="356.57,-130.11 346.02,-129.17 353.69,-136.48 356.57,-130.11"/>
</a>
</g>
</g>
<!-- Node27&#45;&gt;Node7 -->
<g id="edge43_Node000027_Node000007" class="edge">
<title>Node27&#45;&gt;Node7</title>
<g id="a_edge43_Node000027_Node000007"><a xlink:title=" ">
<path fill="none" stroke="#63b8ff" d="M481.13,-170.89C570.29,-164.54 802.96,-147.5 996.88,-129 1008.79,-127.86 1021.72,-126.49 1033.52,-125.18"/>
<polygon fill="#63b8ff" stroke="#63b8ff" points="1034,-128.65 1043.55,-124.06 1033.22,-121.7 1034,-128.65"/>
</a>
</g>
</g>
<!-- Node27&#45;&gt;Node17 -->
<g id="edge39_Node000027_Node000017" class="edge">
<title>Node27&#45;&gt;Node17</title>
<g id="a_edge39_Node000027_Node000017"><a xlink:title=" ">
<path fill="none" stroke="#63b8ff" d="M435.19,-164.66C423.15,-151.33 404.4,-125.98 418.88,-110 446.01,-80.06 719.97,-69.52 827.18,-66.52"/>
<polygon fill="#63b8ff" stroke="#63b8ff" points="827.42,-70.01 837.32,-66.24 827.23,-63.02 827.42,-70.01"/>
</a>
</g>
</g>
<!-- Node28 -->
<g id="Node000028" class="node">
<title>Node28</title>
<g id="a_Node000028"><a xlink:title=" ">
<polygon fill="#e0e0e0" stroke="#999999" points="525.38,-129 478.38,-129 478.38,-110 525.38,-110 525.38,-129"/>
<text text-anchor="middle" x="501.88" y="-117" font-family="Helvetica,sans-Serif" font-size="10.00">cmath</text>
</a>
</g>
</g>
<!-- Node27&#45;&gt;Node28 -->
<g id="edge41_Node000027_Node000028" class="edge">
<title>Node27&#45;&gt;Node28</title>
<g id="a_edge41_Node000027_Node000028"><a xlink:title=" ">
<path fill="none" stroke="#63b8ff" d="M453.2,-164.98C461.69,-157.23 474.44,-145.58 484.76,-136.14"/>
<polygon fill="#63b8ff" stroke="#63b8ff" points="487.37,-138.5 492.39,-129.17 482.65,-133.33 487.37,-138.5"/>
</a>
</g>
</g>
<!-- Node29 -->
<g id="Node000029" class="node">
<title>Node29</title>
<g id="a_Node000029"><a xlink:title=" ">
<polygon fill="#e0e0e0" stroke="#999999" points="459.88,-129 427.88,-129 427.88,-110 459.88,-110 459.88,-129"/>
<text text-anchor="middle" x="443.88" y="-117" font-family="Helvetica,sans-Serif" font-size="10.00">set</text>
</a>
</g>
</g>
<!-- Node27&#45;&gt;Node29 -->
<g id="edge44_Node000027_Node000029" class="edge">
<title>Node27&#45;&gt;Node29</title>
<g id="a_edge44_Node000027_Node000029"><a xlink:title=" ">
<path fill="none" stroke="#63b8ff" d="M443.88,-164.75C443.88,-157.8 443.88,-147.85 443.88,-139.13"/>
<polygon fill="#63b8ff" stroke="#63b8ff" points="447.38,-139.09 443.88,-129.09 440.38,-139.09 447.38,-139.09"/>
</a>
</g>
</g>
</g>
</svg>
