<?xml version="1.0" encoding="UTF-8" standalone="no"?>
<!DOCTYPE svg PUBLIC "-//W3C//DTD SVG 1.1//EN"
 "http://www.w3.org/Graphics/SVG/1.1/DTD/svg11.dtd">
<!-- Generated by graphviz version 2.43.0 (0)
 -->
<!-- Title: includes/ECS.hpp Pages: 1 -->
<svg width="1743pt" height="357pt"
 viewBox="0.00 0.00 1742.50 357.00" xmlns="http://www.w3.org/2000/svg" xmlns:xlink="http://www.w3.org/1999/xlink">
<g id="graph0" class="graph" transform="scale(1 1) rotate(0) translate(4 353)">
<title>includes/ECS.hpp</title>
<!-- Node1 -->
<g id="Node000001" class="node">
<title>Node1</title>
<g id="a_Node000001"><a xlink:title=" ">
<polygon fill="#999999" stroke="#666666" points="562,-349 462,-349 462,-330 562,-330 562,-349"/>
<text text-anchor="middle" x="512" y="-337" font-family="Helvetica,sans-Serif" font-size="10.00">includes/ECS.hpp</text>
</a>
</g>
</g>
<!-- Node2 -->
<g id="Node000002" class="node">
<title>Node2</title>
<g id="a_Node000002"><a xlink:href="Types_8hpp.html" target="_top" xlink:title="Core type definitions for the ECS framework.">
<polygon fill="white" stroke="#666666" points="574.5,-74 509.5,-74 509.5,-55 574.5,-55 574.5,-74"/>
<text text-anchor="middle" x="542" y="-62" font-family="Helvetica,sans-Serif" font-size="10.00">Types.hpp</text>
</a>
</g>
</g>
<!-- Node1&#45;&gt;Node2 -->
<g id="edge1_Node000001_Node000002" class="edge">
<title>Node1&#45;&gt;Node2</title>
<g id="a_edge1_Node000001_Node000002"><a xlink:title=" ">
<path fill="none" stroke="#63b8ff" d="M461.98,-338.47C333.14,-337.05 0,-324.3 0,-230.5 0,-230.5 0,-230.5 0,-173.5 0,-71.89 370.98,-64.49 499.1,-64.96"/>
<polygon fill="#63b8ff" stroke="#63b8ff" points="499.3,-68.46 509.32,-65.02 499.34,-61.46 499.3,-68.46"/>
</a>
</g>
</g>
<!-- Node5 -->
<g id="Node000005" class="node">
<title>Node5</title>
<g id="a_Node000005"><a xlink:href="EntityManager_8hpp.html" target="_top" xlink:title=" ">
<polygon fill="white" stroke="#666666" points="317,-184 209,-184 209,-165 317,-165 317,-184"/>
<text text-anchor="middle" x="263" y="-172" font-family="Helvetica,sans-Serif" font-size="10.00">EntityManager.hpp</text>
</a>
</g>
</g>
<!-- Node1&#45;&gt;Node5 -->
<g id="edge4_Node000001_Node000005" class="edge">
<title>Node1&#45;&gt;Node5</title>
<g id="a_edge4_Node000001_Node000005"><a xlink:title=" ">
<path fill="none" stroke="#63b8ff" d="M461.75,-330.21C432.4,-323.69 395.63,-312.52 367,-294 325.22,-266.98 290.34,-218.58 273.62,-192.79"/>
<polygon fill="#63b8ff" stroke="#63b8ff" points="276.43,-190.69 268.13,-184.11 270.52,-194.43 276.43,-190.69"/>
</a>
</g>
</g>
<!-- Node11 -->
<g id="Node000011" class="node">
<title>Node11</title>
<g id="a_Node000011"><a xlink:href="AComponentStorage_8hpp.html" target="_top" xlink:title=" ">
<polygon fill="white" stroke="#666666" points="514,-129 376,-129 376,-110 514,-110 514,-129"/>
<text text-anchor="middle" x="445" y="-117" font-family="Helvetica,sans-Serif" font-size="10.00">AComponentStorage.hpp</text>
</a>
</g>
</g>
<!-- Node1&#45;&gt;Node11 -->
<g id="edge12_Node000001_Node000011" class="edge">
<title>Node1&#45;&gt;Node11</title>
<g id="a_edge12_Node000001_Node000011"><a xlink:title=" ">
<path fill="none" stroke="#63b8ff" d="M505.16,-329.77C488.01,-307.24 443.42,-244.66 428,-184 424.05,-168.47 429.55,-150.86 435.32,-138.14"/>
<polygon fill="#63b8ff" stroke="#63b8ff" points="438.49,-139.62 439.83,-129.11 432.23,-136.49 438.49,-139.62"/>
</a>
</g>
</g>
<!-- Node12 -->
<g id="Node000012" class="node">
<title>Node12</title>
<g id="a_Node000012"><a xlink:href="ComponentStorage_8hpp.html" target="_top" xlink:title=" ">
<polygon fill="white" stroke="#666666" points="578.5,-184 447.5,-184 447.5,-165 578.5,-165 578.5,-184"/>
<text text-anchor="middle" x="513" y="-172" font-family="Helvetica,sans-Serif" font-size="10.00">ComponentStorage.hpp</text>
</a>
</g>
</g>
<!-- Node1&#45;&gt;Node12 -->
<g id="edge14_Node000001_Node000012" class="edge">
<title>Node1&#45;&gt;Node12</title>
<g id="a_edge14_Node000001_Node000012"><a xlink:title=" ">
<path fill="none" stroke="#63b8ff" d="M512.05,-329.74C512.21,-304.31 512.67,-230.08 512.88,-194.69"/>
<polygon fill="#63b8ff" stroke="#63b8ff" points="516.38,-194.33 512.95,-184.31 509.38,-194.29 516.38,-194.33"/>
</a>
</g>
</g>
<!-- Node14 -->
<g id="Node000014" class="node">
<title>Node14</title>
<g id="a_Node000014"><a xlink:href="ComponentManager_8hpp.html" target="_top" xlink:title=" ">
<polygon fill="white" stroke="#666666" points="714,-239 578,-239 578,-220 714,-220 714,-239"/>
<text text-anchor="middle" x="646" y="-227" font-family="Helvetica,sans-Serif" font-size="10.00">ComponentManager.hpp</text>
</a>
</g>
</g>
<!-- Node1&#45;&gt;Node14 -->
<g id="edge18_Node000001_Node000014" class="edge">
<title>Node1&#45;&gt;Node14</title>
<g id="a_edge18_Node000001_Node000014"><a xlink:title=" ">
<path fill="none" stroke="#63b8ff" d="M522.97,-329.66C545.85,-311.22 598.92,-268.45 627.3,-245.57"/>
<polygon fill="#63b8ff" stroke="#63b8ff" points="629.67,-248.16 635.26,-239.16 625.27,-242.71 629.67,-248.16"/>
</a>
</g>
</g>
<!-- Node17 -->
<g id="Node000017" class="node">
<title>Node17</title>
<g id="a_Node000017"><a xlink:href="SystemManager_8hpp.html" target="_top" xlink:title="Manages registration and retrieval of systems in the ECS framework.">
<polygon fill="white" stroke="#666666" points="968,-239 852,-239 852,-220 968,-220 968,-239"/>
<text text-anchor="middle" x="910" y="-227" font-family="Helvetica,sans-Serif" font-size="10.00">SystemManager.hpp</text>
</a>
</g>
</g>
<!-- Node1&#45;&gt;Node17 -->
<g id="edge26_Node000001_Node000017" class="edge">
<title>Node1&#45;&gt;Node17</title>
<g id="a_edge26_Node000001_Node000017"><a xlink:title=" ">
<path fill="none" stroke="#63b8ff" d="M543.56,-329.94C614.97,-310.56 788.9,-263.36 868.72,-241.7"/>
<polygon fill="#63b8ff" stroke="#63b8ff" points="869.7,-245.06 878.43,-239.07 867.87,-238.31 869.7,-245.06"/>
</a>
</g>
</g>
<!-- Node23 -->
<g id="Node000023" class="node">
<title>Node23</title>
<g id="a_Node000023"><a xlink:href="Coordinator_8hpp.html" target="_top" xlink:title="Central coordinator for the Entity Component System.">
<polygon fill="white" stroke="#666666" points="1191,-294 1097,-294 1097,-275 1191,-275 1191,-294"/>
<text text-anchor="middle" x="1144" y="-282" font-family="Helvetica,sans-Serif" font-size="10.00">Coordinator.hpp</text>
</a>
</g>
</g>
<!-- Node1&#45;&gt;Node23 -->
<g id="edge38_Node000001_Node000023" class="edge">
<title>Node1&#45;&gt;Node23</title>
<g id="a_edge38_Node000001_Node000023"><a xlink:title=" ">
<path fill="none" stroke="#63b8ff" d="M562.12,-334.3C678.01,-324.58 963.93,-300.6 1086.6,-290.31"/>
<polygon fill="#63b8ff" stroke="#63b8ff" points="1087.23,-293.77 1096.9,-289.45 1086.64,-286.8 1087.23,-293.77"/>
</a>
</g>
</g>
<!-- Node3 -->
<g id="Node000003" class="node">
<title>Node3</title>
<g id="a_Node000003"><a xlink:title=" ">
<polygon fill="#e0e0e0" stroke="#999999" points="567,-19 517,-19 517,0 567,0 567,-19"/>
<text text-anchor="middle" x="542" y="-7" font-family="Helvetica,sans-Serif" font-size="10.00">cstdint</text>
</a>
</g>
</g>
<!-- Node2&#45;&gt;Node3 -->
<g id="edge2_Node000002_Node000003" class="edge">
<title>Node2&#45;&gt;Node3</title>
<g id="a_edge2_Node000002_Node000003"><a xlink:title=" ">
<path fill="none" stroke="#63b8ff" d="M542,-54.75C542,-47.8 542,-37.85 542,-29.13"/>
<polygon fill="#63b8ff" stroke="#63b8ff" points="545.5,-29.09 542,-19.09 538.5,-29.09 545.5,-29.09"/>
</a>
</g>
</g>
<!-- Node4 -->
<g id="Node000004" class="node">
<title>Node4</title>
<g id="a_Node000004"><a xlink:title=" ">
<polygon fill="#e0e0e0" stroke="#999999" points="280,-19 236,-19 236,0 280,0 280,-19"/>
<text text-anchor="middle" x="258" y="-7" font-family="Helvetica,sans-Serif" font-size="10.00">bitset</text>
</a>
</g>
</g>
<!-- Node2&#45;&gt;Node4 -->
<g id="edge3_Node000002_Node000004" class="edge">
<title>Node2&#45;&gt;Node4</title>
<g id="a_edge3_Node000002_Node000004"><a xlink:title=" ">
<path fill="none" stroke="#63b8ff" d="M509.42,-57.42C454.65,-47.2 344.76,-26.69 290.23,-16.51"/>
<polygon fill="#63b8ff" stroke="#63b8ff" points="290.56,-13.02 280.09,-14.62 289.28,-19.9 290.56,-13.02"/>
</a>
</g>
</g>
<!-- Node5&#45;&gt;Node2 -->
<g id="edge9_Node000005_Node000002" class="edge">
<title>Node5&#45;&gt;Node2</title>
<g id="a_edge9_Node000005_Node000002"><a xlink:title=" ">
<path fill="none" stroke="#63b8ff" d="M208.98,-170.32C147.22,-164.76 59,-149.76 95,-110 121.85,-80.35 392.77,-69.64 499.3,-66.56"/>
<polygon fill="#63b8ff" stroke="#63b8ff" points="499.49,-70.06 509.38,-66.28 499.29,-63.06 499.49,-70.06"/>
</a>
</g>
</g>
<!-- Node5&#45;&gt;Node4 -->
<g id="edge7_Node000005_Node000004" class="edge">
<title>Node5&#45;&gt;Node4</title>
<g id="a_edge7_Node000005_Node000004"><a xlink:title=" ">
<path fill="none" stroke="#63b8ff" d="M208.69,-167.42C161.53,-160.89 98.43,-148.71 83,-129 38.85,-72.6 163.78,-33.31 225.61,-17.83"/>
<polygon fill="#63b8ff" stroke="#63b8ff" points="226.77,-21.15 235.66,-15.39 225.12,-14.35 226.77,-21.15"/>
</a>
</g>
</g>
<!-- Node6 -->
<g id="Node000006" class="node">
<title>Node6</title>
<g id="a_Node000006"><a xlink:title=" ">
<polygon fill="#e0e0e0" stroke="#999999" points="151.5,-129 104.5,-129 104.5,-110 151.5,-110 151.5,-129"/>
<text text-anchor="middle" x="128" y="-117" font-family="Helvetica,sans-Serif" font-size="10.00">queue</text>
</a>
</g>
</g>
<!-- Node5&#45;&gt;Node6 -->
<g id="edge5_Node000005_Node000006" class="edge">
<title>Node5&#45;&gt;Node6</title>
<g id="a_edge5_Node000005_Node000006"><a xlink:title=" ">
<path fill="none" stroke="#63b8ff" d="M241.31,-164.98C219.2,-156.3 184.68,-142.75 159.55,-132.88"/>
<polygon fill="#63b8ff" stroke="#63b8ff" points="160.67,-129.57 150.08,-129.17 158.11,-136.08 160.67,-129.57"/>
</a>
</g>
</g>
<!-- Node7 -->
<g id="Node000007" class="node">
<title>Node7</title>
<g id="a_Node000007"><a xlink:title=" ">
<polygon fill="#e0e0e0" stroke="#999999" points="212,-129 170,-129 170,-110 212,-110 212,-129"/>
<text text-anchor="middle" x="191" y="-117" font-family="Helvetica,sans-Serif" font-size="10.00">array</text>
</a>
</g>
</g>
<!-- Node5&#45;&gt;Node7 -->
<g id="edge6_Node000005_Node000007" class="edge">
<title>Node5&#45;&gt;Node7</title>
<g id="a_edge6_Node000005_Node000007"><a xlink:title=" ">
<path fill="none" stroke="#63b8ff" d="M251.43,-164.98C240.58,-157 224.12,-144.88 211.12,-135.31"/>
<polygon fill="#63b8ff" stroke="#63b8ff" points="212.91,-132.28 202.78,-129.17 208.76,-137.92 212.91,-132.28"/>
</a>
</g>
</g>
<!-- Node8 -->
<g id="Node000008" class="node">
<title>Node8</title>
<g id="a_Node000008"><a xlink:title=" ">
<polygon fill="#e0e0e0" stroke="#999999" points="295.5,-129 230.5,-129 230.5,-110 295.5,-110 295.5,-129"/>
<text text-anchor="middle" x="263" y="-117" font-family="Helvetica,sans-Serif" font-size="10.00">stdexcept</text>
</a>
</g>
</g>
<!-- Node5&#45;&gt;Node8 -->
<g id="edge8_Node000005_Node000008" class="edge">
<title>Node5&#45;&gt;Node8</title>
<g id="a_edge8_Node000005_Node000008"><a xlink:title=" ">
<path fill="none" stroke="#63b8ff" d="M263,-164.75C263,-157.8 263,-147.85 263,-139.13"/>
<polygon fill="#63b8ff" stroke="#63b8ff" points="266.5,-139.09 263,-129.09 259.5,-139.09 266.5,-139.09"/>
</a>
</g>
</g>
<!-- Node9 -->
<g id="Node000009" class="node">
<title>Node9</title>
<g id="a_Node000009"><a xlink:title=" ">
<polygon fill="#e0e0e0" stroke="#999999" points="742,-129 682,-129 682,-110 742,-110 742,-129"/>
<text text-anchor="middle" x="712" y="-117" font-family="Helvetica,sans-Serif" font-size="10.00">iostream</text>
</a>
</g>
</g>
<!-- Node5&#45;&gt;Node9 -->
<g id="edge10_Node000005_Node000009" class="edge">
<title>Node5&#45;&gt;Node9</title>
<g id="a_edge10_Node000005_Node000009"><a xlink:title=" ">
<path fill="none" stroke="#63b8ff" d="M317.3,-169.46C394.11,-163.33 539.03,-150.28 671.88,-129.02"/>
<polygon fill="#63b8ff" stroke="#63b8ff" points="672.52,-132.46 681.83,-127.41 671.4,-125.55 672.52,-132.46"/>
</a>
</g>
</g>
<!-- Node10 -->
<g id="Node000010" class="node">
<title>Node10</title>
<g id="a_Node000010"><a xlink:title=" ">
<polygon fill="#e0e0e0" stroke="#999999" points="358,-129 314,-129 314,-110 358,-110 358,-129"/>
<text text-anchor="middle" x="336" y="-117" font-family="Helvetica,sans-Serif" font-size="10.00">string</text>
</a>
</g>
</g>
<!-- Node5&#45;&gt;Node10 -->
<g id="edge11_Node000005_Node000010" class="edge">
<title>Node5&#45;&gt;Node10</title>
<g id="a_edge11_Node000005_Node000010"><a xlink:title=" ">
<path fill="none" stroke="#63b8ff" d="M274.73,-164.98C285.73,-157 302.42,-144.88 315.6,-135.31"/>
<polygon fill="#63b8ff" stroke="#63b8ff" points="318.02,-137.88 324.06,-129.17 313.91,-132.21 318.02,-137.88"/>
</a>
</g>
</g>
<!-- Node11&#45;&gt;Node2 -->
<g id="edge13_Node000011_Node000002" class="edge">
<title>Node11&#45;&gt;Node2</title>
<g id="a_edge13_Node000011_Node000002"><a xlink:title=" ">
<path fill="none" stroke="#63b8ff" d="M460.58,-109.98C475.77,-101.69 499.1,-88.94 516.9,-79.22"/>
<polygon fill="#63b8ff" stroke="#63b8ff" points="519.03,-82.04 526.13,-74.17 515.68,-75.89 519.03,-82.04"/>
</a>
</g>
</g>
<!-- Node12&#45;&gt;Node2 -->
<g id="edge17_Node000012_Node000002" class="edge">
<title>Node12&#45;&gt;Node2</title>
<g id="a_edge17_Node000012_Node000002"><a xlink:title=" ">
<path fill="none" stroke="#63b8ff" d="M515.37,-164.66C520.09,-147.09 530.74,-107.45 537.04,-83.95"/>
<polygon fill="#63b8ff" stroke="#63b8ff" points="540.46,-84.72 539.68,-74.16 533.7,-82.91 540.46,-84.72"/>
</a>
</g>
</g>
<!-- Node12&#45;&gt;Node11 -->
<g id="edge16_Node000012_Node000011" class="edge">
<title>Node12&#45;&gt;Node11</title>
<g id="a_edge16_Node000012_Node000011"><a xlink:title=" ">
<path fill="none" stroke="#63b8ff" d="M502.07,-164.98C491.92,-157.07 476.58,-145.11 464.35,-135.58"/>
<polygon fill="#63b8ff" stroke="#63b8ff" points="466.16,-132.56 456.12,-129.17 461.86,-138.08 466.16,-132.56"/>
</a>
</g>
</g>
<!-- Node13 -->
<g id="Node000013" class="node">
<title>Node13</title>
<g id="a_Node000013"><a xlink:title=" ">
<polygon fill="#e0e0e0" stroke="#999999" points="663.5,-129 570.5,-129 570.5,-110 663.5,-110 663.5,-129"/>
<text text-anchor="middle" x="617" y="-117" font-family="Helvetica,sans-Serif" font-size="10.00">unordered_map</text>
</a>
</g>
</g>
<!-- Node12&#45;&gt;Node13 -->
<g id="edge15_Node000012_Node000013" class="edge">
<title>Node12&#45;&gt;Node13</title>
<g id="a_edge15_Node000012_Node000013"><a xlink:title=" ">
<path fill="none" stroke="#63b8ff" d="M529.71,-164.98C546.21,-156.57 571.7,-143.59 590.88,-133.81"/>
<polygon fill="#63b8ff" stroke="#63b8ff" points="592.67,-136.83 599.99,-129.17 589.49,-130.59 592.67,-136.83"/>
</a>
</g>
</g>
<!-- Node14&#45;&gt;Node2 -->
<g id="edge25_Node000014_Node000002" class="edge">
<title>Node14&#45;&gt;Node2</title>
<g id="a_edge25_Node000014_Node000002"><a xlink:title=" ">
<path fill="none" stroke="#63b8ff" d="M652.89,-219.79C663.14,-207.09 683.33,-183.01 703,-165 722.67,-146.99 739.07,-152.85 751,-129 754.78,-121.45 756.31,-116.56 751,-110 730.5,-84.67 639.71,-73.15 584.76,-68.41"/>
<polygon fill="#63b8ff" stroke="#63b8ff" points="584.86,-64.91 574.61,-67.58 584.29,-71.89 584.86,-64.91"/>
</a>
</g>
</g>
<!-- Node14&#45;&gt;Node9 -->
<g id="edge22_Node000014_Node000009" class="edge">
<title>Node14&#45;&gt;Node9</title>
<g id="a_edge22_Node000014_Node000009"><a xlink:title=" ">
<path fill="none" stroke="#63b8ff" d="M647.92,-219.77C651,-207.02 657.83,-182.91 669,-165 675.72,-154.23 685.41,-143.91 693.88,-135.93"/>
<polygon fill="#63b8ff" stroke="#63b8ff" points="696.42,-138.35 701.5,-129.06 691.73,-133.16 696.42,-138.35"/>
</a>
</g>
</g>
<!-- Node14&#45;&gt;Node11 -->
<g id="edge23_Node000014_Node000011" class="edge">
<title>Node14&#45;&gt;Node11</title>
<g id="a_edge23_Node000014_Node000011"><a xlink:title=" ">
<path fill="none" stroke="#63b8ff" d="M588.95,-219.97C531.01,-210.73 448.49,-195.74 439,-184 428.91,-171.51 432.18,-152.79 436.91,-138.91"/>
<polygon fill="#63b8ff" stroke="#63b8ff" points="440.23,-140.01 440.61,-129.42 433.71,-137.46 440.23,-140.01"/>
</a>
</g>
</g>
<!-- Node14&#45;&gt;Node12 -->
<g id="edge24_Node000014_Node000012" class="edge">
<title>Node14&#45;&gt;Node12</title>
<g id="a_edge24_Node000014_Node000012"><a xlink:title=" ">
<path fill="none" stroke="#63b8ff" d="M624.63,-219.98C602.85,-211.3 568.84,-197.75 544.08,-187.88"/>
<polygon fill="#63b8ff" stroke="#63b8ff" points="545.34,-184.62 534.76,-184.17 542.75,-191.12 545.34,-184.62"/>
</a>
</g>
</g>
<!-- Node14&#45;&gt;Node13 -->
<g id="edge19_Node000014_Node000013" class="edge">
<title>Node14&#45;&gt;Node13</title>
<g id="a_edge19_Node000014_Node000013"><a xlink:title=" ">
<path fill="none" stroke="#63b8ff" d="M642.73,-219.72C639.48,-210.81 634.49,-196.57 631,-184 626.84,-169.03 623.1,-151.79 620.54,-139.06"/>
<polygon fill="#63b8ff" stroke="#63b8ff" points="623.97,-138.34 618.61,-129.2 617.1,-139.69 623.97,-138.34"/>
</a>
</g>
</g>
<!-- Node15 -->
<g id="Node000015" class="node">
<title>Node15</title>
<g id="a_Node000015"><a xlink:title=" ">
<polygon fill="#e0e0e0" stroke="#999999" points="776.5,-184 711.5,-184 711.5,-165 776.5,-165 776.5,-184"/>
<text text-anchor="middle" x="744" y="-172" font-family="Helvetica,sans-Serif" font-size="10.00">typeindex</text>
</a>
</g>
</g>
<!-- Node14&#45;&gt;Node15 -->
<g id="edge20_Node000014_Node000015" class="edge">
<title>Node14&#45;&gt;Node15</title>
<g id="a_edge20_Node000014_Node000015"><a xlink:title=" ">
<path fill="none" stroke="#63b8ff" d="M661.75,-219.98C677.23,-211.61 701.09,-198.7 719.14,-188.95"/>
<polygon fill="#63b8ff" stroke="#63b8ff" points="720.84,-192.01 727.97,-184.17 717.51,-185.85 720.84,-192.01"/>
</a>
</g>
</g>
<!-- Node16 -->
<g id="Node000016" class="node">
<title>Node16</title>
<g id="a_Node000016"><a xlink:title=" ">
<polygon fill="#e0e0e0" stroke="#999999" points="853,-184 795,-184 795,-165 853,-165 853,-184"/>
<text text-anchor="middle" x="824" y="-172" font-family="Helvetica,sans-Serif" font-size="10.00">memory</text>
</a>
</g>
</g>
<!-- Node14&#45;&gt;Node16 -->
<g id="edge21_Node000014_Node000016" class="edge">
<title>Node14&#45;&gt;Node16</title>
<g id="a_edge21_Node000014_Node000016"><a xlink:title=" ">
<path fill="none" stroke="#63b8ff" d="M674.6,-219.98C704.61,-211.05 751.98,-196.94 785.32,-187.02"/>
<polygon fill="#63b8ff" stroke="#63b8ff" points="786.59,-190.29 795.18,-184.08 784.59,-183.58 786.59,-190.29"/>
</a>
</g>
</g>
<!-- Node17&#45;&gt;Node2 -->
<g id="edge37_Node000017_Node000002" class="edge">
<title>Node17&#45;&gt;Node2</title>
<g id="a_edge37_Node000017_Node000002"><a xlink:title=" ">
<path fill="none" stroke="#63b8ff" d="M908.81,-219.58C906.59,-206.16 900.64,-180.68 886,-165 845.96,-122.12 821.82,-128.06 766,-110 704.4,-90.07 630.26,-77.46 584.63,-70.94"/>
<polygon fill="#63b8ff" stroke="#63b8ff" points="584.89,-67.44 574.5,-69.53 583.92,-74.38 584.89,-67.44"/>
</a>
</g>
</g>
<!-- Node17&#45;&gt;Node13 -->
<g id="edge27_Node000017_Node000013" class="edge">
<title>Node17&#45;&gt;Node13</title>
<g id="a_edge27_Node000017_Node000013"><a xlink:title=" ">
<path fill="none" stroke="#63b8ff" d="M906.11,-219.87C899.31,-205.89 883.89,-178.47 862,-165 853.98,-160.07 743.45,-141.25 673.62,-129.72"/>
<polygon fill="#63b8ff" stroke="#63b8ff" points="674.07,-126.25 663.63,-128.07 672.93,-133.15 674.07,-126.25"/>
</a>
</g>
</g>
<!-- Node17&#45;&gt;Node15 -->
<g id="edge28_Node000017_Node000015" class="edge">
<title>Node17&#45;&gt;Node15</title>
<g id="a_edge28_Node000017_Node000015"><a xlink:title=" ">
<path fill="none" stroke="#63b8ff" d="M883.33,-219.98C855.46,-211.09 811.55,-197.07 780.48,-187.15"/>
<polygon fill="#63b8ff" stroke="#63b8ff" points="781.47,-183.79 770.88,-184.08 779.34,-190.46 781.47,-183.79"/>
</a>
</g>
</g>
<!-- Node17&#45;&gt;Node16 -->
<g id="edge29_Node000017_Node000016" class="edge">
<title>Node17&#45;&gt;Node16</title>
<g id="a_edge29_Node000017_Node000016"><a xlink:title=" ">
<path fill="none" stroke="#63b8ff" d="M896.18,-219.98C882.85,-211.77 862.42,-199.18 846.69,-189.49"/>
<polygon fill="#63b8ff" stroke="#63b8ff" points="848.42,-186.44 838.07,-184.17 844.75,-192.4 848.42,-186.44"/>
</a>
</g>
</g>
<!-- Node18 -->
<g id="Node000018" class="node">
<title>Node18</title>
<g id="a_Node000018"><a xlink:href="System_8hpp.html" target="_top" xlink:title="Defines the base System class for the ECS framework.">
<polygon fill="white" stroke="#666666" points="1021,-184 947,-184 947,-165 1021,-165 1021,-184"/>
<text text-anchor="middle" x="984" y="-172" font-family="Helvetica,sans-Serif" font-size="10.00">System.hpp</text>
</a>
</g>
</g>
<!-- Node17&#45;&gt;Node18 -->
<g id="edge30_Node000017_Node000018" class="edge">
<title>Node17&#45;&gt;Node18</title>
<g id="a_edge30_Node000017_Node000018"><a xlink:title=" ">
<path fill="none" stroke="#63b8ff" d="M921.89,-219.98C933.15,-211.92 950.29,-199.65 963.71,-190.03"/>
<polygon fill="#63b8ff" stroke="#63b8ff" points="965.8,-192.84 971.89,-184.17 961.73,-187.15 965.8,-192.84"/>
</a>
</g>
</g>
<!-- Node18&#45;&gt;Node2 -->
<g id="edge31_Node000018_Node000002" class="edge">
<title>Node18&#45;&gt;Node2</title>
<g id="a_edge31_Node000018_Node000002"><a xlink:title=" ">
<path fill="none" stroke="#63b8ff" d="M964.94,-164.95C926.74,-147.85 844.2,-110.93 841,-110 752.1,-84.16 643.74,-72.8 584.95,-68.24"/>
<polygon fill="#63b8ff" stroke="#63b8ff" points="585.15,-64.74 574.92,-67.49 584.63,-71.72 585.15,-64.74"/>
</a>
</g>
</g>
<!-- Node18&#45;&gt;Node9 -->
<g id="edge35_Node000018_Node000009" class="edge">
<title>Node18&#45;&gt;Node9</title>
<g id="a_edge35_Node000018_Node000009"><a xlink:title=" ">
<path fill="none" stroke="#63b8ff" d="M946.75,-166.24C895.74,-156.3 804.5,-138.52 752.06,-128.31"/>
<polygon fill="#63b8ff" stroke="#63b8ff" points="752.59,-124.84 742.11,-126.37 751.26,-131.71 752.59,-124.84"/>
</a>
</g>
</g>
<!-- Node19 -->
<g id="Node000019" class="node">
<title>Node19</title>
<g id="a_Node000019"><a xlink:title=" ">
<polygon fill="#e0e0e0" stroke="#999999" points="1059,-129 1009,-129 1009,-110 1059,-110 1059,-129"/>
<text text-anchor="middle" x="1034" y="-117" font-family="Helvetica,sans-Serif" font-size="10.00">atomic</text>
</a>
</g>
</g>
<!-- Node18&#45;&gt;Node19 -->
<g id="edge32_Node000018_Node000019" class="edge">
<title>Node18&#45;&gt;Node19</title>
<g id="a_edge32_Node000018_Node000019"><a xlink:title=" ">
<path fill="none" stroke="#63b8ff" d="M992.26,-164.75C999.46,-157.11 1010.11,-145.82 1018.85,-136.56"/>
<polygon fill="#63b8ff" stroke="#63b8ff" points="1021.58,-138.76 1025.9,-129.09 1016.49,-133.96 1021.58,-138.76"/>
</a>
</g>
</g>
<!-- Node20 -->
<g id="Node000020" class="node">
<title>Node20</title>
<g id="a_Node000020"><a xlink:title=" ">
<polygon fill="#e0e0e0" stroke="#999999" points="940.5,-129 893.5,-129 893.5,-110 940.5,-110 940.5,-129"/>
<text text-anchor="middle" x="917" y="-117" font-family="Helvetica,sans-Serif" font-size="10.00">cmath</text>
</a>
</g>
</g>
<!-- Node18&#45;&gt;Node20 -->
<g id="edge33_Node000018_Node000020" class="edge">
<title>Node18&#45;&gt;Node20</title>
<g id="a_edge33_Node000018_Node000020"><a xlink:title=" ">
<path fill="none" stroke="#63b8ff" d="M973.24,-164.98C963.23,-157.07 948.11,-145.11 936.07,-135.58"/>
<polygon fill="#63b8ff" stroke="#63b8ff" points="937.97,-132.63 927.96,-129.17 933.63,-138.12 937.97,-132.63"/>
</a>
</g>
</g>
<!-- Node21 -->
<g id="Node000021" class="node">
<title>Node21</title>
<g id="a_Node000021"><a xlink:title=" ">
<polygon fill="#e0e0e0" stroke="#999999" points="1142.5,-129 1077.5,-129 1077.5,-110 1142.5,-110 1142.5,-129"/>
<text text-anchor="middle" x="1110" y="-117" font-family="Helvetica,sans-Serif" font-size="10.00">functional</text>
</a>
</g>
</g>
<!-- Node18&#45;&gt;Node21 -->
<g id="edge34_Node000018_Node000021" class="edge">
<title>Node18&#45;&gt;Node21</title>
<g id="a_edge34_Node000018_Node000021"><a xlink:title=" ">
<path fill="none" stroke="#63b8ff" d="M1004.24,-164.98C1024.7,-156.38 1056.53,-142.99 1079.93,-133.15"/>
<polygon fill="#63b8ff" stroke="#63b8ff" points="1081.53,-136.27 1089.39,-129.17 1078.81,-129.82 1081.53,-136.27"/>
</a>
</g>
</g>
<!-- Node22 -->
<g id="Node000022" class="node">
<title>Node22</title>
<g id="a_Node000022"><a xlink:title=" ">
<polygon fill="#e0e0e0" stroke="#999999" points="991,-129 959,-129 959,-110 991,-110 991,-129"/>
<text text-anchor="middle" x="975" y="-117" font-family="Helvetica,sans-Serif" font-size="10.00">set</text>
</a>
</g>
</g>
<!-- Node18&#45;&gt;Node22 -->
<g id="edge36_Node000018_Node000022" class="edge">
<title>Node18&#45;&gt;Node22</title>
<g id="a_edge36_Node000018_Node000022"><a xlink:title=" ">
<path fill="none" stroke="#63b8ff" d="M982.51,-164.75C981.33,-157.8 979.64,-147.85 978.16,-139.13"/>
<polygon fill="#63b8ff" stroke="#63b8ff" points="981.58,-138.36 976.46,-129.09 974.68,-139.53 981.58,-138.36"/>
</a>
</g>
</g>
<!-- Node23&#45;&gt;Node2 -->
<g id="edge53_Node000023_Node000002" class="edge">
<title>Node23&#45;&gt;Node2</title>
<g id="a_edge53_Node000023_Node000002"><a xlink:title=" ">
<path fill="none" stroke="#63b8ff" d="M1148.12,-274.84C1160.83,-246.75 1195.94,-157.26 1152,-110 1113.55,-68.64 717.75,-65.29 585.08,-65.34"/>
<polygon fill="#63b8ff" stroke="#63b8ff" points="584.89,-61.84 574.89,-65.35 584.89,-68.84 584.89,-61.84"/>
</a>
</g>
</g>
<!-- Node23&#45;&gt;Node5 -->
<g id="edge51_Node000023_Node000005" class="edge">
<title>Node23&#45;&gt;Node5</title>
<g id="a_edge51_Node000023_Node000005"><a xlink:title=" ">
<path fill="none" stroke="#63b8ff" d="M1096.82,-281.88C998.33,-278.06 763.79,-266.63 569,-239 474.8,-225.64 366.08,-200.79 306.92,-186.46"/>
<polygon fill="#63b8ff" stroke="#63b8ff" points="307.71,-183.05 297.17,-184.08 306.05,-189.85 307.71,-183.05"/>
</a>
</g>
</g>
<!-- Node23&#45;&gt;Node9 -->
<g id="edge44_Node000023_Node000009" class="edge">
<title>Node23&#45;&gt;Node9</title>
<g id="a_edge44_Node000023_Node000009"><a xlink:title=" ">
<path fill="none" stroke="#63b8ff" d="M1138.65,-274.76C1124.28,-252.17 1082.38,-191.73 1030,-165 982.26,-140.64 826.82,-127.77 752.41,-122.87"/>
<polygon fill="#63b8ff" stroke="#63b8ff" points="752.24,-119.35 742.04,-122.2 751.8,-126.34 752.24,-119.35"/>
</a>
</g>
</g>
<!-- Node23&#45;&gt;Node14 -->
<g id="edge50_Node000023_Node000014" class="edge">
<title>Node23&#45;&gt;Node14</title>
<g id="a_edge50_Node000023_Node000014"><a xlink:title=" ">
<path fill="none" stroke="#63b8ff" d="M1096.7,-278.47C1010.94,-269.34 828.99,-249.97 724.39,-238.84"/>
<polygon fill="#63b8ff" stroke="#63b8ff" points="724.52,-235.34 714.21,-237.76 723.78,-242.3 724.52,-235.34"/>
</a>
</g>
</g>
<!-- Node23&#45;&gt;Node16 -->
<g id="edge45_Node000023_Node000016" class="edge">
<title>Node23&#45;&gt;Node16</title>
<g id="a_edge45_Node000023_Node000016"><a xlink:title=" ">
<path fill="none" stroke="#63b8ff" d="M1096.82,-282.54C1021.83,-280.05 880.1,-271.11 843,-239 830.23,-227.95 825.86,-208.7 824.45,-194.28"/>
<polygon fill="#63b8ff" stroke="#63b8ff" points="827.93,-193.79 823.85,-184.01 820.94,-194.19 827.93,-193.79"/>
</a>
</g>
</g>
<!-- Node23&#45;&gt;Node17 -->
<g id="edge52_Node000023_Node000017" class="edge">
<title>Node23&#45;&gt;Node17</title>
<g id="a_edge52_Node000023_Node000017"><a xlink:title=" ">
<path fill="none" stroke="#63b8ff" d="M1106.4,-274.98C1066.01,-265.84 1001.72,-251.27 957.77,-241.32"/>
<polygon fill="#63b8ff" stroke="#63b8ff" points="958.42,-237.88 947.89,-239.08 956.87,-244.7 958.42,-237.88"/>
</a>
</g>
</g>
<!-- Node23&#45;&gt;Node19 -->
<g id="edge39_Node000023_Node000019" class="edge">
<title>Node23&#45;&gt;Node19</title>
<g id="a_edge39_Node000023_Node000019"><a xlink:title=" ">
<path fill="none" stroke="#63b8ff" d="M1142.76,-274.86C1139.41,-253.97 1128.46,-199.92 1101,-165 1090.69,-151.89 1075.42,-141.33 1062.06,-133.79"/>
<polygon fill="#63b8ff" stroke="#63b8ff" points="1063.67,-130.68 1053.2,-129.06 1060.37,-136.85 1063.67,-130.68"/>
</a>
</g>
</g>
<!-- Node23&#45;&gt;Node21 -->
<g id="edge42_Node000023_Node000021" class="edge">
<title>Node23&#45;&gt;Node21</title>
<g id="a_edge42_Node000023_Node000021"><a xlink:title=" ">
<path fill="none" stroke="#63b8ff" d="M1145.15,-274.9C1147.51,-254.99 1151.62,-204.42 1139,-165 1135.81,-155.05 1129.76,-145.18 1124.01,-137.28"/>
<polygon fill="#63b8ff" stroke="#63b8ff" points="1126.71,-135.05 1117.81,-129.29 1121.18,-139.34 1126.71,-135.05"/>
</a>
</g>
</g>
<!-- Node24 -->
<g id="Node000024" class="node">
<title>Node24</title>
<g id="a_Node000024"><a xlink:title=" ">
<polygon fill="#e0e0e0" stroke="#999999" points="1243,-239 1191,-239 1191,-220 1243,-220 1243,-239"/>
<text text-anchor="middle" x="1217" y="-227" font-family="Helvetica,sans-Serif" font-size="10.00">cassert</text>
</a>
</g>
</g>
<!-- Node23&#45;&gt;Node24 -->
<g id="edge40_Node000023_Node000024" class="edge">
<title>Node23&#45;&gt;Node24</title>
<g id="a_edge40_Node000023_Node000024"><a xlink:title=" ">
<path fill="none" stroke="#63b8ff" d="M1155.73,-274.98C1166.73,-267 1183.42,-254.88 1196.6,-245.31"/>
<polygon fill="#63b8ff" stroke="#63b8ff" points="1199.02,-247.88 1205.06,-239.17 1194.91,-242.21 1199.02,-247.88"/>
</a>
</g>
</g>
<!-- Node25 -->
<g id="Node000025" class="node">
<title>Node25</title>
<g id="a_Node000025"><a xlink:title=" ">
<polygon fill="#e0e0e0" stroke="#999999" points="1368.5,-239 1261.5,-239 1261.5,-220 1368.5,-220 1368.5,-239"/>
<text text-anchor="middle" x="1315" y="-227" font-family="Helvetica,sans-Serif" font-size="10.00">condition_variable</text>
</a>
</g>
</g>
<!-- Node23&#45;&gt;Node25 -->
<g id="edge41_Node000023_Node000025" class="edge">
<title>Node23&#45;&gt;Node25</title>
<g id="a_edge41_Node000023_Node000025"><a xlink:title=" ">
<path fill="none" stroke="#63b8ff" d="M1171.47,-274.98C1200.18,-266.09 1245.42,-252.07 1277.42,-242.15"/>
<polygon fill="#63b8ff" stroke="#63b8ff" points="1278.8,-245.39 1287.31,-239.08 1276.72,-238.7 1278.8,-245.39"/>
</a>
</g>
</g>
<!-- Node26 -->
<g id="Node000026" class="node">
<title>Node26</title>
<g id="a_Node000026"><a xlink:title=" ">
<polygon fill="#e0e0e0" stroke="#999999" points="1433,-239 1387,-239 1387,-220 1433,-220 1433,-239"/>
<text text-anchor="middle" x="1410" y="-227" font-family="Helvetica,sans-Serif" font-size="10.00">future</text>
</a>
</g>
</g>
<!-- Node23&#45;&gt;Node26 -->
<g id="edge43_Node000023_Node000026" class="edge">
<title>Node23&#45;&gt;Node26</title>
<g id="a_edge43_Node000023_Node000026"><a xlink:title=" ">
<path fill="none" stroke="#63b8ff" d="M1191.27,-275.54C1236.55,-267.68 1307,-254.85 1377.09,-239.07"/>
<polygon fill="#63b8ff" stroke="#63b8ff" points="1378,-242.46 1386.98,-236.83 1376.45,-235.63 1378,-242.46"/>
</a>
</g>
</g>
<!-- Node27 -->
<g id="Node000027" class="node">
<title>Node27</title>
<g id="a_Node000027"><a xlink:title=" ">
<polygon fill="#e0e0e0" stroke="#999999" points="1499,-239 1451,-239 1451,-220 1499,-220 1499,-239"/>
<text text-anchor="middle" x="1475" y="-227" font-family="Helvetica,sans-Serif" font-size="10.00">mutex</text>
</a>
</g>
</g>
<!-- Node23&#45;&gt;Node27 -->
<g id="edge46_Node000023_Node000027" class="edge">
<title>Node23&#45;&gt;Node27</title>
<g id="a_edge46_Node000023_Node000027"><a xlink:title=" ">
<path fill="none" stroke="#63b8ff" d="M1191.23,-277.99C1248.2,-270.99 1347.03,-257.78 1440.96,-239.02"/>
<polygon fill="#63b8ff" stroke="#63b8ff" points="1441.81,-242.42 1450.92,-237.01 1440.42,-235.56 1441.81,-242.42"/>
</a>
</g>
</g>
<!-- Node28 -->
<g id="Node000028" class="node">
<title>Node28</title>
<g id="a_Node000028"><a xlink:title=" ">
<polygon fill="#e0e0e0" stroke="#999999" points="1603,-239 1517,-239 1517,-220 1603,-220 1603,-239"/>
<text text-anchor="middle" x="1560" y="-227" font-family="Helvetica,sans-Serif" font-size="10.00">shared_mutex</text>
</a>
</g>
</g>
<!-- Node23&#45;&gt;Node28 -->
<g id="edge47_Node000023_Node000028" class="edge">
<title>Node23&#45;&gt;Node28</title>
<g id="a_edge47_Node000023_Node000028"><a xlink:title=" ">
<path fill="none" stroke="#63b8ff" d="M1191.2,-278.35C1258.79,-270.83 1387.28,-256.04 1506.83,-239.12"/>
<polygon fill="#63b8ff" stroke="#63b8ff" points="1507.48,-242.56 1516.89,-237.68 1506.5,-235.63 1507.48,-242.56"/>
</a>
</g>
</g>
<!-- Node29 -->
<g id="Node000029" class="node">
<title>Node29</title>
<g id="a_Node000029"><a xlink:title=" ">
<polygon fill="#e0e0e0" stroke="#999999" points="1669,-239 1621,-239 1621,-220 1669,-220 1669,-239"/>
<text text-anchor="middle" x="1645" y="-227" font-family="Helvetica,sans-Serif" font-size="10.00">thread</text>
</a>
</g>
</g>
<!-- Node23&#45;&gt;Node29 -->
<g id="edge48_Node000023_Node000029" class="edge">
<title>Node23&#45;&gt;Node29</title>
<g id="a_edge48_Node000023_Node000029"><a xlink:title=" ">
<path fill="none" stroke="#63b8ff" d="M1191.16,-281.47C1274.19,-277.37 1451.97,-266.2 1610.98,-238.9"/>
<polygon fill="#63b8ff" stroke="#63b8ff" points="1611.69,-242.33 1620.94,-237.16 1610.49,-235.43 1611.69,-242.33"/>
</a>
</g>
</g>
<!-- Node30 -->
<g id="Node000030" class="node">
<title>Node30</title>
<g id="a_Node000030"><a xlink:title=" ">
<polygon fill="#e0e0e0" stroke="#999999" points="1734.5,-239 1687.5,-239 1687.5,-220 1734.5,-220 1734.5,-239"/>
<text text-anchor="middle" x="1711" y="-227" font-family="Helvetica,sans-Serif" font-size="10.00">vector</text>
</a>
</g>
</g>
<!-- Node23&#45;&gt;Node30 -->
<g id="edge49_Node000023_Node000030" class="edge">
<title>Node23&#45;&gt;Node30</title>
<g id="a_edge49_Node000023_Node000030"><a xlink:title=" ">
<path fill="none" stroke="#63b8ff" d="M1191.12,-282.24C1282.94,-279.22 1492.29,-269.5 1677.4,-238.78"/>
<polygon fill="#63b8ff" stroke="#63b8ff" points="1678.03,-242.22 1687.31,-237.11 1676.87,-235.32 1678.03,-242.22"/>
</a>
</g>
</g>
</g>
</svg>
