<?xml version="1.0" encoding="UTF-8" standalone="no"?>
<!DOCTYPE svg PUBLIC "-//W3C//DTD SVG 1.1//EN"
 "http://www.w3.org/Graphics/SVG/1.1/DTD/svg11.dtd">
<!-- Generated by graphviz version 2.43.0 (0)
 -->
<!-- Title: includes/EntityManager.hpp Pages: 1 -->
<svg width="201pt" height="137pt"
 viewBox="0.00 0.00 200.50 137.00" xmlns="http://www.w3.org/2000/svg" xmlns:xlink="http://www.w3.org/1999/xlink">
<g id="graph0" class="graph" transform="scale(1 1) rotate(0) translate(4 133)">
<title>includes/EntityManager.hpp</title>
<!-- Node1 -->
<g id="Node000001" class="node">
<title>Node1</title>
<g id="a_Node000001"><a xlink:title=" ">
<polygon fill="#999999" stroke="#666666" points="192.5,-129 40.5,-129 40.5,-110 192.5,-110 192.5,-129"/>
<text text-anchor="middle" x="116.5" y="-117" font-family="Helvetica,sans-Serif" font-size="10.00">includes/EntityManager.hpp</text>
</a>
</g>
</g>
<!-- Node2 -->
<g id="Node000002" class="node">
<title>Node2</title>
<g id="a_Node000002"><a xlink:href="Coordinator_8hpp.html" target="_top" xlink:title="Central coordinator for the Entity Component System.">
<polygon fill="white" stroke="#666666" points="137,-74 0,-74 0,-55 137,-55 137,-74"/>
<text text-anchor="middle" x="68.5" y="-62" font-family="Helvetica,sans-Serif" font-size="10.00">includes/Coordinator.hpp</text>
</a>
</g>
</g>
<!-- Node1&#45;&gt;Node2 -->
<g id="edge1_Node000001_Node000002" class="edge">
<title>Node1&#45;&gt;Node2</title>
<g id="a_edge1_Node000001_Node000002"><a xlink:title=" ">
<path fill="none" stroke="#63b8ff" d="M101.77,-102.24C93.36,-92.95 83.15,-81.68 76.28,-74.09"/>
<polygon fill="#63b8ff" stroke="#63b8ff" points="99.27,-104.69 108.57,-109.75 104.46,-99.99 99.27,-104.69"/>
</a>
</g>
</g>
<!-- Node3 -->
<g id="Node000003" class="node">
<title>Node3</title>
<g id="a_Node000003"><a xlink:href="ECS_8hpp.html" target="_top" xlink:title=" ">
<polygon fill="white" stroke="#666666" points="166.5,-19 66.5,-19 66.5,0 166.5,0 166.5,-19"/>
<text text-anchor="middle" x="116.5" y="-7" font-family="Helvetica,sans-Serif" font-size="10.00">includes/ECS.hpp</text>
</a>
</g>
</g>
<!-- Node1&#45;&gt;Node3 -->
<g id="edge3_Node000001_Node000003" class="edge">
<title>Node1&#45;&gt;Node3</title>
<g id="a_edge3_Node000001_Node000003"><a xlink:title=" ">
<path fill="none" stroke="#63b8ff" d="M131.19,-101.85C137.18,-93.98 143.41,-84.1 146.5,-74 152.77,-53.48 136.24,-31.16 125.3,-19.22"/>
<polygon fill="#63b8ff" stroke="#63b8ff" points="128.32,-99.84 124.71,-109.8 133.74,-104.26 128.32,-99.84"/>
</a>
</g>
</g>
<!-- Node2&#45;&gt;Node3 -->
<g id="edge2_Node000002_Node000003" class="edge">
<title>Node2&#45;&gt;Node3</title>
<g id="a_edge2_Node000002_Node000003"><a xlink:title=" ">
<path fill="none" stroke="#63b8ff" d="M83.23,-47.24C91.64,-37.95 101.85,-26.68 108.72,-19.09"/>
<polygon fill="#63b8ff" stroke="#63b8ff" points="80.54,-44.99 76.43,-54.75 85.73,-49.69 80.54,-44.99"/>
</a>
</g>
</g>
</g>
</svg>
